<?xml version="1.0" encoding="UTF-8"?>
<svg version="1.1" xmlns="http://www.w3.org/2000/svg" width="515" height="606">
<path d="M0 0 C0.72896484 0.86625 0.72896484 0.86625 1.47265625 1.75 C2.9834531 3.28389823 2.9834531 3.28389823 5.40234375 2.78515625 C7.81265062 2.05662741 10.18629109 1.26977622 12.5625 0.4375 C22.88263081 -2.67078866 33.78734222 -1.65316433 43.40625 3.21875 C51.45685597 8.18145231 57.93152281 14.98634826 61 24 C62.093125 23.835 63.18625 23.67 64.3125 23.5 C77.65939666 21.89931398 89.11764099 23.60503734 100 32 C108.84641626 40.98173429 111.56103451 50.74985961 113 63 C113.61746094 63.15855469 114.23492187 63.31710938 114.87109375 63.48046875 C125.16483629 66.31633998 135.50845055 71.12587736 141.5390625 80.35546875 C147.72009392 92.01267713 147.57266991 102.29744231 145 115 C145.64066406 115.49628906 146.28132813 115.99257812 146.94140625 116.50390625 C158.84719912 125.85465565 168.02562317 135.22555175 170 151 C169.70783149 159.24463009 168.02441194 165.8599143 164 173 C163.11792614 175.44151915 163.11792614 175.44151915 163 178 C164.04168712 180.04860107 164.04168712 180.04860107 165.6875 181.9375 C171.77488421 190.46551377 174.42971578 201.61267722 173 212 C170.23666715 224.79205767 164.8438868 235.37145173 154 243 C144.63637964 248.59216216 136.15866688 252.57507697 125 250 C125.03085693 251.24346191 125.06171387 252.48692383 125.09350586 253.76806641 C125.08952571 259.49682251 124.32205059 265.049549 123.50390625 270.7109375 C123.27440529 272.34586655 123.27440529 272.34586655 123.04026794 274.01382446 C122.71784236 276.3017857 122.39244181 278.58932949 122.06420898 280.87646484 C121.56118982 284.3841362 121.06793939 287.89307902 120.57617188 291.40234375 C120.26098534 293.63028886 119.94524956 295.85815635 119.62890625 298.0859375 C119.4069735 299.66089493 119.4069735 299.66089493 119.18055725 301.26766968 C118.97045265 302.72531235 118.97045265 302.72531235 118.75610352 304.21240234 C118.63396988 305.06683929 118.51183624 305.92127625 118.38600159 306.80160522 C118 309 118 309 117 312 C116.34 312 115.68 312 115 312 C114.90348145 312.77569336 114.80696289 313.55138672 114.70751953 314.35058594 C113.27911535 325.09851313 111.15002094 335.6537345 108.875 346.25 C108.57770996 347.63679459 108.57770996 347.63679459 108.27441406 349.05160522 C100.69912455 384.15133041 90.19933558 420.26702175 65 447 C64.5457666 447.49516113 64.0915332 447.99032227 63.62353516 448.50048828 C50.60619931 462.62822077 27.7479985 484.32310698 7.5625 485.5 C-2.22058874 484.85498614 -11.21356171 479.57623157 -19.625 474.9375 C-20.66897949 474.36604248 -21.71295898 473.79458496 -22.78857422 473.20581055 C-31.81158266 468.21080718 -40.49659197 462.83027401 -49 457 C-49.59393555 456.59749023 -50.18787109 456.19498047 -50.79980469 455.78027344 C-82.86842567 433.9550517 -110.2791984 406.46635822 -130 373 C-130.57161865 372.04407959 -130.57161865 372.04407959 -131.15478516 371.06884766 C-153 334.38712985 -153 334.38712985 -153 321 C-153.99 321.33 -154.98 321.66 -156 322 C-164.39434138 322.87651757 -171.50632156 321.08622651 -178.25 316 C-178.85328125 315.505 -179.4565625 315.01 -180.078125 314.5 C-182.02164915 312.90822337 -182.02164915 312.90822337 -184.48046875 311.58984375 C-187.2222222 309.85977607 -188.97065122 308.02863583 -191.0625 305.5625 C-192.36751787 304.03524146 -193.67993388 302.51427068 -195 301 C-195.63164062 300.236875 -196.26328125 299.47375 -196.9140625 298.6875 C-198.87551622 296.75100414 -198.87551622 296.75100414 -201.48828125 296.93359375 C-202.42027344 297.09988281 -203.35226563 297.26617187 -204.3125 297.4375 C-215.98245971 298.80373919 -227.47005884 295.88596358 -237 289 C-246.39274624 281.21821896 -253.7334954 271.41991611 -255 259 C-255.38001357 252.91978292 -255.24832098 247.55665451 -253.5625 241.6875 C-252.92850109 239.27700143 -252.92850109 239.27700143 -253 237 C-254.40532058 234.99439348 -256.02548915 233.67716937 -257.91015625 232.1171875 C-265.80135976 224.1227346 -268.30272206 212.84251538 -268.31469727 202.01293945 C-268.08919093 190.94711651 -264.40241353 181.23114673 -257 173 C-245.1552901 162 -245.1552901 162 -239 162 C-239.2165625 161.00033203 -239.2165625 161.00033203 -239.4375 159.98046875 C-241.8921375 147.79251174 -242.2428794 136.00226331 -235.875 124.875 C-229.69788139 115.93009233 -222.17875197 109.8972699 -212 106 C-211.01 106 -210.02 106 -209 106 C-209.2475 104.824375 -209.2475 104.824375 -209.5 103.625 C-211.09160721 92.08584773 -209.64393043 81.6256421 -202.64453125 72.0546875 C-202.10183594 71.37664062 -201.55914062 70.69859375 -201 70 C-200.50886719 69.38382812 -200.01773438 68.76765625 -199.51171875 68.1328125 C-192.83089622 60.67283697 -182.84016103 55.58145445 -173 54 C-171.33347266 53.97845008 -169.66646879 53.97431812 -168 54 C-167.87044922 52.98292969 -167.87044922 52.98292969 -167.73828125 51.9453125 C-166.12523712 41.26074498 -162.79033505 33.62005971 -154.3203125 26.6875 C-144.61194015 19.62686556 -133.82636368 18.15757409 -122 19 C-119.23028891 19.4942869 -116.69535142 20.1706611 -114 21 C-113.75507813 20.11441406 -113.51015625 19.22882812 -113.2578125 18.31640625 C-110.20332883 10.26281422 -102.74169382 3.60010715 -95 0 C-82.6898933 -5.47610533 -69.20278822 -3.87273464 -56.97265625 0.76953125 C-54.92220845 1.20972402 -54.92220845 1.20972402 -53.10546875 -0.109375 C-52.15607422 -0.92148437 -52.15607422 -0.92148437 -51.1875 -1.75 C-35.9886806 -13.92600587 -15.03344339 -10.59237112 0 0 Z M-39 16 C-40.16711813 19.5013544 -39.75554384 20.30986034 -38.5625 23.6875 C-35.67828748 32.85849834 -37.24776124 39.88391386 -41.125 48.5 C-44.2486033 50.99888264 -48.07671504 51.20398362 -52 51 C-54.57185174 50.12584646 -55.6779516 49.59772184 -56.9765625 47.1875 C-57.29753906 46.1046875 -57.29753906 46.1046875 -57.625 45 C-57.98851562 43.79923828 -57.98851562 43.79923828 -58.359375 42.57421875 C-59.00100966 39.99594289 -59.44672039 37.43372984 -59.875 34.8125 C-61.02822508 28.72498398 -63.52086942 25.85934793 -68.5 22.125 C-75.00205665 20.03505322 -82.02575798 19.99088217 -88.5 22.1875 C-91.3981022 24.2886241 -93.78002794 26.17458101 -96 29 C-96.23365304 33.32258121 -93.47972518 36.6611083 -91.15625 40.1328125 C-88.64714731 44.18467428 -88.50502404 48.36777218 -89 53 C-90.0625 55.4375 -90.0625 55.4375 -92 57 C-96.77284361 58.2374039 -99.62607097 58.18031721 -104 56 C-105.63399268 54.5986619 -107.21539699 53.1345278 -108.75 51.625 C-115.74808989 45.20577722 -121.72343222 42.2310479 -131.34375 42.609375 C-135.33779322 43.1967343 -138.84547368 44.43842975 -142 47 C-144.29912091 50.70413924 -144.38031094 53.66445524 -144 58 C-143.04906703 59.69514137 -142.04892238 61.36368108 -141 63 C-140.13600316 66.19014217 -139.90691882 68.4282156 -140.4375 71.6875 C-142.77111069 75.14124382 -146.10622314 76.0075176 -150 77 C-152.99944176 77.23770168 -155.93618999 77.09716457 -158.9375 76.9375 C-165.8034199 76.76186344 -171.14859576 77.02104512 -177 81 C-177.58007812 81.37382813 -178.16015625 81.74765625 -178.7578125 82.1328125 C-182.81583204 85.09301033 -184.55492094 88.26335198 -186 93 C-186.69477483 100.29513569 -185.05806355 105.91290468 -181 112 C-180.21214365 118.97815624 -180.21214365 118.97815624 -183.078125 122.6953125 C-186.63138783 125.49801982 -188.7123636 125.70320339 -193.1875 126 C-201.2138397 126.75642439 -207.70636733 128.70636733 -213.5 134.5 C-217.49523653 141.15872755 -217.88809136 147.35544891 -217 155 C-215.9461214 158.02516231 -214.70122679 160.74072715 -213.19140625 163.5625 C-211.17884424 167.68000392 -210.78333232 170.16221832 -211.9375 174.625 C-214.31165773 178.50998537 -215.56727218 179.18459041 -219.75 180.4609375 C-222.03318498 181.00795057 -224.32262812 181.47858128 -226.625 181.9375 C-233.56991597 183.40523997 -237.99074649 187.20885604 -242 193 C-244.46841624 199.73204429 -244.90798622 206.55820808 -242.0234375 213.2734375 C-238.67864581 219.07826952 -234.69671671 222.14603971 -228.25 224.1875 C-225 226 -225 226 -224.04296875 228.01171875 C-223.14396613 231.52072899 -222.81829324 234.20049026 -223.625 237.75 C-225.2154006 240.35247371 -227.09577907 242.61972384 -229 245 C-231.75859249 250.24132573 -231.67927685 255.39879916 -230 261 C-227.49777729 267.07851271 -222.16203316 271.1983313 -216.3125 273.9375 C-213.23226972 274.92549839 -211.17672131 275.09200045 -208 275 C-208.12117188 274.45174561 -208.24234375 273.90349121 -208.3671875 273.33862305 C-214.90489453 243.38146648 -214.90489453 243.38146648 -207.67578125 230.671875 C-201.81617956 222.36692772 -194.76099144 219.77119977 -185 218 C-177.80740062 217.1576235 -168.61347403 217.95315149 -162.4375 222 C-158.09982175 225.55912062 -158.09982175 225.55912062 -157.25 229.3125 C-156.99788151 233.03124778 -157.24853468 234.77361652 -159 238 C-161.89825856 240.89825856 -165.06209339 240.96628505 -169 241 C-171.3139549 240.6077371 -173.55465312 240.06444484 -175.83203125 239.5 C-179.05914438 238.75572886 -181.71281755 238.55749467 -185 239 C-188.2537541 241.57051352 -189.80625952 243.11139141 -190.69921875 247.20703125 C-190.63764818 266.15024474 -181.50670269 283.39004575 -168.921875 297.265625 C-166.71698613 299.25540276 -164.68372822 300.71647781 -162 302 C-159.87689152 301.62221556 -159.87689152 301.62221556 -158 301 C-157.41696395 290.75390157 -159.63197737 281.48524107 -161.95507812 271.5625 C-163.49671791 264.6414442 -164.51485265 258.98149483 -163 252 C-160.35248585 249.35248585 -158.70238904 249.28479916 -155 249 C-151.9375 249.25 -151.9375 249.25 -149 251 C-144.82380253 258.09752984 -142.7217996 265.9187669 -140.875 273.875 C-140.49770752 275.44121094 -140.49770752 275.44121094 -140.11279297 277.0390625 C-139.39685894 280.02343559 -138.69582373 283.01088336 -138 286 C-137.65112728 287.48179099 -137.30218059 288.96356457 -136.953125 290.4453125 C-136.28941206 293.29426899 -135.63575068 296.1446987 -135 299 C-134.12021484 298.51466797 -134.12021484 298.51466797 -133.22265625 298.01953125 C-130.02665141 296.55352551 -127.46867459 296.68466595 -124 297 C-122.125 298 -122.125 298 -121 300 C-120.27703613 304.14061126 -120 307.79766407 -120 312 C-120.66 312 -121.32 312 -122 312 C-124.06189931 317.91781337 -124.24167838 323.20418214 -124.125 329.4375 C-124.11597656 330.35982422 -124.10695313 331.28214844 -124.09765625 332.23242188 C-124.0742766 334.48855809 -124.04150916 336.74413684 -124 339 C-123.01 339 -122.02 339 -121 339 C-120.66226563 338.28972656 -120.32453125 337.57945312 -119.9765625 336.84765625 C-119.53054687 335.92855469 -119.08453125 335.00945312 -118.625 334.0625 C-118.18414062 333.14597656 -117.74328125 332.22945313 -117.2890625 331.28515625 C-116 329 -116 329 -114 328 C-111.3276379 327.86584528 -108.67749512 327.95681459 -106 328 C-105.18134862 334.51142713 -105.02361527 340.51674137 -105.734375 347.03515625 C-106.45971767 355.13126044 -106.92844952 363.31282 -104 371 C-101.19161009 368.19161009 -100.54538399 364.83986324 -99.4375 361.125 C-99.10588867 360.04412109 -99.10588867 360.04412109 -98.76757812 358.94140625 C-97.7628651 355.64497621 -96.81713792 352.34743497 -96 349 C-88.53619475 347.65406791 -88.53619475 347.65406791 -86.0625 349.25 C-83.66971707 353.19105424 -83.92348022 356.63025712 -84.0078125 361.125 C-84.02535511 362.56900307 -84.04226079 364.01301399 -84.05859375 365.45703125 C-84.08929662 367.71685992 -84.12450801 369.97628589 -84.17138672 372.23583984 C-84.96423196 387.25990087 -84.96423196 387.25990087 -78.89111328 400.29296875 C-78.2670459 400.85628906 -77.64297852 401.41960937 -77 402 C-76.81824219 400.78183594 -76.63648438 399.56367188 -76.44921875 398.30859375 C-76.19579743 396.68482008 -75.9418639 395.06112629 -75.6875 393.4375 C-75.56955078 392.63763672 -75.45160156 391.83777344 -75.33007812 391.01367188 C-74.52031907 385.92672394 -73.46362616 381.55144494 -71 377 C-67.5 375.875 -67.5 375.875 -64 376 C-61.85139927 377.50402051 -61.16447508 378.67104985 -60 381 C-59.81254976 382.87762042 -59.67822936 384.76066555 -59.5703125 386.64453125 C-59.49683594 387.79759766 -59.42335937 388.95066406 -59.34765625 390.13867188 C-59.20184164 392.54461297 -59.06102585 394.95086347 -58.92578125 397.35742188 C-57.86785648 413.90154462 -57.86785648 413.90154462 -50 428 C-49.67 428 -49.34 428 -49 428 C-48.96261719 426.72125 -48.92523438 425.4425 -48.88671875 424.125 C-48.82101258 422.4166396 -48.75456689 420.70830753 -48.6875 419 C-48.65366211 417.74123047 -48.65366211 417.74123047 -48.61914062 416.45703125 C-48.37419829 410.71202023 -47.28101272 406.28363267 -45 401 C-38.52488688 399.6561086 -38.52488688 399.6561086 -36.1875 401.1875 C-33.74045339 404.92246587 -32.67724009 408.06914381 -32.0703125 412.5078125 C-31.91433594 413.57773437 -31.75835937 414.64765625 -31.59765625 415.75 C-31.28592094 417.97594471 -30.97853093 420.20250287 -30.67578125 422.4296875 C-29.10596466 433.09933525 -26.51929818 441.13891554 -19 449 C-17.88964127 445.6689238 -18.30649241 443.49429459 -18.73046875 440.07421875 C-19.09082344 435.96408631 -19.19737323 431.87436417 -19.25 427.75 C-19.27118896 426.96939209 -19.29237793 426.18878418 -19.31420898 425.38452148 C-19.34252607 420.75492667 -18.99401515 417.76807761 -16 414 C-14.125 413 -14.125 413 -12 413 C-8.19938089 414.57098324 -7.13840898 415.699465 -5.39428711 419.48657227 C-4.9202929 420.92392948 -4.46574162 422.36779534 -4.02734375 423.81640625 C-3.77755264 424.58750229 -3.52776154 425.35859833 -3.270401 426.15306091 C-2.47556397 428.61775683 -1.70577541 431.08941012 -0.9375 433.5625 C0.08900276 436.79491209 1.12481742 440.02431557 2.16015625 443.25390625 C2.40520905 444.02497711 2.65026184 444.79604797 2.90274048 445.59048462 C4.68781143 451.16654188 6.67308081 456.62395548 9 462 C12.33691199 458.95217119 13.5552903 455.50739123 15 451.3125 C15.26200195 450.56081543 15.52400391 449.80913086 15.79394531 449.03466797 C18.68697715 440.41862111 20.17536017 431.67191296 21.48046875 422.6953125 C22.56962541 415.67630293 22.56962541 415.67630293 24.75 412.25 C27 411 27 411 30.0625 410.8125 C33 412 33 412 34.8125 415.25 C36.8272183 421.61226831 37.1267572 427.18412237 37.0625 433.8125 C37.05798828 434.69615234 37.05347656 435.57980469 37.04882812 436.49023438 C37.03709866 438.66018559 37.01916495 440.83010172 37 443 C41.35202023 440.29469012 43.08097347 437.69036389 44.47216797 432.91650391 C45.64769914 426.42117766 45.50760225 419.77023925 45.5625 413.1875 C45.58636737 410.93504728 45.61452129 408.68297106 45.65428162 406.43074036 C45.68953296 404.4008399 45.70957342 402.37069203 45.72875977 400.34057617 C45.97927768 397.25521474 46.23107199 395.50480207 48 393 C50.68216689 392.01183325 52.26432209 391.76579004 55 392.63671875 C57.79873624 394.54445107 58.40657132 396.55495916 59.625 399.6875 C60.04394531 400.75871094 60.46289062 401.82992188 60.89453125 402.93359375 C62.09697589 406.26899672 63.1404506 409.5618024 64 413 C68.36088411 408.07030492 68.14327873 402.71516325 67.78125 396.46484375 C67.70390625 395.30662109 67.70390625 395.30662109 67.625 394.125 C67.58117187 393.36058594 67.53734375 392.59617187 67.4921875 391.80859375 C67.18834994 386.83747368 66.63674669 381.93866946 66 377 C65.28745717 369.19707196 65.28745717 369.19707196 67.5625 365.375 C70.98684339 363.44331911 73.26229358 364.13745236 77 365 C77.4021875 366.1446875 77.4021875 366.1446875 77.8125 367.3125 C78.94424112 369.87380884 79.91223401 371.19692938 82 373 C84.11216129 368.67388652 84.42053463 364.61142238 84.4375 359.875 C84.44438843 358.70650513 84.44438843 358.70650513 84.45141602 357.5144043 C84.32198448 350.49921512 82.80495944 344.12556637 80.69116211 337.45849609 C79.15577468 332.48507044 78.87061562 329.10589945 80 324 C83.125 323.25 83.125 323.25 87 323 C88.98 324.32 90.96 325.64 93 327 C94.485 319.575 94.485 319.575 96 312 C95.34 312 94.68 312 94 312 C94.13051758 311.25355225 94.26103516 310.50710449 94.39550781 309.73803711 C97.78665849 290.21219536 100.69402502 270.68798803 103 251 C103.12004395 250.02675781 103.24008789 249.05351562 103.36376953 248.05078125 C106.67785753 220.6688083 106.68605348 191.33441891 103 164 C102.8546582 162.91960449 102.70931641 161.83920898 102.55957031 160.72607422 C98.97876958 135.48536008 92.2241522 109.943734 78.0625 88.4375 C75.83578628 85.02220261 75.07801615 82.13485611 75 78 C75.91675522 74.82661654 76.66340837 73.33659163 79 71 C81.04788482 70.1624193 83.1236602 69.47965013 85.22265625 68.78125 C87.19646447 68.13945096 87.19646447 68.13945096 88 66 C88.41593526 61.48070346 88.55848834 57.35212967 86.8125 53.125 C83.31147052 49.02034475 80.02347036 46.24681391 74.51171875 45.796875 C66.79913855 45.65326645 66.79913855 45.65326645 60 49 C58.83151097 50.31352396 57.68748247 51.64902767 56.5625 53 C53.26363443 56.93688792 50.98503867 58.66472178 46 60 C42.24194916 59.93736582 40.01336794 59.81723221 37.0625 57.4375 C34.78172349 52.20513035 35.62625505 47.666438 37.625 42.5625 C39.12500584 38.3797914 39.20388547 35.35646598 37.9921875 31.078125 C35.72810315 26.33602708 31.73688609 23.88774178 27.1875 21.5625 C22.70750691 20.77191298 18.46230254 21.16804529 14 22 C11.72289124 24.27710876 12.10223104 31.04778786 11.79296875 34.16796875 C10.46578654 40.58159314 6.8194895 44.75727945 1.86328125 48.80078125 C-1.07559432 50.69225882 -3.54676215 51 -7 51 C-10.27797926 50.27156016 -11.51658806 49.69359105 -13.4375 46.9375 C-14.12508537 43.34677638 -13.47956278 40.90480088 -12.59375 37.40234375 C-11.31280287 32.21956425 -10.381638 27.82073256 -12.125 22.6875 C-15.19918568 18.28116719 -18.79535952 15.4194474 -24 14 C-29.29253089 13.52868 -34.1211891 13.68256482 -39 16 Z M102 84 C100.5944072 87.09487082 100.5944072 87.09487082 102.4765625 90.3359375 C103.18481338 91.68646151 103.90148575 93.03259115 104.625 94.375 C108.30407886 101.42979507 111.32744599 108.49629067 114 116 C114.66 116 115.32 116 116 116 C117.55399216 114.31836505 117.55399216 114.31836505 119.0625 112.1875 C119.85333984 111.12595703 119.85333984 111.12595703 120.66015625 110.04296875 C123.56028684 105.62090375 123.47207373 101.10538995 123 96 C121.22671693 90.77866653 118.79091656 88.63030713 114 86 C109.84180712 84.26741963 106.4930644 83.78604455 102 84 Z M119 130 C119.58860735 135.06424437 120.35544952 140.0009138 121.375 145 C122.73559625 151.98682272 123.73294007 159.00156238 124.625 166.0625 C124.74794434 167.01833984 124.87088867 167.97417969 124.99755859 168.95898438 C126.79665324 183.6395967 127.13682146 198.17277055 127.0625 212.9375 C127.05746883 214.6998685 127.05290882 216.46223842 127.04882812 218.22460938 C127.03796467 222.48310866 127.02079171 226.74153809 127 231 C134.85297501 228.47648097 141.76175093 224.81377386 146.0625 217.5 C149.57718001 210.10920125 149.32557339 203.70908305 147 196 C144.29512437 190.47754559 139.73835619 186.90798454 135.14453125 182.953125 C132.12576822 180.2037962 132.03616254 179.36765246 131.625 175.1875 C131.68009075 171.80247943 131.92013299 171.10648934 134.0625 168.25 C137.25713806 165.80304319 140.48932458 163.95787668 144 162 C146.21056761 157.57886478 145.41182175 151.81243125 145 147 C143.60845604 143.53744206 143.60845604 143.53744206 141 141 C140.54882812 140.41734375 140.09765625 139.8346875 139.6328125 139.234375 C134.63825773 133.32042457 128.3786545 131.66148724 121 130 C120.34 130 119.68 130 119 130 Z " fill="#000000" transform="translate(294,17)"/>
<path d="M0 0 C4.34542744 4.48937535 6.28039319 9.94401677 8.625 15.625 C18.07630748 37.83224341 29.61645317 57.30914084 45.61938477 75.43041992 C46.60973999 76.55632509 47.59097157 77.69028059 48.56616211 78.8293457 C53.1342592 84.13899569 57.97338404 89.1235188 62.9375 94.0625 C63.69740234 94.82626953 64.45730469 95.59003906 65.24023438 96.37695312 C69.44495346 100.5744908 73.73537479 104.60692996 78.23803711 108.4831543 C80.46938693 110.40408771 82.63951567 112.38848893 84.8125 114.375 C89.18285684 118.32371445 93.70303079 122.0462721 98.28125 125.75 C101.78477678 128.64947043 105.12893893 131.70551573 108.48828125 134.76953125 C110.99458744 136.99519351 113.56924393 139.09521561 116.1875 141.1875 C122.20489503 146.05426 127.79553864 151.33027248 133.41796875 156.640625 C136.35048038 159.40699961 139.34402898 162.09141889 142.375 164.75 C146.42949666 168.37700442 150.06509652 172.24611723 153.6484375 176.3359375 C155.77012436 178.73957611 157.94502963 181.08274789 160.14086914 183.41845703 C177.36408449 201.82183088 177.36408449 201.82183088 178.4375 210.5625 C178 214 178 214 176.3125 216.375 C173.58709094 218.29015231 172.34973772 219 169 219 C162.75641096 216.67188205 158.71984585 213.06582251 153.890625 208.5625 C134.28359328 191.18113134 104.07510276 171.01104636 76.89453125 171.6953125 C62.70468709 173.18898031 49.18318648 181.14988565 36.84790039 187.87890625 C24.80310242 194.41796399 10.502751 202.15796385 -3.546875 198.30078125 C-9.47319229 196.17269459 -14.26228832 193.10795451 -19 189 C-19.59941406 188.4946875 -20.19882813 187.989375 -20.81640625 187.46875 C-33.42419792 175.88747999 -42.20337408 160.03683174 -50 145 C-50.55494141 143.94353271 -50.55494141 143.94353271 -51.12109375 142.86572266 C-63 120.18060498 -63 120.18060498 -63 114 C-64.61503418 114.83809204 -64.61503418 114.83809204 -66.26269531 115.69311523 C-102.32793951 134.38916517 -102.32793951 134.38916517 -113.875 139.5625 C-114.96409668 140.05157837 -114.96409668 140.05157837 -116.07519531 140.55053711 C-130.57448322 146.87620683 -130.57448322 146.87620683 -137 146 C-141.63235294 143.73529412 -141.63235294 143.73529412 -143 141 C-143.40194831 137.38246524 -143.38483954 135.58282687 -141.35464478 132.50816345 C-138.73487812 129.71759264 -136.44204775 128.36508064 -133.01318359 126.68188477 C-132.42394104 126.3884317 -131.83469849 126.09497864 -131.2276001 125.79263306 C-129.28989832 124.83093305 -127.34435258 123.88636061 -125.3984375 122.94140625 C-124.03747397 122.26907427 -122.67710084 121.59554599 -121.31729126 120.92088318 C-117.73904293 119.1488436 -114.15419186 117.39062102 -110.56738281 115.63598633 C-104.84751322 112.83528849 -99.13754986 110.01448402 -93.42830276 107.19221306 C-91.44881452 106.21624419 -89.46631978 105.2466273 -87.48324585 104.27796936 C-81.99831439 101.58868202 -76.54374853 98.84682704 -71.22119141 95.84667969 C-70.44546783 95.40966736 -69.66974426 94.97265503 -68.87051392 94.5223999 C-65.1776185 91.51677478 -64.77434764 87.17300861 -64 82.6875 C-58.29133902 56.36716757 -44.84047508 17.41455257 -22.01953125 0.53515625 C-14.79318706 -3.79448707 -7.31233405 -4.71239306 0 0 Z M-15.41015625 19.22265625 C-33.68851057 39.57515007 -48.15112138 71.57381572 -47.12744141 99.01220703 C-45.37410666 126.36019834 -22.2778318 158.18915518 -3.140625 176.77734375 C0.52066469 179.36848036 2.55614785 179.71462033 7 180 C18.04636158 177.67762284 28.14271589 172.19215376 38.0625 167 C58.53935166 156.3104393 76.93581913 149.01153827 99.953125 156.22265625 C103.013503 157.29601915 103.013503 157.29601915 106 156 C105.45214844 155.57332031 104.90429688 155.14664063 104.33984375 154.70703125 C98.27272409 149.92239217 92.42103361 144.93390816 86.60351562 139.85083008 C82.93893056 136.656312 79.23283444 133.53962625 75.4375 130.5 C69.78208686 125.925024 64.51350275 120.97313461 59.21484375 115.99609375 C56.81723206 113.74794357 54.37936214 111.56698881 51.875 109.4375 C42.64501045 101.43290521 34.54765162 92.59062499 27 83 C26.33484375 82.19046875 25.6696875 81.3809375 24.984375 80.546875 C9.54137373 61.69911754 -2.82992361 40.54310446 -12 18 C-14.05921546 17.78163671 -14.05921546 17.78163671 -15.41015625 19.22265625 Z " fill="#000000" transform="translate(146,383)"/>
<path d="M0 0 C4.74773505 3.36167237 7.56826597 6.92509842 10.3125 12.0625 C10.68858398 12.75005371 11.06466797 13.43760742 11.45214844 14.14599609 C29 46.86072517 29 46.86072517 29 58 C29.65226562 58.23460937 30.30453125 58.46921875 30.9765625 58.7109375 C34.94480158 60.40282238 38.62423011 62.50107006 42.375 64.625 C56.00249737 72.31674534 69.70283737 79.3939048 84 85.75 C86.18221696 86.72251501 88.36364429 87.69667282 90.54321289 88.67510986 C91.8806446 89.27532293 93.21956002 89.87224673 94.56030273 90.46502686 C105.86255078 95.53079475 105.86255078 95.53079475 108.5 98.9375 C109.17208342 101.70984412 108.94359572 103.30401222 108 106 C105.8241046 109.01277825 104.50130086 109.87796047 100.87109375 110.76171875 C96.22143212 111.04792396 93.0134603 110.12625525 88.6875 108.5625 C87.90189697 108.28736572 87.11629395 108.01223145 86.30688477 107.72875977 C68.76751387 101.44257926 52.42702314 92.71849782 36 84 C36.09611572 84.93158936 36.19223145 85.86317871 36.29125977 86.82299805 C36.64885414 90.34286994 36.99604538 93.86347028 37.33666992 97.38500977 C37.48497984 98.89712959 37.63720084 100.40887192 37.79370117 101.92016602 C40.5092351 128.22853808 40.5092351 128.22853808 34.3828125 136.54296875 C31.52245393 139.55684939 28.92244735 139.86822181 24.9375 140.4375 C14.41924173 139.26880464 6.01242931 133.30879992 -2.33251953 127.21582031 C-5.15875513 125.15510973 -8.01366347 123.13654579 -10.875 121.125 C-11.88304687 120.40570312 -12.89109375 119.68640625 -13.9296875 118.9453125 C-21.33085105 114.25602567 -27.38950582 112.95917103 -36 114 C-47.05358783 116.58572301 -56.93825462 123.30814425 -66.64453125 128.94140625 C-80.39976655 136.87777345 -80.39976655 136.87777345 -87 137 C-90.81547476 135.72817508 -92.70254148 134.32033994 -95.4375 131.375 C-97.89544834 126.06583159 -97.1022963 122.06193417 -95.15625 116.65625 C-92.28446266 110.33831785 -88.14244463 105.0719407 -83.859375 99.66015625 C-80.71009746 95.66661829 -77.7224891 91.56361293 -74.75 87.4375 C-73.94393311 86.32084961 -73.94393311 86.32084961 -73.12158203 85.18164062 C-70.09614175 80.9721777 -67.11390988 76.73544577 -64.1640625 72.47265625 C-63.53145508 71.56008057 -62.89884766 70.64750488 -62.24707031 69.70727539 C-61.01992946 67.93265816 -59.79773553 66.15460765 -58.58105469 64.37280273 C-58.02579102 63.56915283 -57.47052734 62.76550293 -56.8984375 61.9375 C-56.41036621 61.22464844 -55.92229492 60.51179688 -55.41943359 59.77734375 C-53.26621492 57.08119102 -51.53741168 56.07009718 -48.125 55.625 C-44.15643074 56.10122831 -42.62413334 56.9899647 -40 60 C-39.30142405 66.01964382 -40.89680194 69.72557985 -43.75 74.8125 C-44.14251953 75.53518066 -44.53503906 76.25786133 -44.93945312 77.00244141 C-48.62661681 83.64019087 -52.7951234 89.94847306 -57.10058594 96.19848633 C-57.59333008 96.91415771 -58.08607422 97.6298291 -58.59375 98.3671875 C-59.03396484 98.99737793 -59.47417969 99.62756836 -59.92773438 100.27685547 C-61.17149032 102.12658558 -61.17149032 102.12658558 -62 105 C-61.02160156 104.52949219 -60.04320312 104.05898438 -59.03515625 103.57421875 C-45.29228099 97.01795246 -31.36905022 90.71287548 -16 96 C-4.6750213 100.68408946 4.81728894 107.12965109 14.33105469 114.79833984 C16.13812285 116.09945007 17.98714124 117.05499846 20 118 C17.80207153 81.51541686 7.24020189 49.2835116 -8.74414062 16.66601562 C-10.83068138 12.23657842 -11.42968714 8.89843334 -11 4 C-8.10741341 -0.51243508 -5.12449607 -0.79518042 0 0 Z " fill="#000000" transform="translate(403,432)"/>
<path d="M0 0 C3.74140339 3.50414366 5.60684956 6.97476606 6.4375 12.0625 C5.73613467 16.18302132 4.29489019 17.57124965 0.9375 20 C-4.69146256 20.60167058 -7.62597143 19.42247912 -12.375 16.5 C-21.68238349 11.34410213 -31.39218417 11.67762633 -41.62890625 13.70703125 C-47.79393804 15.52027589 -52.77504014 18.14365388 -57.0625 23 C-60.67020003 30.21540006 -57.11274879 40.53778007 -55.375 47.875 C-55.10534424 49.0508667 -54.83568848 50.2267334 -54.55786133 51.43823242 C-52.68070603 59.5604436 -50.71161326 67.66108079 -48.62426758 75.73193359 C-45.95165998 86.10582668 -43.72353107 97.1250778 -49.0625 107 C-52.91951003 113.07771278 -57.33296045 114.83659184 -64.0625 117 C-64.97902344 117.31195313 -65.89554687 117.62390625 -66.83984375 117.9453125 C-73.06634864 119.88399986 -77.70912279 120.22576202 -84.0625 119 C-85.97869141 118.70029297 -85.97869141 118.70029297 -87.93359375 118.39453125 C-89.35188325 118.16079217 -90.7698519 117.92509827 -92.1875 117.6875 C-93.19139771 117.52967041 -93.19139771 117.52967041 -94.21557617 117.36865234 C-99.28163795 116.45527433 -102.83169675 114.81695159 -107.0625 112 C-108.39174122 108.95056425 -108.22077702 107.55396956 -107.3125 104.375 C-106.06514079 102.0050175 -105.11312529 100.69235513 -103.0625 99 C-96.59352948 97.17101213 -90.36055733 98.35762677 -83.8984375 99.5703125 C-78.93656464 100.32211142 -74.93394282 100.16965176 -70.5625 97.4375 C-66.64286397 91.06809144 -69.9140744 81.65942243 -71.3125 74.8125 C-71.77102382 72.50003776 -72.22935432 70.18753718 -72.6875 67.875 C-72.91824219 66.72386719 -73.14898437 65.57273437 -73.38671875 64.38671875 C-74.38835188 59.36697354 -75.35323447 54.34048394 -76.3125 49.3125 C-76.47524414 48.47114502 -76.63798828 47.62979004 -76.80566406 46.76293945 C-79.42075783 33.11975654 -81.18772961 20.49116595 -74.375 7.875 C-65.28417357 -3.42710853 -52.6924473 -8.75942737 -38.5390625 -10.65234375 C-24.25598594 -12.0580098 -11.37388611 -8.96696415 0 0 Z " fill="#000000" transform="translate(389.0625,216)"/>
<path d="M0 0 C2.6272273 2.31250736 3.47521686 3.57142291 4.25 6.98046875 C4.24307815 10.51061126 3.91413963 13.7693906 2.1875 16.91796875 C-2.20842051 19.32863484 -7.11169024 19.39085827 -11.8203125 18.01953125 C-13.17746793 17.56453116 -14.52917832 17.09297256 -15.875 16.60546875 C-32.31822152 10.90515196 -47.22642992 12.04455646 -63 19.16796875 C-68.335617 21.52693503 -71.96515752 23.03225829 -77.75 21.98046875 C-80.87526399 20.18510433 -82.32046273 18.97377368 -83.75 15.66796875 C-83.75 10.95577079 -82.21195343 7.69667495 -79.22265625 4.1875 C-59.97754703 -14.24386253 -21.39092625 -15.70896147 0 0 Z " fill="#000000" transform="translate(271.75,218.01953125)"/>
<path d="M0 0 C3.44312714 2.1244827 4.71617547 3.14852641 6 7 C6.60869553 13.93912901 4.9537714 18.75911623 2 25 C1.59910156 25.88945312 1.19820312 26.77890625 0.78515625 27.6953125 C-5.71011896 40.91178554 -16.62340759 49.89332762 -30.40234375 54.8671875 C-39.28593171 57.21258324 -49.71075765 57.27661548 -58 53 C-61.25322272 50.26004676 -61.8950874 47.92672799 -62.375 43.6875 C-61.98728675 39.87498638 -61.16320152 38.15889564 -58.64941406 35.30883789 C-55.56327981 32.85993828 -52.0059697 32.74076588 -48.1875 32.375 C-38.66143239 31.35292401 -30.49073015 28.35160594 -24 21 C-22.01131073 18.10798555 -20.10392126 15.20090226 -18.28344727 12.20166016 C-13.60191007 4.50104832 -9.97708716 -1.41437634 0 0 Z " fill="#000000" transform="translate(158,126)"/>
<path d="M0 0 C2.80703896 1.34040619 3.86054551 2.54745461 6 5 C7.92497513 10.88815923 6.49963867 15.56282975 4 21 C-2.50173242 33.03426249 -12.50165923 39.8596871 -25.35546875 44.109375 C-34.75539229 46.53105022 -44.62055343 46.85618816 -53.65234375 42.8125 C-56.45381408 41.11034081 -58.68371824 39.31628176 -61 37 C-62.04247113 32.3957525 -62.51490955 29.11530654 -60 25 C-55.5948939 21.52982082 -51.67464516 21.57728517 -46.3125 21.5 C-36.27222948 21.14170727 -26.78549913 20.09782685 -19.48046875 12.3984375 C-17.94261029 10.6308736 -16.46306424 8.8298162 -15 7 C-10.44145291 1.37402453 -7.6560499 -1.23576316 0 0 Z " fill="#000000" transform="translate(144,184)"/>
<path d="M0 0 C2.47131542 2.80082414 3.02758169 4.38674865 2.875 8.125 C1.0625 11.0625 1.0625 11.0625 -2.125 13.125 C-4.6317743 13.22401083 -6.90732205 12.91349382 -9.38671875 12.53515625 C-16.0939458 11.53050741 -22.19835803 11.68591959 -28.6875 13.6875 C-34.82178064 15.53475497 -40.11288151 15.23582334 -46.26953125 13.53125 C-53.26381034 11.66937536 -59.64450188 12.46005325 -66.72998047 13.3996582 C-80.49051706 15.1396046 -80.49051706 15.1396046 -85.25 11.5 C-86.59942817 7.83726641 -86.37885663 5.82057742 -85.125 2.125 C-75.38724471 -6.03715032 -58.06439458 -6.54082175 -46.125 -5.875 C-43.78737777 -5.22353151 -41.45309543 -4.55973395 -39.125 -3.875 C-35.10488394 -3.91528172 -31.55584761 -4.73138413 -27.75 -6 C-18.16831506 -8.3128205 -8.25919757 -4.95551854 0 0 Z " fill="#000000" transform="translate(344.125,368.875)"/>
<path d="M0 0 C2.61685595 1.90959759 3.74724449 3.39970567 5 6.375 C5 10.28501513 3.41618395 11.96545618 1 15 C-1.3889638 16.72486365 -3.9194934 18.0203068 -6.5625 19.3125 C-7.57086914 19.83166992 -7.57086914 19.83166992 -8.59960938 20.36132812 C-14.52629723 23.3805842 -18.44819192 24.31199086 -25 24 C-25.66 23.34 -26.32 22.68 -27 22 C-34.11125025 21.82655487 -39.05069162 27.32249063 -43.9921875 31.80859375 C-47.58826807 35.27348683 -50.30715079 38.81112345 -53 43 C-56.16736204 44.58368102 -58.5153015 44.42056706 -62 44 C-64.97754957 40.94801169 -65.95757161 39.08192388 -66.125 34.8125 C-62.05470317 21.0187163 -53.25162842 13.41650712 -41.09716797 6.6652832 C-34.05978189 2.8807036 -28.11583826 0.0686743 -20 1 C-17 3 -17 3 -15 5 C-14.41992188 4.6390625 -13.83984375 4.278125 -13.2421875 3.90625 C-4.92977931 -1.03181427 -4.92977931 -1.03181427 0 0 Z " fill="#000000" transform="translate(297,338)"/>
<path d="M0 0 C2.8312586 0.70781465 5.01928835 1.38657301 7.5 2.875 C8.015625 2.38 8.53125 1.885 9.0625 1.375 C12.4184513 -0.6902008 14.59045746 -0.41609314 18.5 -0.125 C29.86456493 4.01698266 40.13407459 10.70772115 45.62890625 21.7734375 C47.25240674 25.69022344 47.8455952 28.49261921 46.8125 32.625 C45.26882218 35.27130483 44.43541927 36.03630878 41.5 36.875 C37.97009865 36.78448971 36.67778163 36.03055892 34 33.6875 C32.3004959 31.77555789 30.65554133 29.81401346 29.0625 27.8125 C26.35419839 24.70786157 23.99039157 22.98546932 20.5 20.875 C19.984375 21.225625 19.46875 21.57625 18.9375 21.9375 C15.51236635 23.25485909 12.90785142 22.98723993 9.5 21.875 C5.9919614 20.11820095 2.74804487 18.07063559 -0.5 15.875 C-1.139375 15.45863281 -1.77875 15.04226563 -2.4375 14.61328125 C-5.4738845 12.41628189 -6.48809683 10.91269338 -7.625 7.3125 C-7.5 3.875 -7.5 3.875 -6 1.375 C-3.5 -0.125 -3.5 -0.125 0 0 Z " fill="#000000" transform="translate(323.5,339.125)"/>
<path d="M0 0 C3.31465793 0.12707954 4.93346115 0.94073455 7.4453125 3.09375 C8.41145977 6.12101145 8.62996009 8.17051203 8.0078125 11.28125 C6.15399099 13.43168295 5.131143 13.54033124 2.4453125 14.28125 C0.2617464 14.89298164 0.2617464 14.89298164 -1.5546875 16.09375 C-2.51549223 18.41098493 -2.85227306 20.44705059 -3.10546875 22.9375 C-3.6502399 25.5524015 -4.5047365 26.43354277 -6.5546875 28.09375 C-9.91288567 29.77284909 -13.26343627 29.48829899 -16.8046875 28.40625 C-19.2481268 26.57367052 -19.75541173 25.02442783 -20.5546875 22.09375 C-20.6796875 18.78125 -20.6796875 18.78125 -20.5546875 16.09375 C-21.6375 16.0009375 -21.6375 16.0009375 -22.7421875 15.90625 C-26.58698505 14.79553071 -28.18451281 13.30045693 -30.5546875 10.09375 C-30.5546875 6.40625 -30.5546875 6.40625 -29.5546875 3.09375 C-26.31433906 0.93351771 -25.20870691 0.80981302 -21.44140625 0.6796875 C-19.9399707 0.62167969 -19.9399707 0.62167969 -18.40820312 0.5625 C-17.36341797 0.5315625 -16.31863281 0.500625 -15.2421875 0.46875 C-13.69241211 0.41074219 -13.69241211 0.41074219 -12.11132812 0.3515625 C-8.07483514 0.20656981 -4.0376569 0.10648765 0 0 Z " fill="#000000" transform="translate(316.5546875,386.90625)"/>
</svg>
