<?xml version="1.0" encoding="UTF-8"?>
<svg version="1.1" xmlns="http://www.w3.org/2000/svg" width="678" height="725">
<path d="M0 0 C0.5878125 0.55816406 1.175625 1.11632813 1.78125 1.69140625 C2.5134375 2.38363281 3.245625 3.07585938 4 3.7890625 C8.74796452 8.66241341 10.78125 11.83669771 10.78125 18.69140625 C12.06 18.77390625 13.33875 18.85640625 14.65625 18.94140625 C26.29986251 20.27576059 35.69615137 26.40440721 43.109375 35.296875 C48.51221912 43.03506062 51.73852336 51.22745643 51.78125 60.69140625 C52.38710938 60.82675781 52.99296875 60.96210937 53.6171875 61.1015625 C65.38925016 64.12607706 73.9351811 71.20406192 80.47265625 81.3046875 C83.86268837 87.3413953 85.14750408 92.40530519 85.65625 99.19140625 C85.89299066 104.155406 85.89299066 104.155406 88.3203125 108.28125 C90.28458287 109.17205117 90.28458287 109.17205117 92.42578125 109.79296875 C99.43211168 112.46536676 106.30176088 120.06444033 109.78125 126.69140625 C114.38559645 137.38789818 116.40477132 148.17706269 113.78125 159.69140625 C114.43351562 160.11550781 115.08578125 160.53960937 115.7578125 160.9765625 C126.30739985 168.05630032 133.85772836 176.77443228 136.49609375 189.58203125 C137.81966839 199.37285736 136.73651079 209.92075969 131.01953125 218.26171875 C129.46988958 220.63715721 129.46988958 220.63715721 130.4375 223.203125 C130.8809375 224.02425781 131.324375 224.84539062 131.78125 225.69140625 C132.1834375 226.48160156 132.585625 227.27179688 133 228.0859375 C133.4228125 228.88386719 133.845625 229.68179688 134.28125 230.50390625 C139.68982691 241.3848781 140.7590823 253.32717766 137.15625 265.06640625 C133.10478722 275.64285645 126.73864878 283.26009782 116.78125 288.69140625 C116.94625 289.68140625 117.11125 290.67140625 117.28125 291.69140625 C118.86776583 303.1419118 116.79000872 312.79872524 110.78125 322.69140625 C108.40625 325.44140625 108.40625 325.44140625 105.78125 327.69140625 C105.25660156 328.18253906 104.73195313 328.67367188 104.19140625 329.1796875 C98.96305817 333.95752033 93.71211082 337.3885836 86.59375 338.19140625 C84.53703219 338.52859802 84.53703219 338.52859802 82.78125 339.69140625 C81.23183916 342.52669177 80.20187566 345.41133383 79.10546875 348.44921875 C75.39241307 357.54018103 68.6270294 363.70883395 59.78125 367.69140625 C48.99823958 371.85577004 38.87235588 371.95859962 28.05859375 367.95703125 C25.48624081 366.52745603 24.28803528 365.20106828 22.78125 362.69140625 C22.78125 362.03140625 22.78125 361.37140625 22.78125 360.69140625 C20.80510942 360.8210029 20.80510942 360.8210029 18.78125 361.69140625 C17.79685604 363.75876433 17.79685604 363.75876433 17.21875 366.44140625 C9.81878352 390.75145237 -7.37700191 413.84322456 -23.3125 433.3515625 C-24.56171575 434.88492364 -25.79180383 436.43411418 -27 438 C-36.52060065 450.28399533 -47.63961048 461.20194707 -58.59375 472.19140625 C-59.52074707 473.12307617 -60.44774414 474.05474609 -61.40283203 475.01464844 C-66.51558214 480.11544213 -71.73467512 484.99480436 -77.21875 489.69140625 C-78.82643373 491.14586142 -80.43114715 492.6036152 -82.03125 494.06640625 C-86.32024621 497.9376007 -90.73776099 501.6078685 -95.234375 505.234375 C-97.4040896 507.02069762 -99.53097492 508.82519901 -101.640625 510.6796875 C-107.76691544 516.05888984 -113.76899066 520.96400746 -120.78125 525.18359375 C-123.02121741 526.56921462 -125.03537571 528.05328337 -127.09375 529.69140625 C-131.42133531 533.03262202 -136.18586872 535.42291429 -141.01953125 537.94921875 C-144.65458123 539.92874535 -148.03515236 542.14298075 -151.4140625 544.52734375 C-155.23210029 546.99006077 -158.43963912 546.71033144 -162.84375 546.56640625 C-168.19611929 546.51151015 -172.08046036 547.09044925 -177.01171875 549.01171875 C-184.01201652 551.16756266 -190.63170135 549.80910929 -197.29296875 547.30078125 C-200.8953672 546.16087423 -203.43030977 547.36449201 -206.78125 548.75390625 C-215.1571945 551.03825475 -222.54031779 550.40679763 -230.1328125 546.19140625 C-232.21875 544.69140625 -232.21875 544.69140625 -234.53125 541.56640625 C-238.2279448 537.61180251 -241.73762545 537.46887879 -246.9296875 536.44921875 C-257.05209418 534.11697778 -262.61264288 527.69988836 -268.46875 519.56640625 C-270.21875 516.69140625 -270.21875 516.69140625 -271.34375 513.62890625 C-273.4424942 510.34087368 -274.51088378 509.87819175 -277.96875 508.31640625 C-284.25334469 505.46812503 -288.26865261 501.3130157 -291.53125 495.25390625 C-292.21875 492.69140625 -292.21875 492.69140625 -292.5234375 490.73828125 C-293.32096017 486.08335298 -294.51742193 482.96250605 -297.3828125 479.171875 C-301.49619268 473.46461933 -304.71016358 467.44709142 -307.90625 461.19140625 C-308.46119141 460.12792969 -309.01613281 459.06445312 -309.58789062 457.96875 C-331.00146362 416.46562992 -336.16675831 365.64757002 -340.21875 319.69140625 C-340.40472868 317.59781399 -340.59076875 315.50422719 -340.77685547 313.41064453 C-341.65126343 303.55175342 -342.51992051 293.69238498 -343.37207031 283.83154297 C-344.73115811 268.08623145 -344.73115811 268.08623145 -346.20703125 252.3515625 C-346.27949066 251.60577438 -346.35195007 250.85998627 -346.42660522 250.09159851 C-346.74446301 246.83179035 -347.06933768 243.57310132 -347.40625 240.31518555 C-348.57296535 228.51506078 -348.37949047 217.08872891 -346.9765625 205.3203125 C-346.84812958 204.19551987 -346.71969666 203.07072723 -346.58737183 201.91184998 C-346.17966938 198.35837385 -345.76166619 194.80619389 -345.34375 191.25390625 C-345.07098573 188.87832733 -344.79884568 186.50267665 -344.52734375 184.12695312 C-343.24235181 172.95909346 -341.92909216 161.80353243 -340.21875 150.69140625 C-341.47691528 150.7059082 -341.47691528 150.7059082 -342.76049805 150.72070312 C-352.00791374 150.8244952 -352.00791374 150.8244952 -356.40625 149.75390625 C-361.40136373 149.67201914 -363.39370397 151.25455863 -367.1015625 154.44921875 C-374.86571836 162.67177495 -376.55390013 170.26341372 -376.51953125 181.25 C-376.12297274 185.78724736 -374.94607512 188.11179203 -372.21875 191.69140625 C-371.538125 191.52640625 -370.8575 191.36140625 -370.15625 191.19140625 C-365.59364327 190.41479234 -361.76001484 190.15531413 -357.34375 191.69140625 C-354.63026807 194.24527159 -354.3765039 196.06299155 -353.87109375 199.65625 C-354.39795153 202.74043991 -355.77827259 203.80174499 -358.21875 205.69140625 C-361.09375 206.5625 -361.09375 206.5625 -364.21875 207.12890625 C-369.03568408 208.1900228 -369.03568408 208.1900228 -372.90625 211.19140625 C-376.19652402 217.45859485 -376.40146522 224.65863581 -374.41796875 231.421875 C-370.81465404 239.40860348 -364.77936317 245.324166 -356.71875 248.75390625 C-353.39962349 250.25715793 -353.32103617 250.42351391 -351.90625 254.12890625 C-352.21875 257.69140625 -352.21875 257.69140625 -354.09375 260.75390625 C-357.38538739 262.79472143 -357.83131388 263.00118643 -361.40625 262.37890625 C-371.51220066 259.37398072 -380.50333273 252.8177165 -385.9765625 243.79296875 C-391.44303739 233.30895653 -394.11058567 223.24670923 -390.93359375 211.60546875 C-390.16471192 209.54671412 -389.18120115 207.81156901 -388.03125 205.94140625 C-385.97641044 203.01928002 -385.97641044 203.01928002 -386.48046875 200.73828125 C-387.2470391 198.61297511 -388.15902844 196.68617625 -389.21875 194.69140625 C-393.5771603 186.4873398 -393.3741031 176.21700805 -391.5 167.25390625 C-389.57413188 161.16567801 -386.9487179 155.86249811 -383.21875 150.69140625 C-382.64125 149.82515625 -382.06375 148.95890625 -381.46875 148.06640625 C-378.19598151 144.61181729 -374.36313833 142.01962441 -370.21875 139.69140625 C-369.55875 139.69140625 -368.89875 139.69140625 -368.21875 139.69140625 C-368.71375 138.70140625 -369.20875 137.71140625 -369.71875 136.69140625 C-373.10517085 127.56913381 -372.34012382 116.10698974 -368.53515625 107.27734375 C-363.55904368 97.50230956 -357.85907928 89.32465152 -347.6640625 84.4765625 C-345.21875 83.69140625 -345.21875 83.69140625 -341.21875 83.69140625 C-341.569375 82.59828125 -341.92 81.50515625 -342.28125 80.37890625 C-344.76340434 70.23600217 -341.66129961 60.26163812 -336.9375 51.24609375 C-332.71833255 44.3313471 -327.23427476 38.94214347 -319.40625 36.50390625 C-316.21875 36.69140625 -316.21875 36.69140625 -313.71875 38.25390625 C-312.21875 40.69140625 -312.21875 40.69140625 -312.15625 43.62890625 C-313.47517368 47.43050979 -315.28314878 48.95151178 -318.21875 51.69140625 C-319.3096743 53.00158494 -320.3711734 54.33667364 -321.40625 55.69140625 C-321.89480469 56.33078125 -322.38335937 56.97015625 -322.88671875 57.62890625 C-326.78899451 63.67113969 -326.9976201 69.67207693 -326.21875 76.69140625 C-324.98030642 80.03009694 -323.1259122 82.03938342 -320.21875 84.12890625 C-317.6740703 84.84459742 -316.68860514 84.65612363 -314.21875 83.69140625 C-311.8811042 81.46126814 -311.8811042 81.46126814 -309.65625 78.75390625 C-307.22697869 75.90678389 -305.3437971 73.77477098 -302.21875 71.69140625 C-299.71875 71.75390625 -299.71875 71.75390625 -297.21875 72.69140625 C-295.11386197 75.21727189 -294.14161508 76.67836765 -294.39453125 80 C-295.43954989 83.41240683 -297.14335408 85.64726659 -299.28125 88.50390625 C-314.67725513 110.03740414 -321.27270979 135.85250766 -325.21875 161.69140625 C-325.35966064 162.61181702 -325.50057129 163.53222778 -325.64575195 164.48052979 C-326.64983656 171.08685959 -327.61304387 177.69823178 -328.54537964 184.31506348 C-328.86343377 186.566154 -329.18611075 188.81659738 -329.51394653 191.06628418 C-333.04920773 215.52956732 -332.6285641 238.64947856 -329.76898193 263.16656494 C-329.04023173 269.42155752 -328.35565531 275.68136153 -327.671875 281.94140625 C-327.53872894 283.1545047 -327.40558289 284.36760315 -327.2684021 285.61746216 C-326.28931417 294.67879596 -325.57033146 303.7151592 -325.09375 312.81640625 C-323.40499015 355.46791823 -323.40499015 355.46791823 -305.92578125 393.05078125 C-303.03697506 397.51950662 -303.09405678 402.2926138 -303.15625 407.5 C-303.16398437 408.57701172 -303.17171875 409.65402344 -303.1796875 410.76367188 C-303.20568383 413.00325574 -303.23172534 415.24283907 -303.2578125 417.48242188 C-303.29742399 423.00492392 -303.22010295 428.25437265 -302.21875 433.69140625 C-301.55875 433.69140625 -300.89875 433.69140625 -300.21875 433.69140625 C-300.156875 433.01078125 -300.095 432.33015625 -300.03125 431.62890625 C-298.92955768 427.64586477 -297.07078641 424.67925392 -294.21875 421.69140625 C-291.65625 420.56640625 -291.65625 420.56640625 -289.21875 420.69140625 C-286.90625 422.12890625 -286.90625 422.12890625 -285.21875 423.69140625 C-285.96875 430.31640625 -285.96875 430.31640625 -288.21875 433.69140625 C-289.03784183 439.9941023 -289.26236729 445.91792097 -285.71875 451.37890625 C-285.02265625 452.28189453 -285.02265625 452.28189453 -284.3125 453.203125 C-283.21875 454.69140625 -283.21875 454.69140625 -283.21875 456.69140625 C-282.55875 456.69140625 -281.89875 456.69140625 -281.21875 456.69140625 C-281.13625 456.16933594 -281.05375 455.64726562 -280.96875 455.109375 C-279.92620442 451.74825148 -278.08771627 448.95438971 -276.21875 446.00390625 C-275.85007812 445.41029297 -275.48140625 444.81667969 -275.1015625 444.20507812 C-272.38511588 439.85777213 -272.38511588 439.85777213 -271.21875 438.69140625 C-268.28125 438.50390625 -268.28125 438.50390625 -265.21875 438.69140625 C-263.21875 440.69140625 -263.21875 440.69140625 -263.15625 444.00390625 C-263.76163457 448.27264359 -265.63749729 451.42290459 -267.78125 455.12890625 C-270.36252758 459.74213993 -272.28846936 463.33022778 -271.86328125 468.6796875 C-270.65557178 472.44920493 -268.07577123 475.04696101 -265.21875 477.69140625 C-265.10917969 476.96695312 -264.99960937 476.2425 -264.88671875 475.49609375 C-263.13092257 464.7900195 -263.13092257 464.7900195 -260.21875 460.69140625 C-257.53125 459.81640625 -257.53125 459.81640625 -255.21875 459.69140625 C-250.29103805 464.25855391 -250.29103805 464.25855391 -250.109375 467.859375 C-250.31561896 469.52289534 -250.54942452 471.18313698 -250.8046875 472.83984375 C-251.74949954 479.34656821 -252.63042995 486.83074702 -249.59375 492.87890625 C-246.93436768 496.02817479 -245.21307329 496.87438558 -241.21875 497.69140625 C-239.89129834 496.57882034 -239.89129834 496.57882034 -239.96875 493.75390625 C-240.05125 492.74328125 -240.13375 491.73265625 -240.21875 490.69140625 C-241.20875 490.03140625 -242.19875 489.37140625 -243.21875 488.69140625 C-243.71049739 483.67558287 -243.10510075 479.36237 -241.21875 474.69140625 C-238.59375 472.75390625 -238.59375 472.75390625 -236.21875 471.69140625 C-235.22875 472.35140625 -234.23875 473.01140625 -233.21875 473.69140625 C-232.890625 476.1875 -232.890625 476.1875 -232.96875 479.12890625 C-232.98421875 480.09699219 -232.9996875 481.06507813 -233.015625 482.0625 C-233.21875 484.69140625 -233.21875 484.69140625 -234.21875 487.69140625 C-232.56875 487.69140625 -230.91875 487.69140625 -229.21875 487.69140625 C-227.17719022 492.22820575 -227.27723083 494.85514387 -228.703125 499.58984375 C-229.53645095 502.98627832 -229.34311155 506.20928286 -229.21875 509.69140625 C-228.39375 509.54703125 -227.56875 509.40265625 -226.71875 509.25390625 C-221.41163837 509.9172952 -218.63893043 512.70347587 -215.21875 516.69140625 C-213.5256963 519.48339159 -212.04094684 522.28936819 -210.640625 525.23828125 C-209.09492032 527.90504647 -207.93543592 529.24114534 -205.21875 530.69140625 C-203.01074472 530.47423273 -203.01074472 530.47423273 -201.21875 529.69140625 C-202.0025 528.63953125 -202.78625 527.58765625 -203.59375 526.50390625 C-208.03508669 520.18257192 -208.43493733 516.2350547 -207.21875 508.69140625 C-207.83363281 508.40136719 -208.44851562 508.11132812 -209.08203125 507.8125 C-212.81014485 505.85643308 -214.88948246 503.67920888 -216.21875 499.69140625 C-216.68879961 492.28812487 -215.43495147 485.76487829 -213.21875 478.69140625 C-212.21875 477.69140625 -212.21875 477.69140625 -209.21875 477.56640625 C-206.21875 477.69140625 -206.21875 477.69140625 -205.21875 478.69140625 C-205.05959709 480.75155226 -204.94170071 482.81494479 -204.84375 484.87890625 C-204.35393211 491.70539344 -204.35393211 491.70539344 -201.21875 497.69140625 C-199.57553188 498.72948716 -197.91071702 499.73483666 -196.21875 500.69140625 C-196.33734375 501.54863281 -196.4559375 502.40585937 -196.578125 503.2890625 C-197.40362917 510.61128451 -197.61063452 514.70247282 -193.21875 520.69140625 C-193.21875 521.35140625 -193.21875 522.01140625 -193.21875 522.69140625 C-190.32749716 523.53762659 -188.16557443 524.10502935 -185.33203125 522.8671875 C-183.60963775 521.83808447 -181.91282337 520.76649128 -180.21875 519.69140625 C-179.55875 519.69140625 -178.89875 519.69140625 -178.21875 519.69140625 C-178.8375 518.82515625 -179.45625 517.95890625 -180.09375 517.06640625 C-183.86521764 511.07642823 -185.26218073 505.60045145 -183.76318359 498.5480957 C-183.15003678 496.28689961 -182.48092601 494.05228551 -181.78125 491.81640625 C-181.55115234 491.04554688 -181.32105469 490.2746875 -181.08398438 489.48046875 C-179.3725802 483.84523645 -179.3725802 483.84523645 -178.21875 482.69140625 C-172.98544415 482.12256866 -172.98544415 482.12256866 -170.28125 484.12890625 C-168.31063605 488.88156342 -169.6344275 493.93843874 -171.21875 498.69140625 C-171.61402019 503.92873628 -170.99406183 507.20821022 -168.21875 511.69140625 C-165.50995665 513.04580293 -163.20941732 512.75642076 -160.21875 512.69140625 C-158.96606468 509.77313533 -158.96606468 509.77313533 -159.78125 507.00390625 C-160.54444411 501.22543653 -158.87665527 496.71682643 -156.03125 491.81640625 C-152.47547374 485.06175321 -155.08024274 477.48214215 -157.01171875 470.50390625 C-157.08003906 469.90578125 -157.14835938 469.30765625 -157.21875 468.69140625 C-155.21875 466.69140625 -155.21875 466.69140625 -152.90625 466.19140625 C-149.61537837 466.80366144 -148.31431015 468.14611693 -146.359375 470.8125 C-141.64391941 478.58008266 -141.26858252 486.86769766 -143.21875 495.69140625 C-144.51455142 497.38741752 -145.84332163 499.05930565 -147.21875 500.69140625 C-147.08257428 503.93434209 -147.08257428 503.93434209 -146.21875 506.69140625 C-143.50378178 505.04813601 -141.5345723 503.77217478 -140.6171875 500.6328125 C-140.34739154 499.06429285 -140.08055097 497.49526248 -139.81640625 495.92578125 C-139.16255332 493.48131148 -138.37462807 492.38759327 -136.65625 490.56640625 C-133.71162182 487.09325506 -133.29796718 485.20678553 -133.21875 480.69140625 C-134.0140624 476.98968091 -134.0140624 476.98968091 -135.21875 473.69140625 C-135.54875 472.70140625 -135.87875 471.71140625 -136.21875 470.69140625 C-137.86177953 469.00143302 -139.53346312 467.33924231 -141.21875 465.69140625 C-147.09258661 459.67968615 -147.09258661 459.67968615 -147.59375 455.75390625 C-147.47 455.07328125 -147.34625 454.39265625 -147.21875 453.69140625 C-142.92217508 453.27715057 -140.88494706 453.20014257 -137.34765625 455.80859375 C-136.50074219 456.71867187 -135.65382813 457.62875 -134.78125 458.56640625 C-133.91628906 459.47132813 -133.05132812 460.37625 -132.16015625 461.30859375 C-130.21875 463.69140625 -130.21875 463.69140625 -130.21875 465.69140625 C-129.31125 465.87703125 -128.40375 466.06265625 -127.46875 466.25390625 C-123.010714 468.22572987 -122.29893744 470.37101696 -120.21875 474.69140625 C-118.14428226 471.87013013 -117.15940077 470.39970531 -117.45703125 466.84765625 C-118.24001725 463.6032835 -119.32259037 461.20991363 -120.96875 458.31640625 C-121.50113281 457.36894531 -122.03351563 456.42148437 -122.58203125 455.4453125 C-124.41534788 452.36061506 -126.36363995 449.37616452 -128.43359375 446.4453125 C-129.21875 444.69140625 -129.21875 444.69140625 -128.97265625 442.59375 C-128.21875 440.69140625 -128.21875 440.69140625 -126.21875 438.69140625 C-122.83348093 438.78290001 -121.40992206 439.52538841 -118.84375 441.75390625 C-117.9775 442.72328125 -117.11125 443.69265625 -116.21875 444.69140625 C-115.67089844 445.27148438 -115.12304688 445.8515625 -114.55859375 446.44921875 C-110.60415226 450.74261237 -107.65731726 455.17100538 -104.76953125 460.23046875 C-102.73012269 463.46680979 -100.28515427 466.15451882 -97.63671875 468.90234375 C-96.09873965 470.84282427 -95.62899767 472.27254337 -95.21875 474.69140625 C-94.55875 474.69140625 -93.89875 474.69140625 -93.21875 474.69140625 C-92.09605499 470.92235873 -91.5697511 468.91546747 -93.453125 465.36328125 C-94.52635337 463.81987665 -95.63239601 462.29865578 -96.7734375 460.8046875 C-98.23280229 458.67085953 -98.95442154 457.25539234 -99.21875 454.69140625 C-97.13757331 451.56964122 -95.35223366 449.78039536 -92.21875 447.69140625 C-92.62867188 446.90636719 -93.03859375 446.12132812 -93.4609375 445.3125 C-96.26804986 439.83930245 -98.85260657 434.70243736 -100.21875 428.69140625 C-101.6728125 428.72234375 -101.6728125 428.72234375 -103.15625 428.75390625 C-106.21875 428.69140625 -106.21875 428.69140625 -107.21875 427.69140625 C-107.6239344 425.12721006 -107.97321546 422.57998766 -108.28125 420.00390625 C-108.37212891 419.29556641 -108.46300781 418.58722656 -108.55664062 417.85742188 C-109.05687897 413.78405248 -109.41457225 409.8036735 -109.21875 405.69140625 C-108.21875 404.69140625 -108.21875 404.69140625 -105.90625 404.31640625 C-103.21875 404.69140625 -103.21875 404.69140625 -101.16796875 406.80859375 C-98.45768696 410.81698645 -97.66037483 414.87572249 -96.5390625 419.53515625 C-95.12979592 422.90405388 -93.61175744 424.19444224 -90.73876953 426.35595703 C-88.07279282 428.69821412 -86.68182657 431.75176781 -85.09375 434.87890625 C-82.80662127 439.56740262 -82.80662127 439.56740262 -79.1171875 443.140625 C-76.80221467 443.81225292 -75.46348425 443.49309705 -73.21875 442.69140625 C-73.71375 441.82515625 -74.20875 440.95890625 -74.71875 440.06640625 C-76.27243147 436.57062294 -76.56939088 434.46079569 -76.21875 430.69140625 C-75.21875 429.69140625 -75.21875 429.69140625 -72.46875 429.31640625 C-68.20233681 429.80868469 -67.03365182 431.57219072 -64.21875 434.69140625 C-63.22875 435.02140625 -62.23875 435.35140625 -61.21875 435.69140625 C-59.44492898 431.86368722 -59.09704613 430.14018926 -60.21875 426.00390625 C-62.51556901 422.19979976 -64.17213954 421.32727005 -68.21875 419.69140625 C-70.21875 417.69140625 -70.21875 417.69140625 -70.34375 415.06640625 C-70.3025 414.28265625 -70.26125 413.49890625 -70.21875 412.69140625 C-70.775625 413.04203125 -71.3325 413.39265625 -71.90625 413.75390625 C-74.21875 414.69140625 -74.21875 414.69140625 -76.71875 414.87890625 C-80.32416431 413.16633445 -81.06946033 410.73864157 -82.49609375 407.1171875 C-83.47026514 403.8471311 -83.63259733 401.07115944 -83.21875 397.69140625 C-81.21875 395.69140625 -81.21875 395.69140625 -78.859375 395.37109375 C-74.15901327 395.94125597 -71.20591623 399.19474672 -68.21875 402.69140625 C-67.21875 406.12890625 -67.21875 406.12890625 -67.21875 408.69140625 C-66.62707031 408.7171875 -66.03539062 408.74296875 -65.42578125 408.76953125 C-60.1467487 409.14845039 -57.11238339 409.79777286 -53.21875 413.69140625 C-50.75074953 412.5396727 -49.17091435 411.6435706 -47.21875 409.69140625 C-46.66463714 406.22820088 -46.50391161 403.7702421 -48.4921875 400.76953125 C-49.57807829 399.44527419 -50.66401733 398.1210567 -51.75 396.796875 C-55.30885388 391.6952201 -55.82348346 384.73874087 -55.21875 378.69140625 C-54.03125 376.75390625 -54.03125 376.75390625 -52.21875 375.69140625 C-49.65625 375.37890625 -49.65625 375.37890625 -47.21875 375.69140625 C-44.81300816 378.09714809 -45.01083076 378.7288771 -44.90625 382.00390625 C-44.44936332 386.88252675 -42.91403899 388.39777911 -39.21875 391.69140625 C-38.02053222 393.33553612 -36.85640143 395.00480075 -35.71875 396.69140625 C-33.14992888 400.45751162 -30.58663098 403.62969627 -27.21875 406.69140625 C-27.13784748 402.80808535 -27.25914705 399.32429386 -27.96875 395.50390625 C-28.21875 391.69140625 -28.21875 391.69140625 -26.28125 389.19140625 C-25.600625 388.69640625 -24.92 388.20140625 -24.21875 387.69140625 C-25.12625 386.94890625 -26.03375 386.20640625 -26.96875 385.44140625 C-28.06708482 384.54276867 -29.14893477 383.62381402 -30.21875 382.69140625 C-30.88777344 382.12679688 -31.55679687 381.5621875 -32.24609375 380.98046875 C-34.77562387 378.04521202 -35.87027698 374.94578651 -37.03125 371.31640625 C-37.37446289 370.34574219 -37.37446289 370.34574219 -37.72460938 369.35546875 C-39.12853843 365.09645462 -39.31407277 362.0323787 -38.21875 357.69140625 C-35.90875 357.36140625 -33.59875 357.03140625 -31.21875 356.69140625 C-28.20126741 361.34129745 -25.48848844 365.96835892 -23.2109375 371.02734375 C-22.17967293 373.02843544 -22.17967293 373.02843544 -19.21875 374.69140625 C-17.89199944 372.05286092 -17.89199944 372.05286092 -17.21875 368.69140625 C-18.16155904 366.33438365 -19.16522157 364.00106473 -20.21875 361.69140625 C-20.48919807 357.90513321 -20.29706317 354.99347133 -19.34375 351.31640625 C-19.17850664 346.52434876 -21.02131977 344.65789224 -23.7734375 340.89453125 C-25.78599626 337.82673898 -26.21875 335.33274277 -26.21875 331.69140625 C-25.28125 328.75390625 -25.28125 328.75390625 -24.21875 326.69140625 C-21.94921875 326.4140625 -21.94921875 326.4140625 -19.21875 326.69140625 C-17.26953125 328.625 -17.26953125 328.625 -15.53125 331.12890625 C-13.35069901 334.45711408 -13.35069901 334.45711408 -10.21875 336.69140625 C-10.095 335.51578125 -9.97125 334.34015625 -9.84375 333.12890625 C-9.35439065 329.15020199 -8.4132295 325.51374066 -7.21875 321.69140625 C-7.981875 321.17578125 -8.745 320.66015625 -9.53125 320.12890625 C-12.78144965 317.18105075 -13.92264068 314.86775852 -15.21875 310.69140625 C-15.00589133 306.930903 -14.89541871 305.36807496 -12.21875 302.69140625 C-7.01728915 302.72823075 -4.07897125 306.06645059 -0.53125 309.44140625 C0.04947266 309.96734375 0.63019531 310.49328125 1.22851562 311.03515625 C4.39052225 313.98879943 6.65906588 316.38103016 7.78125 320.69140625 C7.50368478 323.46705846 6.90320729 325.44749167 5.65625 327.94140625 C4.3563454 332.0268207 4.65200025 335.5755881 5.78125 339.69140625 C7.63766749 342.96540335 7.63766749 342.96540335 10.78125 344.69140625 C17.4517727 345.26645131 21.50174307 342.38544076 26.66015625 338.37890625 C43.06450288 324.5714277 63.93021189 303.82597464 66.1171875 281.21875 C66.13652344 279.44177734 66.13652344 279.44177734 66.15625 277.62890625 C66.18460938 276.44167969 66.21296875 275.25445312 66.2421875 274.03125 C65.69390549 270.05852862 64.61499433 268.47985094 61.78125 265.69140625 C56.62046399 263.42790361 53.7152162 263.40665634 48.40625 265.25390625 C44.69283076 266.75463982 41.22786182 268.51883164 37.71875 270.44140625 C31.71567674 273.50458581 26.61059298 273.75637146 20.140625 271.95703125 C12.24911555 269.07450385 7.01806835 265.10583837 2.78125 257.69140625 C1.06607584 253.57498827 0.29677455 250.1485804 0.78125 245.69140625 C1.90625 243.31640625 1.90625 243.31640625 3.78125 241.69140625 C6.71875 241.12890625 6.71875 241.12890625 9.78125 241.69140625 C13.76485971 245.56119854 16.03975853 250.46693184 17.78125 255.69140625 C21.81173844 257.94373802 25.24253962 258.3502513 29.78125 257.69140625 C32.63017227 256.07701696 35.30725543 254.27727589 38.0234375 252.44921875 C45.97210216 247.38278944 54.25093224 246.54740898 63.45703125 248.16015625 C69.31832276 249.65438534 73.93019873 251.93904511 77.78125 256.69140625 C84.0249176 267.6558957 84.03468902 279.13825194 80.9453125 291.20703125 C74.55032658 310.34906965 61.88768514 325.64977862 47.78125 339.69140625 C46.87246094 340.61179687 45.96367187 341.5321875 45.02734375 342.48046875 C44.10050781 343.41632813 43.17367188 344.3521875 42.21875 345.31640625 C41.75017578 345.79335938 41.28160156 346.2703125 40.79882812 346.76171875 C38.26683995 349.31141313 35.72506982 351.62726906 32.78125 353.69140625 C39.20554163 357.00716967 45.61647418 356.29728129 52.34375 354.25390625 C58.39937044 351.84696723 62.27339833 348.14206808 65.78125 342.69140625 C67.40622035 338.86212829 67.7460171 334.99843581 68.21875 330.87890625 C68.82305246 327.45452562 69.05754789 326.6813524 71.78125 324.69140625 C74.34765625 324.35546875 74.34765625 324.35546875 77.34375 324.31640625 C84.56764522 323.85344803 90.43093824 322.00696374 95.6640625 316.828125 C100.36724242 310.97755095 102.05597487 305.57253628 101.59375 298.06640625 C101.11899665 293.81678482 100.0866908 291.29992229 97.78125 287.69140625 C97.40167123 284.08540795 97.19661342 281.72103692 99.0078125 278.53125 C101.21323095 276.2432498 102.41221818 276.13605858 105.53125 275.81640625 C111.01639761 274.88888858 114.23964384 272.97712646 117.78125 268.69140625 C121.93374694 262.22211985 123.74100857 255.39541424 122.78125 247.69140625 C121.20287967 242.04990438 119.32101515 237.35699929 115.78125 232.69140625 C115.78125 232.03140625 115.78125 231.37140625 115.78125 230.69140625 C109.67778891 227.51133189 103.11756572 224.73428679 96.21875 224.12890625 C94.5171875 223.91234375 94.5171875 223.91234375 92.78125 223.69140625 C90.31181471 219.98725332 90.31211911 218.0699612 90.78125 213.69140625 C93.94020194 210.42352494 97.03622548 209.72865748 101.53125 209.50390625 C105.53157616 209.54067395 108.95697277 210.51470556 112.78125 211.69140625 C114.10125 211.69140625 115.42125 211.69140625 116.78125 211.69140625 C120.59568723 204.48825024 122.17262618 198.84517721 120.015625 190.85546875 C117.28304654 182.76616903 114.11290808 177.75979313 106.4921875 173.68359375 C102.28476822 172.14370255 98.14832642 172.08049916 93.69921875 172.02734375 C90.4267946 171.6505988 89.09694064 170.99625056 86.78125 168.69140625 C85.87447614 165.64723686 85.47341273 163.64516796 86.45703125 160.59765625 C88.26477657 157.99535621 89.7980731 157.82568701 92.84375 157.12890625 C95.51181381 156.57127199 95.51181381 156.57127199 97.78125 155.69140625 C100.08575871 148.77788011 98.95468694 142.60818961 96.03515625 136.046875 C92.35459953 129.132932 87.18777771 124.39148047 79.78125 121.69140625 C76.12666172 121.03453581 72.51837292 120.57642159 68.8203125 120.24609375 C65.64070265 119.66575365 64.62890211 119.27305715 62.78125 116.69140625 C61.59250737 113.46481911 61.59358654 112.15013916 62.90625 108.94140625 C64.78125 106.69140625 64.78125 106.69140625 67.46875 105.87890625 C68.231875 105.81703125 68.995 105.75515625 69.78125 105.69140625 C70.49182272 97.51982 67.67967381 90.64295908 62.53125 84.31640625 C57.96911009 79.44946819 51.8456615 76.0003966 45.109375 75.48828125 C38.69159338 75.39054853 34.52309901 75.93531873 28.78125 78.69140625 C25.59375 79.19140625 25.59375 79.19140625 22.78125 78.69140625 C20.34375 76.56640625 20.34375 76.56640625 18.78125 73.69140625 C18.65625 70.69140625 18.65625 70.69140625 19.78125 67.69140625 C23.79839333 63.67426292 27.63142571 60.74243433 33.43359375 60.6484375 C34.59568359 60.66970703 34.59568359 60.66970703 35.78125 60.69140625 C34.93984731 52.62080902 32.35970136 46.65092829 26.78125 40.69140625 C20.06321205 35.63214311 12.2061446 32.96512223 3.78125 33.69140625 C-0.01339653 34.71664848 -3.6995399 35.9318012 -7.21875 37.69140625 C-10.8005122 38.08072823 -12.58156721 38.12737343 -15.59375 36.06640625 C-17.73198431 32.94129456 -17.9017169 31.4097816 -17.21875 27.69140625 C-13.73998726 23.12553016 -9.34479788 20.96823645 -4.21875 18.69140625 C-10.3143108 10.51052202 -18.15671453 6.28855474 -28.21875 4.69140625 C-34.54987313 4.60207823 -39.96486455 6.12924809 -45.21875 9.69140625 C-48.6815345 13.24531666 -51.06678544 16.70839827 -51.32421875 21.76171875 C-51.03430183 28.09694031 -48.69937229 31.38911719 -44.21875 35.69140625 C-43.66574219 36.17867187 -43.11273438 36.6659375 -42.54296875 37.16796875 C-41.21875 38.69140625 -41.21875 38.69140625 -40.90625 42.19140625 C-41.21875 45.69140625 -41.21875 45.69140625 -43.21875 48.69140625 C-47.0632871 50.06445521 -49.58224754 49.81459605 -53.21875 48.19140625 C-59.98926435 44.39268255 -63.92087681 38.72504045 -66.51953125 31.48828125 C-69.0177831 21.49527385 -67.31919637 12.53911934 -62.21875 3.69140625 C-56.6169486 -4.29414043 -46.99367986 -8.74235344 -37.65625 -10.74609375 C-24.47663928 -12.53220362 -10.29000799 -8.64270408 0 0 Z M-336.21875 92.69140625 C-336.21875 93.35140625 -336.21875 94.01140625 -336.21875 94.69140625 C-336.93933594 94.93632812 -337.65992188 95.18125 -338.40234375 95.43359375 C-346.39276322 99.0021306 -352.05062613 105.70222431 -355.21875 113.69140625 C-357.02824727 119.11989805 -356.89770797 124.65453235 -355.09375 130.06640625 C-350.92797151 135.89849614 -345.94538248 137.23965202 -339.1953125 138.39453125 C-338.54304688 138.4925 -337.89078125 138.59046875 -337.21875 138.69140625 C-334.71468339 133.20029283 -332.94220754 127.67478538 -331.28125 121.87890625 C-329.44767685 115.59425125 -327.54878325 109.46176555 -324.8828125 103.46875 C-324.04375246 101.53925516 -324.04375246 101.53925516 -324.21875 98.69140625 C-324.74984375 98.42585938 -325.2809375 98.1603125 -325.828125 97.88671875 C-329.29166667 96.15494792 -332.75520833 94.42317708 -336.21875 92.69140625 Z M-7.21875 349.69140625 C-8.52601306 350.80110914 -8.52601306 350.80110914 -8.65625 353.56640625 C-8.64439975 359.24267647 -5.07413366 363.99192065 -2.21875 368.69140625 C0.13148349 366.55950046 0.82165491 365.57468094 1.90625 362.44140625 C1.76467027 358.19401422 1.33915038 357.73737149 -1.53125 354.87890625 C-2.74708606 353.80117733 -3.97490148 352.73668028 -5.21875 351.69140625 C-5.87875 351.03140625 -6.53875 350.37140625 -7.21875 349.69140625 Z M-10.21875 384.69140625 C-12.00344266 386.40393252 -12.00344266 386.40393252 -13.21875 388.69140625 C-13.00157648 390.89941153 -13.00157648 390.89941153 -12.21875 392.69140625 C-9.30703211 389.02160421 -9.30703211 389.02160421 -8.21875 384.69140625 C-8.87875 384.69140625 -9.53875 384.69140625 -10.21875 384.69140625 Z M-314.21875 400.69140625 C-314.21875 403.00140625 -314.21875 405.31140625 -314.21875 407.69140625 C-313.22875 408.18640625 -313.22875 408.18640625 -312.21875 408.69140625 C-312.21875 406.05140625 -312.21875 403.41140625 -312.21875 400.69140625 C-312.87875 400.69140625 -313.53875 400.69140625 -314.21875 400.69140625 Z M-38.21875 416.69140625 C-40.47465249 418.80138465 -40.47465249 418.80138465 -42.21875 421.69140625 C-41.59838682 424.97245097 -41.59838682 424.97245097 -40.21875 427.69140625 C-38.07999923 426.67380152 -38.07999923 426.67380152 -36.21875 424.69140625 C-35.88494186 421.06576811 -35.88494186 421.06576811 -36.21875 417.69140625 C-36.87875 417.36140625 -37.53875 417.03140625 -38.21875 416.69140625 Z M-51.21875 440.69140625 C-54.19550459 443.7846852 -54.19550459 443.7846852 -55.21875 447.69140625 C-54.55875 447.69140625 -53.89875 447.69140625 -53.21875 447.69140625 C-51.45388282 445.92164756 -51.45388282 445.92164756 -50.21875 443.69140625 C-50.54875 442.70140625 -50.87875 441.71140625 -51.21875 440.69140625 Z M-82.21875 457.69140625 C-81.55875 462.31140625 -80.89875 466.93140625 -80.21875 471.69140625 C-74.14515284 466.73669443 -74.14515284 466.73669443 -69.21875 460.69140625 C-69.21875 459.37140625 -69.21875 458.05140625 -69.21875 456.69140625 C-73.58998198 456.69140625 -77.87105869 457.23969806 -82.21875 457.69140625 Z M-288.21875 465.69140625 C-287.55875 467.34140625 -286.89875 468.99140625 -286.21875 470.69140625 C-285.88875 469.37140625 -285.55875 468.05140625 -285.21875 466.69140625 C-286.20875 466.36140625 -287.19875 466.03140625 -288.21875 465.69140625 Z M-109.21875 475.69140625 C-109.71375 476.76390625 -110.20875 477.83640625 -110.71875 478.94140625 C-112.90809844 482.85377981 -115.44228223 484.19864303 -119.51171875 485.8671875 C-121.41306587 486.57087005 -121.41306587 486.57087005 -122.21875 488.69140625 C-122.45309712 490.60434645 -122.45309712 490.60434645 -122.46875 492.69140625 C-122.49453125 493.39265625 -122.5203125 494.09390625 -122.546875 494.81640625 C-122.43859375 495.43515625 -122.3303125 496.05390625 -122.21875 496.69140625 C-119.24957597 498.67085561 -118.56172721 498.98491206 -115.21875 499.00390625 C-114.1978125 499.02904297 -114.1978125 499.02904297 -113.15625 499.0546875 C-110.58843176 498.57322158 -109.75118281 497.79037482 -108.21875 495.69140625 C-107.68139955 493.48612824 -107.68139955 493.48612824 -107.59375 491.12890625 C-107.29875 486.85140625 -107.29875 486.85140625 -106.21875 484.69140625 C-105.76795374 480.42693917 -105.76795374 480.42693917 -107.71875 476.81640625 C-108.21375 476.44515625 -108.70875 476.07390625 -109.21875 475.69140625 Z M-277.21875 482.69140625 C-278.08398176 486.07367587 -278.51973552 488.00582812 -277.09375 491.25390625 C-274.99929043 493.97670369 -272.71256507 496.33239199 -270.21875 498.69140625 C-269.22875 498.36140625 -268.23875 498.03140625 -267.21875 497.69140625 C-267.77473836 493.46437143 -269.19377626 490.83456066 -271.65625 487.37890625 C-272.27371094 486.49589844 -272.89117187 485.61289062 -273.52734375 484.703125 C-274.08550781 484.03925781 -274.64367187 483.37539063 -275.21875 482.69140625 C-275.87875 482.69140625 -276.53875 482.69140625 -277.21875 482.69140625 Z M-127.21875 500.69140625 C-127.54875 501.02140625 -127.87875 501.35140625 -128.21875 501.69140625 C-127.93144945 504.03085361 -127.59938221 506.36532055 -127.21875 508.69140625 C-125.89875 508.69140625 -124.57875 508.69140625 -123.21875 508.69140625 C-123.21875 505.10606032 -124.24237045 503.61644799 -126.21875 500.69140625 C-126.54875 500.69140625 -126.87875 500.69140625 -127.21875 500.69140625 Z M-254.21875 503.69140625 C-255.49739488 509.38718797 -255.1363331 512.60916472 -252.21875 517.69140625 C-248.13087817 521.87218426 -244.77285004 523.46950424 -239.21875 524.69140625 C-238.34120809 522.48701792 -238.34120809 522.48701792 -238.21875 519.69140625 C-239.93635829 516.6146259 -239.93635829 516.6146259 -242.21875 513.69140625 C-242.899375 512.39203125 -242.899375 512.39203125 -243.59375 511.06640625 C-246.26130709 507.16766896 -249.79352603 505.16648091 -254.21875 503.69140625 Z M-138.21875 513.69140625 C-141.11807357 516.08649963 -141.72043276 518.00385868 -142.21875 521.69140625 C-139.33299181 521.29337064 -138.39685487 520.90131556 -136.46875 518.62890625 C-136.05625 517.98953125 -135.64375 517.35015625 -135.21875 516.69140625 C-136.20875 515.70140625 -137.19875 514.71140625 -138.21875 513.69140625 Z M-222.21875 522.69140625 C-224.0080943 523.64135786 -224.0080943 523.64135786 -225.21875 525.69140625 C-224.99830624 529.61040641 -224.0495813 532.77462689 -221.40625 535.69140625 C-218.84234434 536.86347741 -217.00752225 536.92380394 -214.21875 536.69140625 C-216.55034768 531.83391109 -219.23046089 527.17383992 -222.21875 522.69140625 Z M-154.21875 522.69140625 C-154.54875 525.00140625 -154.87875 527.31140625 -155.21875 529.69140625 C-152.5281972 528.47132681 -152.5281972 528.47132681 -150.21875 526.69140625 C-150.17811168 525.0252351 -150.176029 523.3575253 -150.21875 521.69140625 C-151.58768239 521.63870162 -151.58768239 521.63870162 -154.21875 522.69140625 Z M-180.15625 531.06640625 C-181.62794686 533.31723674 -181.43180693 535.06370415 -181.21875 537.69140625 C-177.33492586 537.42044178 -175.48701936 536.90602173 -172.40625 534.44140625 C-170.20657572 531.67610144 -169.5159685 530.15895537 -169.21875 526.69140625 C-173.19674212 526.69140625 -176.96452757 528.80131291 -180.15625 531.06640625 Z " fill="#C5C5C5" transform="translate(463.21875,55.30859375)"/>
<path d="M0 0 C26.08035766 11.72324988 43.76011051 58.28599926 53.91015625 83.38671875 C58.98087591 96.78560479 61.37566452 110.03354706 60.91015625 124.38671875 C61.61914062 124.65097656 62.328125 124.91523437 63.05859375 125.1875 C66.05336437 126.44694463 68.73081985 127.93292109 71.53515625 129.57421875 C78.53605223 133.62686096 85.59071912 137.58001018 92.66015625 141.51171875 C93.8090332 142.15109375 94.95791016 142.79046875 96.14160156 143.44921875 C102.15684442 146.78932064 108.19150979 150.08890649 114.26171875 153.328125 C115.15213867 153.80394012 115.15213867 153.80394012 116.06054688 154.28936768 C118.9020423 155.80669101 121.74675483 157.31740538 124.59667969 158.81884766 C125.61536133 159.3607373 126.63404297 159.90262695 127.68359375 160.4609375 C128.57481934 160.93104248 129.46604492 161.40114746 130.38427734 161.88549805 C137.49234707 166.1100796 137.49234707 166.1100796 139.03515625 170.82421875 C138.91015625 174.38671875 138.91015625 174.38671875 136.84765625 177.32421875 C133.28185162 179.82786881 132.19540073 179.88707678 127.91015625 179.38671875 C124.78142815 178.21244524 121.86500313 176.69122768 118.91015625 175.13671875 C118.04148926 174.69070313 117.17282227 174.2446875 116.27783203 173.78515625 C106.05779695 168.50088173 95.97560367 162.9581303 85.91015625 157.38671875 C84.25397431 156.47383485 82.5977267 155.56107007 80.94140625 154.6484375 C72.53131062 150.00449649 64.17713732 145.28206832 55.91015625 140.38671875 C55.81605469 141.20785156 55.72195313 142.02898437 55.625 142.875 C54.76618947 147.09396539 53.25145111 150.670883 51.47265625 154.57421875 C51.11776123 155.35812988 50.76286621 156.14204102 50.3972168 156.94970703 C37.33638295 185.40134378 14.33483979 233.45285638 -16.8203125 245.66015625 C-28.92597958 249.53563659 -39.37767243 244.55322914 -50.23266602 239.01391602 C-58.03666046 234.94627443 -65.76162299 230.72603818 -73.50341797 226.54174805 C-81.95250809 221.98081658 -90.39905284 217.47129206 -99.08984375 213.38671875 C-100.17652344 212.86207031 -101.26320313 212.33742188 -102.3828125 211.796875 C-120.12741239 203.99443826 -137.22461206 209.86257951 -154.48779297 216.27783203 C-159.82238011 218.37767954 -164.96218436 220.82817332 -170.08984375 223.38671875 C-171.14703613 223.91249512 -172.20422852 224.43827148 -173.29345703 224.97998047 C-176.85929364 226.76564441 -180.4144917 228.5705465 -183.96484375 230.38671875 C-185.08221924 230.95592041 -186.19959473 231.52512207 -187.35083008 232.11157227 C-198.53484938 237.92699702 -208.60746803 244.77252067 -218.30078125 252.796875 C-221.08984375 254.38671875 -221.08984375 254.38671875 -224.32421875 254.203125 C-228.54813417 252.95623471 -228.54813417 252.95623471 -230.08984375 250.38671875 C-230.68871521 246.99311383 -230.74619936 244.58506497 -229.05859375 241.50390625 C-225.47698596 236.58914445 -221.25804531 232.14946586 -217.140625 227.68359375 C-215.07503033 225.45278675 -215.07503033 225.45278675 -213.4453125 223.08984375 C-212.99800781 222.5278125 -212.55070312 221.96578125 -212.08984375 221.38671875 C-211.42984375 221.38671875 -210.76984375 221.38671875 -210.08984375 221.38671875 C-210.08984375 220.72671875 -210.08984375 220.06671875 -210.08984375 219.38671875 C-208.7265625 218.046875 -208.7265625 218.046875 -206.77734375 216.44921875 C-203.2018104 213.41792588 -199.88153749 210.22432175 -196.58984375 206.88671875 C-192.86724878 203.11761524 -189.07290745 199.49878533 -185.04296875 196.05859375 C-182.9001352 194.22432823 -180.80922531 192.33855596 -178.71484375 190.44921875 C-174.87736537 187.03013665 -170.90740226 183.82541257 -166.875 180.640625 C-163.63565199 178.01916104 -160.48861406 175.30312407 -157.33984375 172.57421875 C-152.70708028 168.56490295 -147.9991037 164.69671356 -143.15234375 160.94921875 C-137.42497376 156.51645203 -131.93447239 151.85802138 -126.48901367 147.08447266 C-122.8731861 143.91808863 -119.2140475 140.83337648 -115.46484375 137.82421875 C-110.74542256 134.00507463 -106.28078381 129.96167554 -101.85498047 125.81030273 C-99.0255682 123.15778529 -96.15913176 120.56912309 -93.22265625 118.03515625 C-88.86159174 114.23645733 -84.73864878 110.22767047 -80.65234375 106.13671875 C-79.9051709 105.38874023 -79.15799805 104.64076172 -78.38818359 103.87011719 C-73.68456742 99.11420443 -69.29305489 94.29508061 -65.171875 89.0234375 C-63.27415558 86.62013429 -61.29258495 84.31696953 -59.27075195 82.01806641 C-40.65912282 60.68027357 -28.4902661 37.8173129 -20.32397461 10.85839844 C-20.07139893 10.05563477 -19.81882324 9.25287109 -19.55859375 8.42578125 C-19.22698242 7.34997803 -19.22698242 7.34997803 -18.88867188 6.25244141 C-15.67885801 -1.24431824 -6.90402844 -2.02604199 0 0 Z M-5.08984375 17.38671875 C-6.73330911 21.09681719 -8.26650794 24.79512969 -9.59765625 28.62890625 C-19.85368132 58.15594832 -38.1011968 82.47754201 -59.08984375 105.38671875 C-60.01203299 106.40205842 -60.93389484 107.41769554 -61.85546875 108.43359375 C-68.55737223 115.80626088 -75.31147814 122.93779403 -82.8671875 129.4453125 C-85.41961258 131.67475936 -87.90871889 133.96673257 -90.40234375 136.26171875 C-94.86776141 140.33457222 -99.45868522 144.19247603 -104.16015625 147.98828125 C-107.41355776 150.65173262 -110.59680238 153.38719572 -113.77734375 156.13671875 C-122.07494979 163.29187593 -130.60201391 170.15609996 -139.13085938 177.03222656 C-141.16022708 178.66953521 -143.18811222 180.30864815 -145.21484375 181.94921875 C-145.87331299 182.48216553 -146.53178223 183.0151123 -147.21020508 183.56420898 C-152.32890416 187.72603557 -157.3520819 191.99109601 -162.31103516 196.34204102 C-165.10872119 198.77706404 -167.93257394 201.00481562 -170.9921875 203.10546875 C-172.52552734 204.2346875 -172.52552734 204.2346875 -174.08984375 205.38671875 C-174.08984375 206.04671875 -174.08984375 206.70671875 -174.08984375 207.38671875 C-170.12198605 206.13985325 -166.34056107 204.65307207 -162.53637695 202.97485352 C-143.33123235 194.62508588 -120.00669222 188.25513897 -99.515625 195.8828125 C-98.38511719 196.37910156 -97.25460937 196.87539063 -96.08984375 197.38671875 C-95.36071777 197.70398926 -94.6315918 198.02125977 -93.88037109 198.34814453 C-80.32586664 204.3249553 -67.51554741 211.53367546 -54.68408203 218.90625 C-40.93986819 227.53743516 -40.93986819 227.53743516 -25.65234375 231.51171875 C-14.65472478 228.03878644 -6.27185578 217.00003208 0.41015625 208.07421875 C0.97839111 207.32148682 1.54662598 206.56875488 2.13208008 205.79321289 C6.18248868 200.40679044 10.19423553 195.01127148 13.91015625 189.38671875 C14.26078125 188.85916992 14.61140625 188.33162109 14.97265625 187.78808594 C30.01055367 164.9899222 48.7422081 135.77502335 43.91015625 107.38671875 C39.40103671 85.94672249 28.70828612 66.2167909 17.91015625 47.38671875 C17.48669922 46.64599121 17.06324219 45.90526367 16.62695312 45.14208984 C8.1045369 29.72988141 8.1045369 29.72988141 -4.08984375 17.38671875 C-4.41984375 17.38671875 -4.74984375 17.38671875 -5.08984375 17.38671875 Z " fill="#C5C5C5" transform="translate(481.08984375,462.61328125)"/>
<path d="M0 0 C3.4375 0.8125 3.4375 0.8125 5.4375 3.8125 C5.90342974 8.45185179 5.03951299 11.30315764 2.875 15.3828125 C2.32924316 16.4337207 1.78348633 17.48462891 1.22119141 18.56738281 C0.63257324 19.67952148 0.04395508 20.79166016 -0.5625 21.9375 C-17.6696387 55.24384369 -29.56808517 91.56280944 -29.8125 129.25 C-29.82192627 130.3524707 -29.83135254 131.45494141 -29.84106445 132.59082031 C-29.81342393 139.46444566 -29.70383717 146.52982566 -26.5625 152.8125 C-21.95897199 152.30194237 -18.98274688 150.27484404 -15.375 147.5625 C-14.77768066 147.12574951 -14.18036133 146.68899902 -13.56494141 146.23901367 C-11.55841285 144.77112815 -9.56036988 143.29214471 -7.5625 141.8125 C25.04775701 117.77367107 25.04775701 117.77367107 39.296875 118.46875 C54.02797036 120.83432736 66.46984517 129.64569309 78.41015625 138.01171875 C82.32802554 140.75261105 86.29943065 143.40081021 90.3125 146 C90.901521 146.38655762 91.49054199 146.77311523 92.09741211 147.17138672 C95.02894533 149.19567933 95.02894533 149.19567933 98.4375 149.8125 C98.05980469 149.27625 97.68210938 148.74 97.29296875 148.1875 C94.50107891 144.21216271 91.71843645 140.23145412 88.98046875 136.21875 C83.90887606 128.78891392 78.76416501 121.42003308 73.5 114.125 C72.95649902 113.37089844 72.41299805 112.61679687 71.85302734 111.83984375 C69.66866593 108.82486717 67.50186291 105.88785691 65.08203125 103.0546875 C62.45515912 99.47315638 63.01098366 97.1487495 63.4375 92.8125 C65.4375 90.8125 65.4375 90.8125 69 90.125 C73.10800437 90.2510579 74.96597233 91.7402328 77.875 94.5625 C82.81925725 99.99528692 87.15668292 105.8531814 91.4375 111.8125 C92.4720767 113.23870184 93.50726957 114.66445684 94.54296875 116.08984375 C97.32373831 119.92208538 100.08872409 123.76544784 102.85058594 127.61132812 C104.34191844 129.67992103 105.84445913 131.73975659 107.3515625 133.796875 C119.26473256 150.10644445 119.26473256 150.10644445 118.8984375 160.25 C118.15692782 164.37229111 116.55294816 166.05931325 113.4375 168.8125 C104.51651538 171.78616154 97.47324915 168.7984021 89.4375 164.8125 C81.8019589 160.82762165 74.84804612 155.67694732 67.77514648 150.79003906 C62.58495962 147.223738 57.33952439 143.79942465 51.9375 140.5625 C51.32108643 140.19213623 50.70467285 139.82177246 50.06958008 139.44018555 C43.81880206 135.75197008 38.62298741 134.87364589 31.4375 135.8125 C20.45406143 139.86915687 10.49905135 148.61649281 1.33398438 155.77636719 C-18.28878104 171.10447042 -18.28878104 171.10447042 -30.5625 169.8125 C-35.14819613 168.42714629 -38.5703024 166.36239214 -41.375 162.4375 C-50.76480899 144.8950528 -47.80938384 119.74299239 -44.5625 100.8125 C-51.79473888 104.85803362 -58.93881917 108.99847149 -65.9375 113.4375 C-72.96983348 117.88917696 -80.12262921 122.12064737 -87.3125 126.3125 C-88.36099121 126.92432129 -89.40948242 127.53614258 -90.48974609 128.16650391 C-103.08418755 135.48331377 -103.08418755 135.48331377 -108.5625 134.8125 C-111.4375 133.3125 -111.4375 133.3125 -113.5625 130.8125 C-114.2776093 127.99819887 -114.48150299 125.58032077 -113.5625 122.8125 C-110.22475263 119.88455984 -106.73264509 117.643163 -102.86328125 115.484375 C-101.74904785 114.85732666 -100.63481445 114.23027832 -99.48681641 113.58422852 C-98.89846008 113.25512482 -98.31010376 112.92602112 -97.70391846 112.58694458 C-87.2359624 106.7234569 -76.89701432 100.67752352 -66.6875 94.375 C-65.67469971 93.75012695 -64.66189941 93.12525391 -63.6184082 92.48144531 C-61.62979112 91.24752378 -59.65049309 89.99845396 -57.6809082 88.734375 C-55.4332596 87.34914915 -53.24129007 86.11014191 -50.90307617 84.90625 C-43.0298687 80.67710751 -39.14671303 76.89293945 -36.44529724 68.2895813 C-36.02812012 66.844969 -35.6249585 65.39624535 -35.23495483 63.94406128 C-34.1769018 60.0297362 -32.93867742 56.17241232 -31.7109375 52.30859375 C-31.33967995 51.12430534 -31.33967995 51.12430534 -30.96092224 49.91609192 C-28.26667429 41.51886986 -24.64179826 33.64960659 -20.75 25.75 C-20.44111847 25.11245789 -20.13223694 24.47491577 -19.81399536 23.8180542 C-8.03139742 -0.42270513 -8.03139742 -0.42270513 0 0 Z " fill="#C5C5C5" transform="translate(140.5625,513.1875)"/>
<path d="M0 0 C0.94045166 0.26538574 0.94045166 0.26538574 1.89990234 0.53613281 C13.40825268 3.86364085 28.03639228 8.50829091 34.25 19.625 C47.75892388 49.79493001 29.96151258 93.72010471 21.76782227 123.50390625 C21.57969971 124.19160599 21.39157715 124.87930573 21.19775391 125.58784485 C20.69978863 127.39883456 20.19409833 129.20769533 19.68774414 131.01635742 C18.70968189 135.25948797 18.6893022 137.83660698 20 142 C23.88452349 147.62586161 30.70421881 150.71355261 37 153 C43.02155244 153.73575239 48.02681901 151.23005559 53.4609375 148.93359375 C60.22766303 146.44552083 66.37689986 146.4201049 73.08203125 149.0546875 C75.73853367 150.36400234 77.36339547 151.50951484 79 154 C79.375 157.125 79.375 157.125 79 160 C77 162 77 162 73.5 162.1875 C70 162 70 162 68 161 C61.61847129 160.50434729 57.59516761 161.65744731 51.9375 164.5 C42.96237063 168.98323723 36.72570204 168.31112633 27.21484375 165.1953125 C18.46370008 161.94154584 10.43285845 156.98318163 5.0625 149.1875 C0.73626222 136.20878665 4.96607869 123.42854934 8.75 110.8125 C22.18855817 71.34586927 22.18855817 71.34586927 20.28515625 30.9921875 C13.73767602 20.84259809 -1.94906705 16.79222926 -13.00683594 14.18481445 C-28.04817429 11.10064404 -44.43442453 11.0712639 -57.8125 19.25 C-61.53419516 21.29328362 -63.81487838 21.49236725 -68 21 C-70 19 -70 19 -70.5625 16.3125 C-69.70444263 11.2594955 -67.01357369 9.01527364 -63 6 C-44.29928324 -5.51641262 -20.78550921 -5.88491201 0 0 Z " fill="#C5C5C5" transform="translate(207,264)"/>
<path d="M0 0 C2.16895518 1.66480004 4.2517608 3.39918894 6.3359375 5.16796875 C6.95597656 5.61011719 7.57601562 6.05226563 8.21484375 6.5078125 C11.13109282 8.62564535 12.24851817 9.6823058 12.8984375 13.29296875 C12.3359375 16.16796875 12.3359375 16.16796875 11.2734375 18.04296875 C8.17714899 19.84081369 5.72704964 20.03574881 2.3359375 19.16796875 C-1.52581199 17.11335688 -5.07290767 14.65852505 -8.6640625 12.16796875 C-12.87475121 9.41784042 -16.87692615 6.81354687 -21.6640625 5.16796875 C-21.5609375 6.32296875 -21.4578125 7.47796875 -21.3515625 8.66796875 C-21.33080494 14.51122232 -24.37011111 18.45092547 -28.01953125 22.7734375 C-32.49431476 26.56796888 -37.4135906 26.54180502 -43.01171875 26.4140625 C-48.12899076 25.93926407 -51.17339646 23.92964793 -54.4765625 20.16796875 C-57.21284673 16.41535038 -57.79206637 14.00023587 -57.7265625 9.48046875 C-57.71753906 8.67222656 -57.70851563 7.86398437 -57.69921875 7.03125 C-57.68761719 6.41636719 -57.67601562 5.80148437 -57.6640625 5.16796875 C-64.44647769 8.16954824 -69.78183039 11.6524861 -75.2421875 16.69140625 C-77.6640625 18.16796875 -77.6640625 18.16796875 -80.8359375 18.01953125 C-83.6640625 17.16796875 -83.6640625 17.16796875 -85.6640625 15.16796875 C-86.14001829 11.13186365 -86.19594618 8.95873387 -83.8984375 5.54296875 C-59.84816839 -17.44848348 -27.22676018 -18.72338787 0 0 Z M-43.5390625 2.23046875 C-45.85493346 3.98627471 -45.85493346 3.98627471 -46.2890625 6.60546875 C-45.42890979 10.13209487 -43.60287289 11.18427173 -40.6640625 13.16796875 C-37.01089579 11.91820119 -35.88340414 11.49698122 -33.6640625 8.16796875 C-33.9762389 5.52164588 -33.9762389 5.52164588 -34.6640625 3.16796875 C-39.01875873 1.24077245 -39.01875873 1.24077245 -43.5390625 2.23046875 Z " fill="#C5C5C5" transform="translate(381.6640625,308.83203125)"/>
<path d="M0 0 C10.89496923 8.65273282 10.89496923 8.65273282 12.7734375 14.7890625 C12.8359375 17.7265625 12.8359375 17.7265625 11.7734375 20.1015625 C9.8359375 21.7265625 9.8359375 21.7265625 7.125 22.1171875 C2.89820249 21.61519255 0.49470873 19.67647378 -2.7265625 17.1015625 C-20.58661051 3.62744184 -40.96958643 -0.22249334 -62.9140625 2.3515625 C-75.93616419 4.46486357 -88.75851755 8.48645127 -100.4375 14.625 C-103.56059918 15.88676786 -105.82463441 16.00996517 -109.1640625 15.7265625 C-111.7907337 14.09621486 -112.13431011 12.82432037 -113.0390625 9.8515625 C-113.19202802 6.02742455 -112.51755582 4.70765404 -110.1640625 1.7265625 C-83.07229536 -22.47998034 -28.30385531 -20.33684418 0 0 Z " fill="#C5C5C5" transform="translate(395.1640625,277.2734375)"/>
<path d="M0 0 C2.327407 2.05554465 3.28914274 3.77251987 4.30859375 6.7109375 C4.24609375 9.6484375 4.24609375 9.6484375 2.74609375 12.0859375 C0.24609375 13.6484375 0.24609375 13.6484375 -3.06640625 13.7109375 C-7.56480296 12.4147893 -10.10829503 10.55004643 -13.75390625 7.6484375 C-13.79257813 8.64423828 -13.79257813 8.64423828 -13.83203125 9.66015625 C-14.183929 15.13856443 -14.45612948 18.81528525 -18.75390625 22.6484375 C-24.33905704 26.80149834 -31.09970891 26.40286242 -37.75390625 25.6484375 C-42.72611425 23.3804128 -45.05593605 20.34490414 -47.75390625 15.6484375 C-49.03708517 11.79890074 -48.82034262 8.70105615 -48.75390625 4.6484375 C-54.81481197 7.07279979 -59.89156901 9.90335183 -64.69140625 14.3984375 C-68.40095058 17.12381701 -70.24779046 17.32860592 -74.75390625 16.6484375 C-76.75390625 15.5859375 -76.75390625 15.5859375 -77.75390625 13.6484375 C-77.97481604 9.89297111 -77.48197683 7.57747671 -75.140625 4.58984375 C-73.09605593 2.48969416 -70.97919237 0.5552497 -68.75390625 -1.3515625 C-68.22796875 -1.82722656 -67.70203125 -2.30289062 -67.16015625 -2.79296875 C-47.57456465 -18.73124355 -18.57606189 -14.31473812 0 0 Z M-34.94140625 2.8359375 C-36.97058601 4.5299859 -36.97058601 4.5299859 -37.25390625 7.1484375 C-36.95570933 9.74485959 -36.95570933 9.74485959 -35.06640625 11.5234375 C-32.79749725 12.85637671 -32.79749725 12.85637671 -30.19140625 12.5234375 C-27.54499602 11.57344408 -26.27784351 11.01900657 -24.75390625 8.6484375 C-24.67365967 6.04953967 -24.67365967 6.04953967 -25.75390625 3.6484375 C-28.92672488 1.42746446 -31.43705146 0.93357347 -34.94140625 2.8359375 Z " fill="#C5C5C5" transform="translate(218.75390625,307.3515625)"/>
<path d="M0 0 C7.24830139 2.3601074 12.0133941 2.80671009 19.375 0.5 C30.73967439 -2.80094277 42.52071708 -1.40115162 53.86328125 1.2265625 C57.37548519 1.9865804 60.80379795 2.38014018 64.375 2.75 C69.8139102 3.56147735 73.16317353 5.13749497 77.03515625 9.05859375 C79.19203441 12.04457827 79.64759662 14.35832526 79.4375 18 C78.4375 20 78.4375 20 76.4375 21 C72.88974769 20.87099082 70.38187627 20.74034436 67.5390625 18.51171875 C63.48451208 15.59515553 58.28532277 15.63869803 53.4375 15 C52.76364258 14.90299805 52.08978516 14.80599609 51.39550781 14.70605469 C41.19388408 13.23802752 32.19925553 12.91750926 21.97265625 14.5546875 C13.41390143 15.88828217 6.66377077 16.09116723 -1.6875 13.9375 C-11.31789098 11.70730419 -21.51834315 11.94572279 -30.5625 16 C-31.83456396 18.54412792 -31.85367607 20.66596092 -32.0625 23.5 C-32.45138889 28.77777778 -32.45138889 28.77777778 -33.5625 31 C-35.875 31.25 -35.875 31.25 -38.5625 31 C-42.3727838 27.32579776 -42.59838269 23.04127546 -42.75 18 C-42.65891129 13.14497162 -41.64244404 10.24291741 -38.4140625 6.52734375 C-35.22874433 3.70419189 -32.6444451 2.59417925 -28.625 1.25 C-27.44035156 0.84265625 -26.25570312 0.4353125 -25.03515625 0.015625 C-16.14262614 -2.58511497 -8.81039639 -2.88581271 0 0 Z " fill="#C5C5C5" transform="translate(240.5625,464)"/>
<path d="M0 0 C1.9609375 1.46484375 1.9609375 1.46484375 3.9609375 4.46484375 C3.8984375 7.46484375 3.8984375 7.46484375 2.9609375 10.46484375 C0.26047116 12.85668536 -1.24123542 13.48257324 -4.8515625 13.40234375 C-8.20717077 12.41540014 -11.04933225 11.0736924 -14.109375 9.40234375 C-20.66999698 6.21499704 -29.58768454 6.30300611 -36.5234375 8.11328125 C-41.41154031 10.32997904 -45.37892808 13.78667632 -48.0390625 18.46484375 C-49.42193546 22.92422059 -49.40054303 26.33787504 -47.9765625 30.77734375 C-45.71258637 33.91769774 -43.31305419 35.44472122 -40.0390625 37.46484375 C-37.57582181 41.15970478 -37.64914562 43.09777467 -38.0390625 47.46484375 C-39.0390625 49.40234375 -39.0390625 49.40234375 -41.0390625 50.46484375 C-46.83331128 51.2505046 -50.3524856 50.41855762 -55.1484375 47.0859375 C-61.10831676 41.97571045 -64.5821256 35.99702026 -65.375 28.1328125 C-65.49796332 17.17678057 -63.46798249 10.34291361 -55.953125 2.31640625 C-39.69050973 -13.41518484 -18.35071179 -11.19452807 0 0 Z " fill="#C5C5C5" transform="translate(412.0390625,34.53515625)"/>
<path d="M0 0 C2.30859375 1.94921875 2.30859375 1.94921875 4 4 C4.0625 7.0625 4.0625 7.0625 3 10 C0.875 11.9375 0.875 11.9375 -2 13 C-5.08411668 12.78357076 -7.8349757 12.33864047 -10.80078125 11.4765625 C-19.17104199 9.66275822 -27.52249127 10.15736328 -34.9375 14.5234375 C-38.68142703 17.20374889 -41.2790961 19.51990922 -42.62109375 24.13671875 C-43.52270155 29.61143001 -42.84935139 33.25108102 -40 38 C-37.67881567 39.82605543 -37.67881567 39.82605543 -35 41 C-30.11111111 43.77777778 -30.11111111 43.77777778 -29 46 C-28.55378486 52.13545817 -28.55378486 52.13545817 -30 54.9375 C-33.28102672 56.68054544 -36.43204467 56.57979274 -40 56 C-48.33745037 53.01139187 -54.06164852 47.8910765 -58 40 C-61.20027667 31.33945746 -60.40352104 23.39963305 -57 15 C-52.26916248 5.83308119 -45.24220129 -0.05401826 -35.44921875 -3.3046875 C-24.12011246 -5.5884711 -10.33488925 -5.65625695 0 0 Z " fill="#C5C5C5" transform="translate(355,21)"/>
<path d="M0 0 C2.25 1.875 2.25 1.875 3.375 4.8125 C3.25 7.875 3.25 7.875 1.71875 10.0078125 C-1.52338193 12.45993127 -4.4563862 12.56910215 -8.375 12.8125 C-16.74221894 13.60477489 -24.04049392 15.44534903 -29.8125 22 C-32.81483083 26.45507155 -33.4606637 30.59006433 -32.75 35.875 C-30.31300752 40.84271543 -27.81889913 42.80606158 -22.75 44.875 C-21.8425 45.143125 -20.935 45.41125 -20 45.6875 C-17.75 46.875 -17.75 46.875 -16.25 49.6875 C-15.75 52.875 -15.75 52.875 -16.875 55.625 C-19.73837209 59.06104651 -19.73837209 59.06104651 -22.75 59.875 C-30.77862744 59.60737909 -36.8927349 57.14692509 -42.5 51.3125 C-47.00983627 45.77066458 -49.83915995 38.99701362 -50.1875 31.8125 C-49.01584899 21.26764094 -45.33151359 13.44875961 -37.1640625 6.55078125 C-26.70897471 -0.70687678 -12.29565858 -3.68869758 0 0 Z " fill="#C5C5C5" transform="translate(291.75,22.125)"/>
<path d="M0 0 C1.56587577 3.13175154 0.7747211 5.5859171 -0.0625 8.875 C-3.02436582 10.84957721 -4.84518422 11.40472853 -8.25 12.1875 C-15.67736504 14.14258683 -21.84434878 17.22330001 -26.0625 23.875 C-28.48550103 28.95176406 -28.40952184 33.50672179 -27.0625 38.875 C-24.98733409 42.62626145 -23.7173044 43.63247985 -19.6875 45.125 C-16.14375059 45.92619992 -16.14375059 45.92619992 -12.8125 46.1875 C-10.0625 46.875 -10.0625 46.875 -8.0625 49.0625 C-7.0625 51.875 -7.0625 51.875 -7.6875 55.0625 C-9.0625 57.875 -9.0625 57.875 -12.0625 59.875 C-19.44401591 61.55850363 -25.64868733 60.38481505 -32.25390625 56.62890625 C-34.1875 55.3125 -34.1875 55.3125 -37.0625 52.875 C-37.0625 52.215 -37.0625 51.555 -37.0625 50.875 C-37.7225 50.875 -38.3825 50.875 -39.0625 50.875 C-39.71607278 49.64993102 -40.35998233 48.41970484 -41 47.1875 C-41.35964844 46.50300781 -41.71929687 45.81851563 -42.08984375 45.11328125 C-45.32982749 37.65741505 -44.99372279 28.87568557 -42.5625 21.25 C-39.03339419 12.55149976 -32.51021528 5.90830767 -24.0625 1.875 C-21.10295696 0.69316905 -18.13162577 -0.27180673 -15.0625 -1.125 C-14.216875 -1.3725 -13.37125 -1.62 -12.5 -1.875 C-8.18232832 -2.31783812 -3.88084444 -2.11682424 0 0 Z " fill="#C5C5C5" transform="translate(238.0625,35.125)"/>
<path d="M0 0 C2.4368763 2.4368763 2.84077523 3.57666749 3 7 C0.92732465 10.51453646 -1.74176008 12.59887546 -5 14.9375 C-9.13508808 17.93293624 -11.88052056 21.10801143 -13.75 25.9375 C-14.45344833 31.74094871 -14.21169283 36.17943679 -11.39453125 41.3359375 C-8.87181841 44.34623349 -5.75183397 44.6087473 -2 45 C0.34214207 45.2644354 2.68025766 45.58244638 5 46 C7 49 7 49 6.8125 52.5 C5.74468085 57.09983633 5.74468085 57.09983633 3 59 C-3.40229359 61.13409786 -10.11034719 60.59423139 -16.26171875 57.89453125 C-23.31287916 54.26595657 -27.52791924 47.41624228 -30 40 C-30.80994602 28.89439401 -29.46439378 19.38502338 -22.9453125 10.1796875 C-16.63864509 3.11318065 -9.59804932 -2.29518571 0 0 Z " fill="#C5C5C5" transform="translate(185,61)"/>
<path d="M0 0 C4.59874388 1.17631028 6.28412943 3.34676225 8.9609375 7.01171875 C16.93874161 17.08118011 25.79888408 23.65207436 38.7109375 25.94921875 C42.18555583 26.07331226 45.56298672 26.03007119 49.03125 25.796875 C51.7109375 25.94921875 51.7109375 25.94921875 53.52734375 27.29296875 C55.12584981 29.52982212 55.51076265 31.21349575 55.7109375 33.94921875 C54.82103042 36.39529843 54.22308059 37.64147357 51.96875 38.99609375 C39.91806088 42.9688484 29.6835401 40.91758933 18.30859375 35.88671875 C7.08896511 30.2078909 -3.20837331 20.0121341 -7.2890625 7.94921875 C-7.09016078 5.16459468 -6.5956359 3.46017442 -5.1640625 1.07421875 C-3.2890625 -0.05078125 -3.2890625 -0.05078125 0 0 Z " fill="#C5C5C5" transform="translate(452.2890625,132.05078125)"/>
<path d="M0 0 C1.29494457 1.37570455 2.54050132 2.79860158 3.75 4.25 C9.34482513 10.89318625 16.37688173 15.40312625 25 17 C28.66363437 17.18017874 31.96593799 17.14816876 35.58984375 16.62890625 C42.41066711 15.6573646 42.41066711 15.6573646 45.6875 17.5625 C47 20 47 20 47.0625 23 C45.69725653 26.8548051 44.53263902 27.93929391 41 30 C30.16257474 33.83009407 19.35229798 32.59501477 9 28 C2.12389594 24.37343859 -3.48125698 20.36312792 -8 14 C-8.61875 13.175 -9.2375 12.35 -9.875 11.5 C-11.37550231 8.16555043 -11.33476707 5.61548434 -11 2 C-7.7091442 -2.93628369 -4.98666286 -2.44628744 0 0 Z " fill="#C5C5C5" transform="translate(474,186)"/>
<path d="M0 0 C5.13844088 0.08406447 9.47303292 2.16604155 14.0625 4.3125 C14.81789063 4.663125 15.57328125 5.01375 16.3515625 5.375 C27.65033499 11.12419872 36.43208018 20.59544112 42 31.9375 C43.31600309 36.11774511 43.49911635 38.94633655 43.0625 43.3125 C41.875 45.3125 41.875 45.3125 40.0625 46.3125 C37.625 46.8125 37.625 46.8125 35.0625 46.3125 C31.899564 43.35362439 30.14391017 39.65530629 28.125 35.875 C24.44110991 29.0057914 20.77613125 24.37190494 14.0625 20.3125 C14.4028125 21.17875 14.4028125 21.17875 14.75 22.0625 C15.0625 24.3125 15.0625 24.3125 13.625 26.5625 C13.109375 27.14 12.59375 27.7175 12.0625 28.3125 C9.75 28.3125 9.75 28.3125 7.0625 27.3125 C5.5625 23.8125 5.5625 23.8125 4.8671875 21.640625 C2.69874793 15.36688722 -0.30693419 10.0125861 -5.9375 6.3125 C-3.659343 0.38929181 -3.659343 0.38929181 0 0 Z " fill="#C5C5C5" transform="translate(299.9375,435.6875)"/>
<path d="M0 0 C4.20249945 0.7564499 5.41599138 2.29779731 8.125 5.5625 C8.85485596 6.7078944 9.58399274 7.85374731 10.3125 9 C14.09292349 14.50208132 20.61886422 18.26038352 27.125 19.5625 C28.68910529 19.61914598 30.25557221 19.62480038 31.8203125 19.58984375 C32.70074219 19.57759766 33.58117187 19.56535156 34.48828125 19.55273438 C36.33731511 19.5174275 38.18628033 19.47833292 40.03515625 19.43554688 C40.91300781 19.42458984 41.79085937 19.41363281 42.6953125 19.40234375 C43.49727051 19.38550537 44.29922852 19.36866699 45.12548828 19.35131836 C47.125 19.5625 47.125 19.5625 49.125 21.5625 C49.78390779 26.66903536 49.78390779 26.66903536 49.125 29.5625 C42.95991674 35.15408714 35.77503524 34.91469929 27.83203125 34.83984375 C18.55261912 34.14559901 10.98995833 30.74688057 4.125 24.5625 C3.485625 24.00304687 2.84625 23.44359375 2.1875 22.8671875 C-2.75738326 18.27256681 -5.44316746 14.23307655 -6.25 7.375 C-5.64844662 2.86334962 -4.58465125 0.89699698 0 0 Z " fill="#C5C5C5" transform="translate(474.875,224.4375)"/>
<path d="M0 0 C3.75721108 0.46965138 4.24293943 0.6605547 6.5 3.4375 C7.12854106 4.68659218 7.71055946 5.95992285 8.25 7.25 C11.02599608 12.97023435 15.30639106 16.66247126 21.0625 19.3125 C26.05832569 21.02366864 31.22169001 20.52005014 36.42578125 20.25 C39.5 20.4375 39.5 20.4375 41.35546875 21.75 C42.5 23.4375 42.5 23.4375 43.5 26.4375 C42.9375 28.9375 42.9375 28.9375 41.5 31.4375 C34.49765657 35.699796 27.51165622 36.54379645 19.5625 34.7890625 C9.29306224 31.7239497 2.42366773 26.69593852 -3.30859375 17.6484375 C-5.72777716 13.15906764 -7.04814384 9.59005207 -6.5 4.4375 C-4.86658084 0.78632776 -4.0205891 0.50257364 0 0 Z " fill="#C5C5C5" transform="translate(475.5,260.5625)"/>
<path d="M0 0 C2 1 2 1 3 3.125 C3 7.10020545 1.19730471 8.24348874 -1.4375 11.04296875 C-4.04736525 14.31182497 -4.9115733 18.02111564 -6 22 C-6.66666667 24 -7.33333333 26 -8 28 C-9.65 28.33 -11.3 28.66 -13 29 C-14.9451 26.08235 -15.45276317 24.37462715 -16 21 C-18.79874322 25.51858162 -21.11815907 29.59881996 -22.0625 34.875 C-22.61245848 37.78774305 -22.84044233 38.81293239 -24.8125 41.125 C-27.71019682 42.28407873 -29.09555185 42.11709544 -32 41 C-34.30577221 38.67821548 -35.00082662 37.57863152 -34.99609375 34.265625 C-32.87558489 22.81784292 -28.9150523 14.0498732 -19.27734375 7.01171875 C-7.70139584 -0.51342639 -7.70139584 -0.51342639 0 0 Z " fill="#C5C5C5" transform="translate(215,433)"/>
<path d="M0 0 C2.49657458 0.07881846 4.99327584 0.14553632 7.49023438 0.2109375 C9.0787968 0.25710362 10.66733954 0.30395329 12.25585938 0.3515625 C13.00162231 0.37141205 13.74738525 0.3912616 14.51574707 0.41171265 C19.7437993 0.58771996 19.7437993 0.58771996 21.97460938 1.703125 C21.7131039 4.84119068 21.18757356 6.44609926 19.16210938 8.890625 C15.03646198 11.23658136 11.19641969 11.65222572 6.52148438 12.2109375 C5.68101562 12.37335938 4.84054687 12.53578125 3.97460938 12.703125 C2.25430227 16.14373922 3.0762319 20.07475269 3.23242188 23.85546875 C2.97460938 26.703125 2.97460938 26.703125 1.63476562 28.6015625 C-0.02539062 29.703125 -0.02539062 29.703125 -2.71289062 29.390625 C-3.85757813 29.0503125 -3.85757813 29.0503125 -5.02539062 28.703125 C-6.60117304 23.41299833 -7.87480507 18.10108489 -9.02539062 12.703125 C-10.23775391 12.57357422 -10.23775391 12.57357422 -11.47460938 12.44140625 C-20.19355699 11.29500662 -20.19355699 11.29500662 -24.27539062 8.390625 C-26.22400093 5.39811632 -26.18764127 4.16254045 -26.02539062 0.703125 C-17.30712865 -0.48411799 -8.76765656 -0.27989327 0 0 Z " fill="#C5C5C5" transform="translate(258.025390625,489.296875)"/>
<path d="M0 0 C5.36545486 1.03847513 6.91805262 3.80812103 10.078125 8.07421875 C13.61358631 13.33898178 16.04409318 17.29844475 15.875 23.75 C14.9375 26.75 14.9375 26.75 12.875 28.75 C9.92708646 29.37567961 7.95854582 29.14156137 4.875 28.75 C3.09893226 26.08589838 2.44831627 24.54438264 1.625 21.5625 C0.49169538 17.92648102 -0.94507173 15.48741365 -3.375 12.5625 C-6.125 9.15222772 -6.125 9.15222772 -6.125 5.375 C-4.72155534 1.69095777 -3.8583519 0.92600446 0 0 Z " fill="#C5C5C5" transform="translate(461.125,329.25)"/>
<path d="M0 0 C8.24866184 -0.94771859 13.49083704 0.89125936 20 6 C23.19294357 8.95331089 25.48884185 11.67700243 27.0625 15.75 C27 18 27 18 25.9375 19.875 C23.02714212 21.56488522 21.20440903 20.80307057 18 20 C15.54296875 18.3984375 15.54296875 18.3984375 13.1875 16.375 C12.33800781 15.66085937 11.48851562 14.94671875 10.61328125 14.2109375 C9.75089844 13.48132813 8.88851563 12.75171875 8 12 C6.29852741 10.65792266 4.59065873 9.32389414 2.875 8 C2.12992187 7.4225 1.38484375 6.845 0.6171875 6.25 C0.08351563 5.8375 -0.45015625 5.425 -1 5 C-0.67 3.35 -0.34 1.7 0 0 Z " fill="#C5C5C5" transform="translate(264,437)"/>
<path d="M0 0 C0.66 0.66 1.32 1.32 2 2 C1.86757577 6.89969665 -0.63709688 8.71352649 -4 12 C-4.83662673 13.42359342 -5.64841547 14.86201453 -6.4375 16.3125 C-7.66796875 18.390625 -7.66796875 18.390625 -9 20 C-12.25 20.5625 -12.25 20.5625 -15 20 C-16 19 -16 19 -16.3125 15.375 C-16.22991301 10.76664573 -15.02454913 7.49326581 -12 4 C-8.39454347 1.10367355 -4.70782292 -0.80705536 0 0 Z " fill="#C5C5C5" transform="translate(234,436)"/>
<path d="M0 0 C-0.69165788 5.41798672 -1.75799248 10.6822785 -3 16 C-5.3125 16.6875 -5.3125 16.6875 -8 17 C-9.67578125 15.79296875 -9.67578125 15.79296875 -11 14 C-11.44191533 8.86993947 -10.17438248 4.06320957 -7 0 C-4.3333581 -1.33332095 -2.83319697 -0.67102033 0 0 Z " fill="#C5C5C5" transform="translate(177,451)"/>
<path d="M0 0 C2 0.6875 2 0.6875 4 2.6875 C4.6043214 6.75293487 4.54686884 10.50741462 2.8125 14.25 C1 15.6875 1 15.6875 -1.5625 16.0625 C-4 15.6875 -4 15.6875 -6 13.6875 C-6.265625 11.6640625 -6.265625 11.6640625 -6.25 9.3125 C-6.25515625 8.54164063 -6.2603125 7.77078125 -6.265625 6.9765625 C-5.97234684 4.4491948 -5.34522026 2.83795773 -4 0.6875 C-2 -0.3125 -2 -0.3125 0 0 Z " fill="#C5C5C5" transform="translate(247,440.3125)"/>
<path d="M0 0 C1 1 1 1 1.375 3.75 C1 7 1 7 -1 9.875 C-5.08189235 12.76634041 -7.08253261 12.56429954 -12 12 C-12.66 11.34 -13.32 10.68 -14 10 C-13.9375 8.125 -13.9375 8.125 -13 6 C-11.37373596 4.61767557 -9.7074998 3.28062485 -8 2 C-7.67 1.34 -7.34 0.68 -7 0 C-3.86350275 -1.04549908 -3.0051095 -1.00170317 0 0 Z " fill="#C5C5C5" transform="translate(243,503)"/>
<path d="M0 0 C5.23789086 0.30218601 8.31174032 1.20326209 12 5 C13 7.0625 13 7.0625 13 9 C11.875 10.8125 11.875 10.8125 10 12 C6.41183731 12 5.04055382 11.0331804 2.25 8.75 C-0.01731975 5.97883141 -0.80376689 4.532196 -1 1 C-0.67 0.67 -0.34 0.34 0 0 Z " fill="#C5C5C5" transform="translate(268,505)"/>
</svg>
