<?xml version="1.0" encoding="UTF-8"?>
<svg version="1.1" xmlns="http://www.w3.org/2000/svg" width="515" height="606">
<path d="M0 0 C1.5570995 1.31230428 3.08152866 2.66485009 4.5625 4.0625 C6.58585719 5.96075406 6.58585719 5.96075406 9 7 C12.41516378 6.48364898 15.32029317 5.38663975 18.54296875 4.15234375 C28.54252149 0.8191595 39.57271392 2.69176657 49 7 C56.90803401 11.94388848 64.15392703 18.89256648 67 28 C67.86625 27.84273437 68.7325 27.68546875 69.625 27.5234375 C82.123168 25.58506422 93.76128343 27.5350029 104.4375 34.625 C111.67510664 40.68222444 116.40219484 49.76823688 118 59 C118.19986672 62.05250996 118.14825682 64.93602569 118 68 C119.0725 68.04125 120.145 68.0825 121.25 68.125 C129.9257621 69.21910144 139.26098059 74.38397226 145 81 C151.03248581 89.42895278 153.96830513 99.67141193 153 110 C152.80664062 110.825 152.61328125 111.65 152.4140625 112.5 C151.83708134 115.24275102 151.52392998 117.22891318 152 120 C154.21135627 122.45956973 156.58832125 124.18701017 159.29296875 126.0859375 C167.29506127 131.74398272 170.76722412 138.94319597 174 148 C174.45375 149.175625 174.9075 150.35125 175.375 151.5625 C177.16352601 161.39939305 174.16067264 170.79324104 169.70703125 179.5390625 C168.71652176 181.99772842 168.71652176 181.99772842 169.9765625 184.21875 C170.52054687 184.9715625 171.06453125 185.724375 171.625 186.5 C177.81254155 196.07933612 180.48959856 206.64507766 179 218 C175.85299572 231.54882818 169.94694943 242.36018895 158 250 C148.83487767 255.27731393 141.53871123 257.56914413 131 256 C131.01820801 257.31371582 131.03641602 258.62743164 131.05517578 259.98095703 C131.052649 264.48269919 130.69055126 268.84375626 130.1171875 273.3046875 C130.02270325 274.06134705 129.92821899 274.81800659 129.83087158 275.59759521 C129.52200592 278.02478787 129.20066671 280.45000699 128.875 282.875 C128.70843903 284.12685089 128.70843903 284.12685089 128.53851318 285.4039917 C127.22334719 295.1342582 125.76815639 304.4245 122.37255859 313.67480469 C119.54593956 321.62657274 118.09057433 329.85953872 116.5 338.125 C115.90510836 341.19038933 115.30838231 344.25541981 114.7109375 347.3203125 C114.5652533 348.06818024 114.41956909 348.81604797 114.26947021 349.58657837 C109.41046472 374.40204295 103.43642363 400.04105858 90.97070312 422.25878906 C89.98381045 424.0290402 89.04466702 425.81921929 88.109375 427.6171875 C83.43748175 436.41767494 77.75343733 443.72464898 71 451 C70.46020508 451.58894043 69.92041016 452.17788086 69.36425781 452.78466797 C56.19259156 467.01173195 35.55327676 487.73675892 15.39453125 490.3359375 C2.97823418 490.52377861 -6.8695308 484.72916722 -17.4375 478.75 C-18.57509766 478.11964844 -19.71269531 477.48929687 -20.88476562 476.83984375 C-28.50648969 472.57028697 -35.80742116 467.95576074 -43 463 C-43.68392822 462.53062012 -44.36785645 462.06124023 -45.07250977 461.57763672 C-53.02281791 456.06895119 -60.5977628 450.22794462 -68 444 C-69.48886719 442.78957031 -69.48886719 442.78957031 -71.0078125 441.5546875 C-83.91708318 430.9896426 -95.82557426 419.23252346 -106 406 C-107.19302734 404.515 -107.19302734 404.515 -108.41015625 403 C-114.98849652 394.75630567 -120.60402846 386.05243784 -126 377 C-126.3801123 376.37287109 -126.76022461 375.74574219 -127.15185547 375.09960938 C-136.28466156 359.96411295 -143.12719283 343.64534037 -149 327 C-149.83885742 327.0311792 -150.67771484 327.0623584 -151.54199219 327.09448242 C-161.65932768 327.41263237 -167.30436741 325.60081383 -175.12890625 319.33203125 C-177.06437917 317.79730167 -177.06437917 317.79730167 -180.0625 317.125 C-184.58873841 315.39154699 -187.25964491 311.91983782 -190 308 C-190.71692668 306.35432739 -191.39794061 304.69107857 -192 303 C-192.8971875 303.11859375 -193.794375 303.2371875 -194.71875 303.359375 C-208.35670324 304.76825447 -222.39626305 302.70983259 -233.484375 294.0625 C-243.88895276 285.19706096 -250.12898864 275.2126082 -251.3125 261.3359375 C-251.4019011 256.11714806 -251.38525217 251.58526853 -249.5 246.6875 C-248.58919706 243.08253976 -248.58919706 243.08253976 -250.47265625 240.87109375 C-251.89594549 239.34139037 -253.34803938 237.8381039 -254.82421875 236.359375 C-262.99742388 227.49650983 -264.58943793 215.87373464 -264.30859375 204.29296875 C-263.71710576 193.14796062 -258.56402896 182.40301204 -250.5703125 174.640625 C-245.99960801 170.83402004 -241.61992952 167.95475809 -236 166 C-236.165 164.783125 -236.33 163.56625 -236.5 162.3125 C-237.80792572 149.83840248 -237.8124493 137.38380652 -230.3125 126.6875 C-223.73657927 118.89503394 -216.66678177 113.43707796 -207 110 C-206.34 110 -205.68 110 -205 110 C-205.15984375 109.45601563 -205.3196875 108.91203125 -205.484375 108.3515625 C-207.99702014 96.89237786 -204.96982626 86.06004694 -198.78125 76.3828125 C-190.20679192 64.91259445 -177.67491018 59.76407759 -164 57 C-163.85304688 56.24976563 -163.70609375 55.49953125 -163.5546875 54.7265625 C-161.22832015 44.11084024 -157.50502856 35.92640797 -148.50390625 29.46875 C-140.55985079 24.80889843 -132.19616167 22.85516577 -123.0625 22.875 C-121.87785156 22.87242188 -120.69320312 22.86984375 -119.47265625 22.8671875 C-116.22464257 22.9914085 -113.18796283 23.38674303 -110 24 C-109.50693359 23.05640625 -109.50693359 23.05640625 -109.00390625 22.09375 C-103.02920612 11.34252809 -96.27051988 5.63522844 -84.4765625 1.91015625 C-75.38847733 -0.46908402 -68.39793638 -0.01842461 -59.26171875 2.2109375 C-54.6695836 3.33141448 -54.6695836 3.33141448 -50 4 C-48.33705558 2.83593891 -46.68004203 1.66077184 -45.078125 0.4140625 C-32.06331628 -8.44187877 -13.39703566 -6.96304529 0 0 Z M-33 22 C-32.42921816 26.50800343 -32.42921816 26.50800343 -31.484375 30.9453125 C-29.63644352 38.78411863 -31.12488286 46.03749446 -35 53 C-37.766846 56.227987 -39.8557028 57.24310867 -44 57.5625 C-47.30540186 57.38163839 -48.05344854 56.96049456 -50.875 54.875 C-53.49762926 51.32673688 -54.89906401 48.36102449 -55.08984375 43.8984375 C-55.34663632 37.92030639 -57.04560501 34.99658464 -61.11328125 30.62890625 C-65.96391517 26.44109187 -70.47975256 26.51887406 -76.72265625 26.6171875 C-81.44435252 27.16870864 -84.58710123 28.72253372 -88 32 C-90.04311947 34.22700856 -90.04311947 34.22700856 -90 37 C-88.92345702 38.89846792 -87.66993031 40.53873253 -86.31640625 42.25 C-82.68177481 47.08179491 -82.62723724 52.22217722 -83 58 C-83.85687094 60.96009962 -84.50725754 61.69565907 -87.125 63.3125 C-91.00737896 64.24089497 -94.24664637 64.31158082 -98 63 C-100.15096139 61.45266809 -102.00180096 59.75086766 -103.9140625 57.91796875 C-110.72147868 51.65871529 -116.88156817 48.59150235 -126.12890625 48.640625 C-130.51207564 49.18926661 -133.71484956 51.10133785 -137 54 C-138.56428238 57.12856476 -138.28007086 59.52712131 -138 63 C-137.08787765 65.02124523 -137.08787765 65.02124523 -135.9375 67 C-134.23322401 70.11241891 -134.00087252 71.05322363 -134.0625 74.8125 C-135.37688442 79.28140704 -135.37688442 79.28140704 -138 81 C-143.25937065 83.25285831 -147.67607635 83.05513156 -153.25 82.8125 C-161.99098242 82.63809758 -168.31535549 83.57668897 -174.890625 89.78515625 C-178.72670798 94.00664009 -180.42366267 97.56258356 -180.4453125 103.4296875 C-179.84599673 106.88889607 -178.32640158 109.80514562 -176.8125 112.9375 C-173.38650457 120.50391645 -173.38650457 120.50391645 -174.6875 125.1875 C-176.14696581 128.21308488 -177.06059559 129.04125657 -179.9375 131 C-183.23097852 132.06758944 -186.4951588 132.22452687 -189.9375 132.4375 C-197.4881643 132.937107 -202.3639729 134.8892652 -207.4375 140.5625 C-211.46820642 145.49380023 -211.38394207 150.32631996 -211.36328125 156.50390625 C-210.88443444 161.11216321 -209.27008927 164.54449662 -207.19140625 168.63671875 C-204.92762793 173.12716427 -204.70502853 175.83977887 -205.9375 180.6875 C-208.67575174 185.08529825 -211.10909423 185.82822049 -216 187 C-217.54064516 187.31749782 -219.08232672 187.63000769 -220.625 187.9375 C-227.59572075 189.41069356 -231.92868359 193.23230176 -236 199 C-238.41940795 204.7186006 -238.37329253 210.02271958 -237 216 C-235.3268025 219.38622776 -235.3268025 219.38622776 -233 222 C-232.443125 222.70125 -231.88625 223.4025 -231.3125 224.125 C-229.00501117 225.99593689 -227.17549339 226.79397996 -224.4375 227.875 C-221.19046669 229.25512289 -220.10029957 229.87020056 -217.875 232.75 C-216.78552647 236.79661598 -216.6366464 240.05732879 -218 244 C-219.40752541 246.22891418 -220.92564411 248.22438113 -222.625 250.23828125 C-225.48457095 253.90210653 -225.36658449 257.52766919 -225 262 C-222.55274886 269.63660296 -217.47875468 273.88546284 -210.8125 277.9375 C-207.77222043 279.08605006 -206.97044201 278.92229998 -204 278 C-204.28875 276.92363281 -204.5775 275.84726562 -204.875 274.73828125 C-208.6472328 260.14123441 -210.33653848 246.77026588 -202.4375 233.1875 C-197.89541173 226.80828918 -190.55917345 223.84380808 -183.046875 222.28125 C-173.81646109 221.01294885 -163.5081743 221.99509542 -155.375 226.875 C-152.68668549 229.28033403 -151.72188927 230.47076359 -151 234 C-150.94437373 237.98125182 -151.39828877 241.02221926 -153.5 244.4375 C-157.69714708 247.06071692 -162.26378637 247.50988483 -167.1171875 246.60546875 C-168.44318516 246.24688183 -169.76625785 245.87727612 -171.0859375 245.49609375 C-174.18174743 244.69371036 -176.83535142 244.63484824 -180 245 C-183.04356954 247.231951 -183.90529509 248.46246799 -184.56640625 252.21484375 C-184.55669352 261.47107808 -183.1595633 268.57396873 -179 277 C-178.68353516 277.64114746 -178.36707031 278.28229492 -178.04101562 278.94287109 C-170.24524269 294.52942293 -170.24524269 294.52942293 -157.203125 305.2890625 C-156.11257812 305.64097656 -156.11257812 305.64097656 -155 306 C-153.44476771 304.44476771 -153.79251443 302.9913474 -153.75 300.82421875 C-153.81845863 293.95268421 -155.43751251 287.47418653 -157 280.8125 C-157.56929007 278.36224477 -158.13200861 275.91045155 -158.6875 273.45703125 C-158.93886719 272.38428955 -159.19023437 271.31154785 -159.44921875 270.20629883 C-160.3574796 264.91898068 -160.83868864 259.73114773 -158 255 C-154.9818537 253.10287947 -153.07505343 252.99865976 -149.5 253.0625 C-145.23577691 254.20470261 -143.85965772 255.6813282 -141 259 C-139.62890625 261.8203125 -139.62890625 261.8203125 -138.5625 265.125 C-138.36422607 265.73811035 -138.16595215 266.3512207 -137.96166992 266.98291016 C-135.440626 275.19597578 -133.7785736 283.6620054 -132.05493164 292.07080078 C-131.81637451 293.2101709 -131.57781738 294.34954102 -131.33203125 295.5234375 C-131.12296143 296.55388184 -130.9138916 297.58432617 -130.69848633 298.64599609 C-130.46798584 299.42281738 -130.23748535 300.19963867 -130 301 C-129.34 301.33 -128.68 301.66 -128 302 C-127.34 301.67 -126.68 301.34 -126 301 C-122.26328409 300.65400779 -119.88090447 300.46682098 -116.625 302.4375 C-113.80475272 306.88481302 -114 311.84866987 -114 317 C-114.99 317 -115.98 317 -117 317 C-118.74675802 322.99674407 -119.25682842 328.27364221 -119.125 334.5 C-119.11597656 335.32242187 -119.10695313 336.14484375 -119.09765625 336.9921875 C-119.07436865 338.99492083 -119.03850959 340.99750154 -119 343 C-118.01 343 -117.02 343 -116 343 C-115.73445313 342.36191406 -115.46890625 341.72382813 -115.1953125 341.06640625 C-114.84210938 340.24011719 -114.48890625 339.41382813 -114.125 338.5625 C-113.77695313 337.73878906 -113.42890625 336.91507812 -113.0703125 336.06640625 C-112 334 -112 334 -110 333 C-107.3276379 332.86584528 -104.67749512 332.95681459 -102 333 C-100.33170236 335.90223597 -99.77365898 337.79257029 -100.0234375 341.125 C-100.0752417 341.9085083 -100.1270459 342.6920166 -100.18041992 343.49926758 C-100.27673706 344.73713013 -100.27673706 344.73713013 -100.375 346 C-100.48514888 347.71210729 -100.59322346 349.4243493 -100.69921875 351.13671875 C-100.75255371 351.96864746 -100.80588867 352.80057617 -100.86083984 353.65771484 C-101.59333548 364.05538552 -101.59333548 364.05538552 -99 374 C-98.34 373.67 -97.68 373.34 -97 373 C-95.89859216 369.68453762 -94.94224 366.36149671 -94.03125 362.99023438 C-92.79022612 358.69770557 -91.71153881 355.7890176 -88 353 C-84.9375 352.4375 -84.9375 352.4375 -82 353 C-78.75394646 357.03386618 -78.67542647 360.2543033 -78.8125 365.3203125 C-78.82385986 366.01961884 -78.83521973 366.71892517 -78.84692383 367.43942261 C-78.89551044 370.40886614 -78.97927788 373.37703003 -79.06152344 376.34570312 C-79.32840131 386.89908443 -79.03257654 396.44083967 -74 406 C-73.34 406 -72.68 406 -72 406 C-71.81824219 404.77023437 -71.63648438 403.54046875 -71.44921875 402.2734375 C-71.19583861 400.64054328 -70.94190292 399.00773519 -70.6875 397.375 C-70.56955078 396.56675781 -70.45160156 395.75851562 -70.33007812 394.92578125 C-68.71059783 384.71059783 -68.71059783 384.71059783 -65 381 C-61.625 380.6875 -61.625 380.6875 -58 381 C-54.90815496 384.03145744 -54.57642018 386.6149892 -54.375 390.83984375 C-54.30796875 391.98646484 -54.2409375 393.13308594 -54.171875 394.31445312 C-54.11515625 395.51005859 -54.0584375 396.70566406 -54 397.9375 C-53.51330486 415.58798858 -53.51330486 415.58798858 -46 431 C-45.34 431.33 -44.68 431.66 -44 432 C-43.96261719 430.70964844 -43.92523438 429.41929687 -43.88671875 428.08984375 C-43.82102298 426.37236851 -43.7545769 424.65492185 -43.6875 422.9375 C-43.65366211 421.66616211 -43.65366211 421.66616211 -43.61914062 420.36914062 C-43.39307984 415.04643665 -43.01348383 409.01348383 -39 405 C-35.6875 404.5625 -35.6875 404.5625 -32 405 C-27.15594909 410.21252232 -26.87166784 416.34732876 -26 423.1875 C-24.57060826 434.205728 -23.00074264 444.77701451 -15 453 C-14.34 452.67 -13.68 452.34 -13 452 C-13.16113281 450.72769531 -13.32226562 449.45539063 -13.48828125 448.14453125 C-14.05923852 442.98368388 -14.18361333 437.87620618 -14.1875 432.6875 C-14.19974609 431.80771484 -14.21199219 430.92792969 -14.22460938 430.02148438 C-14.22654297 429.17263672 -14.22847656 428.32378906 -14.23046875 427.44921875 C-14.23457764 426.68955811 -14.23868652 425.92989746 -14.24291992 425.1472168 C-13.96184408 422.66273237 -13.37580333 421.08596951 -12 419 C-8.41410857 418.00815769 -6.55287397 417.81570868 -3 419 C0.30009712 424.44125301 2.10116312 430.9335391 4.015625 436.97265625 C4.40666412 438.18543495 4.40666412 438.18543495 4.80560303 439.42271423 C5.62506908 441.96783823 6.4376514 444.5150965 7.25 447.0625 C7.80943897 448.80418327 8.36933089 450.54572112 8.9296875 452.28710938 C10.29169138 456.52307939 11.64753281 460.76097595 13 465 C13.99 465 14.98 465 16 465 C21.14362295 451.88292916 24.91919055 439.41761699 26.47265625 425.34765625 C26.9615748 422.24392889 27.59224231 419.80004552 29 417 C31.82883747 415.58558126 33.87376745 415.68099668 37 416 C40.52284487 419.01958132 41.22172216 423.59346496 42 428 C42.21997846 431.33991687 42.19180066 434.65482841 42.125 438 C42.11597656 438.87011719 42.10695313 439.74023438 42.09765625 440.63671875 C42.07434619 442.7579342 42.03848579 444.87900562 42 447 C46.20494799 445.17063087 47.24509446 443.26191346 49 439 C50.06704277 434.82387852 50.16516046 430.71879783 50.2109375 426.43359375 C50.23898734 424.96418121 50.26765165 423.49478029 50.296875 422.02539062 C50.33820948 419.72566834 50.37512928 417.42616778 50.40136719 415.1262207 C50.42898195 412.89490007 50.47482282 410.66454249 50.5234375 408.43359375 C50.52669037 407.74808945 50.52994324 407.06258514 50.53329468 406.35630798 C50.63758877 402.3004726 51.16534147 399.96034 54 397 C58.18064819 397.16079416 60.31307582 397.27491336 63.25 400.375 C65.7987593 404.85730083 66.83053317 410.02090638 68 415 C68.99 415 69.98 415 71 415 C74.21176841 405.93147744 72.75650911 396.05634415 71.4375 386.6875 C71.05852368 383.49327098 70.83783909 380.3999011 70.75 377.1875 C70.72421875 376.27355469 70.6984375 375.35960937 70.671875 374.41796875 C71 372 71 372 72.3046875 370.18359375 C74 369 74 369 77.375 368.875 C82.15494251 370.35843043 83.60705908 372.77651441 86 377 C89.93271886 373.06728114 89.33675156 368.1683681 89.40039062 362.89672852 C89.29876206 356.14664872 87.7308174 349.99411414 85.77880859 343.56054688 C84.38495114 338.91501768 83.54919423 334.91503516 84 330 C86 328 86 328 89.4375 327.6875 C93 328 93 328 94.8125 329.5 C95.204375 329.995 95.59625 330.49 96 331 C96.66 331 97.32 331 98 331 C100.06007001 323.94916513 101.1616936 317.78794887 100.9140625 310.44140625 C100.73568824 299.6166671 102.34901361 289.06751414 103.875 278.375 C106.93363423 256.62269167 109.40296626 235.05571243 109.25 213.0625 C109.24689819 212.25093445 109.24379639 211.4393689 109.24060059 210.60321045 C109.07154223 172.55300585 104.80178423 132.91808742 85.15893555 99.53979492 C81.03181229 92.52486742 77.97299415 87.24315712 80 79 C82.82432266 74.98077161 86.56950018 73.75548106 91 72 C92.62393905 70.37606095 92.32581207 68.61552751 92.4375 66.375 C92.40155395 61.35693189 91.1110909 58.95508539 87.703125 55.375 C82.54636547 51.2117446 77.39639096 51.41677153 71 52 C67.08792212 53.42257377 65.22834229 55.88057664 62.625 59 C59.28075795 62.92208085 57.01108605 64.68129314 52 66 C48.43604469 66.08564033 45.24720347 65.74832208 42.125 63.875 C40.33025556 60.88375926 39.56737935 58.46101403 39 55 C39.546875 53.1171875 39.546875 53.1171875 40.375 51.1875 C42.38913412 46.45428482 43.15473878 42.07603921 42 37 C39.67762621 33.31686031 36.9393468 29.9696734 33 28 C30.81423854 27.90336035 28.62539152 27.87019673 26.4375 27.875 C25.26058594 27.87242188 24.08367187 27.86984375 22.87109375 27.8671875 C20.10327299 27.67216812 20.10327299 27.67216812 19 29 C18.7272727 31.18478284 18.4821806 33.37303696 18.25 35.5625 C17.18360844 43.32741042 15.14756238 48.00981574 9.5 53.375 C3.87541821 57.03097816 0.49905341 57.36270475 -6 56 C-7.9375 54.9375 -7.9375 54.9375 -9 53 C-10.34343089 47.33839841 -9.94952105 44.1627536 -7.71875 38.875 C-6.63940639 36.05932103 -6.547668 33.97246746 -7 31 C-9.64753964 25.59460658 -13.48304133 22.26311861 -19 20 C-24.02573047 19.18750691 -28.43257845 19.64262114 -33 22 Z M108 90 C108.57913561 93.57553287 109.53007713 96.32140837 111.25 99.5 C114.34574416 105.47487649 116.6766992 111.69248549 119 118 C119.99 118 120.98 118 122 118 C126.32963602 113.28833727 127.39315867 109.51568453 127.26171875 103.27734375 C126.82696854 99.49436804 125.62177605 97.74662253 123 95 C118.10152883 91.8775344 113.90550913 89.64080982 108 90 Z M125 137 C125.14099121 137.75917725 125.28198242 138.51835449 125.42724609 139.30053711 C130.94704894 169.17573539 130.94704894 169.17573539 132 182 C132.08757568 183.03310303 132.17515137 184.06620605 132.26538086 185.13061523 C133.06324878 195.57868509 133.11674936 205.96532717 133.0625 216.4375 C133.05746829 218.15169138 133.05290837 219.86588421 133.04882812 221.58007812 C133.03797027 225.72008893 133.02080066 229.86002771 133 234 C140.28313677 231.64717754 145.74791192 228.49029296 150 221.9375 C152.87323966 216.15192898 152.96829698 210.30593408 152 204 C150.13539053 198.68274045 146.62354865 195.59718158 142.375 192.0625 C137.96318126 188.29991212 135.5083215 184.87746739 135 179 C135.80790706 174.9604647 136.67840501 172.88587788 140.14453125 170.5625 C141.71876157 169.70799049 143.31804926 168.89765847 144.94140625 168.140625 C147.30805352 167.03512584 147.30805352 167.03512584 149 164 C149.68708052 158.9108106 149.67619213 154.40647963 147.4375 149.75 C146.2309375 148.38875 146.2309375 148.38875 145 147 C144.50242187 146.40316406 144.00484375 145.80632812 143.4921875 145.19140625 C139.31282476 140.51635165 135.16534264 138.1966007 129 137 C127.68 137 126.36 137 125 137 Z " fill="#BABABA" transform="translate(289,12)"/>
<path d="M0 0 C4.60412593 4.63756994 6.65487871 11.39203648 9.19140625 17.30078125 C19.19784845 40.60560999 31.63497389 60.75202018 48.61328125 79.625 C49.08652832 80.15464355 49.55977539 80.68428711 50.04736328 81.22998047 C58.09856357 90.22118273 66.37794224 98.98786476 75.55078125 106.84765625 C77.93792861 108.9047624 80.27562881 111.01184772 82.61328125 113.125 C88.63694208 118.55271265 94.6885939 123.89310058 100.98828125 129 C105.4869547 132.65594674 109.79774877 136.4677152 114.078125 140.375 C116.71344156 142.71389421 119.42605417 144.92215883 122.17578125 147.125 C126.57511534 150.68164474 130.56318576 154.46627365 134.5078125 158.515625 C136.43506992 160.44645804 138.41266689 162.23172813 140.48828125 164 C148.52283227 170.93239591 155.73661103 178.48754209 162.34375 186.78515625 C163.96894636 188.81874963 165.60881123 190.82174922 167.2890625 192.80859375 C167.73886475 193.34105713 168.18866699 193.87352051 168.65209961 194.42211914 C169.9165482 195.9152913 171.18282877 197.40691152 172.44921875 198.8984375 C175.64792094 202.92857131 178.04262848 205.97831867 177.98828125 211.25 C177.99601562 212.00539063 178.00375 212.76078125 178.01171875 213.5390625 C177.51089661 216.16101369 176.71949941 217.022124 174.61328125 218.625 C169.09549525 220.08252838 166.47369284 219.42908361 161.61328125 216.625 C159.3671875 214.75 159.3671875 214.75 157.17578125 212.625 C138.29049341 195.18588285 109.9220135 175.55327629 83.61328125 172.625 C82.90300781 172.5425 82.19273437 172.46 81.4609375 172.375 C65.79309554 171.46836177 49.28447876 181.91404652 36.03686523 189.21630859 C23.40458577 196.14967257 9.69750827 202.37470435 -4.99609375 199.03125 C-12.1834548 196.62058232 -17.14219966 191.94327014 -22.38671875 186.625 C-23.21171875 185.79871094 -24.03671875 184.97242188 -24.88671875 184.12109375 C-38.78289005 169.55182666 -63.38671875 136.40592366 -63.38671875 115.625 C-64.77470703 116.31899414 -66.16266715 117.01304466 -67.55053711 117.70727539 C-68.89731773 118.38041422 -70.24450809 119.05273369 -71.59204102 119.72436523 C-75.95120424 121.89910179 -80.30293822 124.08764973 -84.64651489 126.29338074 C-127.60606392 148.09800036 -127.60606392 148.09800036 -138.38671875 146.625 C-141.38671875 145.125 -141.38671875 145.125 -143.38671875 142.625 C-144.04261146 139.23622101 -144.32188421 137.78546416 -143.38671875 134.625 C-137.58132719 128.56063576 -130.36240075 125.31588932 -122.89453125 121.6875 C-121.5803554 121.0389072 -120.26671503 120.38922842 -118.95358276 119.73852539 C-115.5121917 118.03576904 -112.06548848 116.34409627 -108.61694336 114.65588379 C-103.10547168 111.95703314 -97.59971678 109.24672001 -92.09896469 106.52609253 C-90.19361424 105.58669934 -88.2844525 104.6554346 -86.37478638 103.72485352 C-74.71297294 98.84137496 -74.71297294 98.84137496 -66.26808167 90.24549866 C-65.46447143 87.61720949 -64.93974027 85.01656298 -64.44921875 82.3125 C-61.53164832 69.11012192 -56.74927738 57.00786873 -51.38671875 44.625 C-50.84845459 43.37468994 -50.84845459 43.37468994 -50.29931641 42.09912109 C-43.60381742 26.72676923 -34.04954054 6.58272397 -18.38671875 -1.375 C-12.45079384 -3.3158091 -5.35545709 -3.54568193 0 0 Z M-17.2265625 21.44140625 C-33.40188007 42.6169151 -49.56678114 73.34307642 -47.38671875 100.625 C-43.6286934 128.18385257 -22.75677923 157.57926759 -3.765625 176.91015625 C-0.67815346 179.13577203 1.88194846 179.86029582 5.61328125 180.625 C16.60836957 178.62919449 26.86895362 172.75803076 36.67578125 167.625 C50.3871058 160.46725728 63.85378104 153.44744829 79.67578125 153.375 C80.4229541 153.37105225 81.17012695 153.36710449 81.93994141 153.36303711 C87.67628541 153.42264986 92.80054548 154.34524297 98.29296875 156.06640625 C100.74833292 156.87414226 100.74833292 156.87414226 103.61328125 155.625 C96.39146389 149.34211878 89.16726282 143.06238566 81.86328125 136.875 C81.32848145 136.42181396 80.79368164 135.96862793 80.24267578 135.50170898 C76.96954412 132.73934626 73.64696538 130.04795781 70.30078125 127.375 C54.09987773 114.16467024 38.48501961 99.10282848 25.61328125 82.625 C24.95070313 81.81804687 24.288125 81.01109375 23.60546875 80.1796875 C8.51288331 61.77265193 -2.8197571 41.33464374 -12.38671875 19.625 C-15.46180835 19.27372019 -15.46180835 19.27372019 -17.2265625 21.44140625 Z " fill="#C0C0C0" transform="translate(146.38671875,382.375)"/>
<path d="M0 0 C6.41790616 1.68837074 9.53740718 8.11299472 12.7265625 13.47265625 C18.85534962 24.29928556 23.38748265 35.74210037 27.72387695 47.37231445 C28.15917725 48.52948975 28.59447754 49.68666504 29.04296875 50.87890625 C29.61519165 52.43351562 29.61519165 52.43351562 30.19897461 54.01953125 C32.0037232 57.97141672 34.28214998 59.73913487 38.0234375 61.79296875 C38.73701416 62.18766357 39.45059082 62.5823584 40.18579102 62.98901367 C40.95463623 63.40642822 41.72348145 63.82384277 42.515625 64.25390625 C43.73366821 64.91966675 43.73366821 64.91966675 44.97631836 65.59887695 C46.65359101 66.51356029 48.33222851 67.42574524 50.01220703 68.33544922 C52.0831734 69.46170459 54.14272397 70.60545212 56.19921875 71.7578125 C67.47511368 77.98630328 79.22543326 83.18154686 90.99243164 88.40112305 C91.69733734 88.71608734 92.40224304 89.03105164 93.12850952 89.3555603 C94.45480672 89.94793406 95.78307192 90.53593017 97.11367798 91.11856079 C102.40036761 93.48545069 107.12917653 95.73673355 110.390625 100.62890625 C110.31528047 104.77285546 110.01700264 106.91041425 107.265625 110.06640625 C102.65937683 112.569802 98.31499027 112.03317754 93.40234375 110.59765625 C91.95623417 110.12214504 90.51495141 109.63177173 89.078125 109.12890625 C88.29397217 108.85900879 87.50981934 108.58911133 86.7019043 108.31103516 C69.83407871 102.3632353 54.1377094 94.03521287 38.390625 85.62890625 C38.45121094 86.67304687 38.51179687 87.7171875 38.57421875 88.79296875 C38.8052861 92.81326281 39.02111891 96.83429928 39.23632812 100.85546875 C39.39559669 103.71827081 39.5725728 106.57967723 39.75 109.44140625 C39.8598965 111.37887674 39.96928054 113.31637637 40.078125 115.25390625 C40.13863037 116.16479004 40.19913574 117.07567383 40.26147461 118.01416016 C40.59558648 124.30843399 40.43881675 130.06653975 37.20703125 135.6875 C33.65633493 139.59215981 31.74290532 140.50011765 26.453125 141.00390625 C14.7641762 140.70466916 6.43604223 133.6226012 -2.45825195 126.87792969 C-15.45218064 116.93128338 -15.45218064 116.93128338 -31.08203125 114.08984375 C-43.94399565 116.83319937 -55.30523259 124.20679639 -66.53564453 130.75146484 C-79.615949 138.36356918 -79.615949 138.36356918 -86.609375 137.62890625 C-90.22687018 136.42307452 -92.01533086 135.32195775 -94.484375 132.44140625 C-96.57948433 127.20363293 -96.25369089 122.65268325 -94.234375 117.50390625 C-89.14902241 107.10204868 -81.11205369 97.94274505 -74.15356445 88.74755859 C-70.07770063 83.3309587 -66.23171705 77.77761108 -62.42456055 72.17016602 C-54.45791484 60.47744609 -54.45791484 60.47744609 -50.609375 56.62890625 C-46.70655784 56.37298381 -43.76935464 56.19391389 -40.109375 57.56640625 C-38.15098888 60.25918717 -37.8125884 62.52023451 -37.9921875 65.81640625 C-41.0763819 79.87096303 -52.66191422 93.03439191 -60.609375 104.62890625 C-59.77913818 104.28110107 -59.77913818 104.28110107 -58.93212891 103.92626953 C-56.37005208 102.85931517 -53.80234556 101.80659205 -51.234375 100.75390625 C-49.92919922 100.20669922 -49.92919922 100.20669922 -48.59765625 99.6484375 C-36.21648358 94.60425604 -23.82966164 92.66711281 -10.921875 97.37890625 C-1.14822341 101.84912849 8.01690977 108.63365726 16.4609375 115.25146484 C18.44472759 116.8101562 18.44472759 116.8101562 21.390625 117.62890625 C18.90044732 81.94874843 8.28875677 50.21439284 -7.35351562 18.29492188 C-9.00864335 14.78131481 -9.78229552 11.98288008 -9.859375 8.12890625 C-9.88515625 7.35546875 -9.9109375 6.58203125 -9.9375 5.78515625 C-9.609375 3.62890625 -9.609375 3.62890625 -8.35546875 1.89453125 C-5.58055414 -0.11681625 -3.36213402 -0.1681067 0 0 Z " fill="#C0C0C0" transform="translate(401.609375,431.37109375)"/>
<path d="M0 0 C4.79449943 4.12487661 7.4888572 7.82546471 8.375 14.25 C7.78988179 18.19954791 6.67099402 19.82900598 3.875 22.625 C0.78315438 24.17092281 -1.70352725 23.87621465 -5.125 23.625 C-8.30859375 22.12890625 -8.30859375 22.12890625 -11.5625 20.1875 C-20.21769849 15.4721441 -28.80626274 14.43388171 -38.5234375 16.265625 C-45.20305364 18.25100209 -52.6008896 21.3960806 -56.31640625 27.62109375 C-58.56222128 33.18680925 -56.69775344 38.63729803 -55.10546875 44.109375 C-53.61806527 49.44269426 -52.37417077 54.83038859 -51.11376953 60.22119141 C-50.01979311 64.89261064 -48.8962155 69.55111228 -47.69140625 74.1953125 C-44.1317812 88.07586849 -41.20700391 100.38231446 -48.75 113.4375 C-51.61526985 116.07656434 -54.0736842 116.8769844 -57.7734375 117.9375 C-59.94246433 118.57163409 -61.92566997 119.36222089 -64 120.25 C-72.59782524 123.43814822 -80.235729 122.74512948 -88.97265625 120.44921875 C-91.85083222 119.69668451 -94.696047 119.13419391 -97.625 118.625 C-101.30774212 117.88246338 -104.26561916 117.20766656 -107.125 114.625 C-108.42631019 110.9650651 -108.29132991 109.12398973 -107.0625 105.4375 C-104.6833901 101.98395337 -103.08763945 100.97080208 -99.125 99.625 C-94.32354356 99.21809691 -90.27537377 99.74492525 -85.5625 100.6875 C-80.28121856 101.71157119 -75.82412708 102.08011096 -70.93359375 99.44360352 C-68.86322763 97.73569438 -68.86322763 97.73569438 -68.8125 94.98803711 C-69.84007275 84.22501529 -71.90651864 73.76001049 -74.125 63.1875 C-74.68093773 60.50087049 -75.234318 57.81373479 -75.78588867 55.12620544 C-76.12673831 53.4693732 -76.47046292 51.81312871 -76.81762695 50.15760803 C-79.54570274 37.02506523 -81.8073118 22.90547272 -75.125 10.625 C-67.1579846 -1.13391133 -54.17383655 -5.73318002 -40.75 -8.75 C-26.63304429 -10.88516364 -11.70290332 -8.47649115 0 0 Z " fill="#B6B6B6" transform="translate(388.125,213.375)"/>
<path d="M0 0 C2.75093777 3.58455528 3.60918374 7.07500959 3.41015625 11.609375 C0.97542642 25.80037171 -7.79769099 39.18523164 -19.2734375 47.68359375 C-29.83627343 54.53747273 -41.46544707 57.46334993 -54 56 C-58.84896928 54.81932649 -62.66699325 53.41141892 -66.125 49.75 C-67.8458505 44.34161272 -67.80750384 40.61500769 -65.3125 35.625 C-61.20388278 30.96116423 -56.80247348 30.77140702 -50.8125 30.25 C-40.36398841 29.05090709 -33.65297058 24.57895924 -26.9296875 16.640625 C-25.11184286 14.15304812 -23.54138727 11.59839143 -22.00463867 8.92993164 C-16.43229753 -0.73466101 -16.43229753 -0.73466101 -11.0859375 -2.7421875 C-6.92717892 -3.25619137 -3.53704001 -2.16392082 0 0 Z " fill="#B2B2B2" transform="translate(162,127)"/>
<path d="M0 0 C3.54183582 3.45544958 4.42718653 5.01155186 4.875 9.9375 C4.53816502 13.77741883 4.00772397 15.54886763 1.5625 18.5 C-2.39612414 20.85377652 -5.05134351 20.59653912 -9.4375 19.5 C-10.7937697 19.02681868 -12.14774568 18.5470372 -13.5 18.0625 C-30.94877602 12.09010016 -47.75021841 13.51291244 -64.19799805 21.11157227 C-69.21191203 23.33549045 -72.94675563 23.92823113 -78.4375 23.5 C-81.69214089 22.15569181 -83.01684333 21.20746804 -84.8125 18.1875 C-85.85994606 13.68348195 -85.01057671 10.67106981 -83 6.5625 C-64.90676531 -15.06112195 -21.93326357 -17.07661235 0 0 Z " fill="#B3B3B3" transform="translate(272.4375,217.5)"/>
<path d="M0 0 C3.06177104 2.58336932 3.77457337 5.69751006 4.12109375 9.6640625 C3.60833795 19.55528721 -2.29951948 27.71768414 -9.37109375 34.16015625 C-19.81519199 42.46267119 -33.47272747 46.95570837 -46.83984375 45.7421875 C-53.60355127 44.72160063 -59.78582192 42.90312859 -64.9375 38.25 C-67.20340923 33.45160398 -67.51772333 29.55316999 -65.875 24.625 C-63.6369407 21.49171697 -62.65478907 21.07694451 -59 20 C-56.08656125 19.70054904 -53.17666629 19.63587803 -50.25 19.5625 C-40.24446788 19.15044853 -31.46728087 17.82198142 -24.25390625 10.140625 C-22.48047624 8.11166852 -20.73915357 6.05833941 -19 4 C-12.61122261 -2.99723238 -8.54596613 -4.10800302 0 0 Z " fill="#B2B2B2" transform="translate(148,185)"/>
<path d="M0 0 C1.5625 1.015625 1.5625 1.015625 4 3.015625 C4.61875 3.469375 5.2375 3.923125 5.875 4.390625 C7.68477144 7.0047393 7.44034629 8.93320095 7 12.015625 C5.4375 14.390625 5.4375 14.390625 3 16.015625 C-0.31552796 16.31703663 -3.12052467 16.2007777 -6.375 15.515625 C-12.40880334 14.36632913 -17.67771568 14.7852862 -23.5625 16.515625 C-30.57394549 18.57609157 -35.59059069 18.40300765 -42.7109375 16.46484375 C-49.30456757 15.17087198 -56.25806874 15.89255539 -62.921875 16.31640625 C-63.77160889 16.36885498 -64.62134277 16.42130371 -65.49682617 16.4753418 C-67.18265445 16.58394449 -68.86781569 16.70356867 -70.55200195 16.83520508 C-71.71928833 16.91291138 -71.71928833 16.91291138 -72.91015625 16.9921875 C-73.60246338 17.04455566 -74.29477051 17.09692383 -75.00805664 17.15087891 C-77.44093481 16.98568532 -78.9398331 16.29999334 -81 15.015625 C-82.56430248 11.88702005 -82.35627284 9.45959575 -82 6.015625 C-78.42030713 2.44261066 -74.95685477 1.12331583 -70.125 -0.171875 C-68.95195312 -0.49542969 -67.77890625 -0.81898438 -66.5703125 -1.15234375 C-56.59119692 -3.47789257 -45.69502305 -4.36209451 -35.6875 -1.796875 C-30.97212973 -0.66111306 -27.8001985 -1.66907351 -23.29296875 -3.234375 C-16.00222362 -5.6190821 -6.75431802 -3.3243909 0 0 Z " fill="#C0C0C0" transform="translate(340,365.984375)"/>
<path d="M0 0 C2.5625 2.0625 2.5625 2.0625 4 5 C4.19019542 8.48691603 3.96155499 10.72427358 1.81640625 13.5703125 C-4.50410429 19.59134748 -13.78887615 24.31829773 -22.5625 24.5 C-25.23835233 24.39170244 -26.66066002 24.21191714 -28.9453125 22.78515625 C-31.09473461 21.69094019 -31.09473461 21.69094019 -33.55078125 23.08984375 C-41.02139152 28.08786165 -46.9426242 32.97229299 -52.0625 40.375 C-54.12085741 43.2072998 -54.7097925 43.8955253 -58.125 45.125 C-61.12346584 44.99463192 -62.60799239 44.7940057 -65 43 C-67.25888319 39.28556884 -67.25983976 36.71200669 -66.6640625 32.5 C-63.23535023 19.59190675 -52.65475163 12.35749677 -41.81640625 6.015625 C-36.40609847 3.03241706 -30.9621436 0.56495556 -24.6875 0.625 C-23.86636719 0.61726563 -23.04523438 0.60953125 -22.19921875 0.6015625 C-19.56044955 1.07963436 -18.67070382 1.95622639 -17 4 C-13.49098842 2.6491743 -13.49098842 2.6491743 -10.1875 0.875 C-6.79075247 -0.48369901 -3.59361639 -0.70549524 0 0 Z " fill="#BFBFBF" transform="translate(298,338)"/>
<path d="M0 0 C0.76183594 0.10828125 1.52367187 0.2165625 2.30859375 0.328125 C4.5625 0.75 4.5625 0.75 6.72265625 1.421875 C7.32980469 1.53015625 7.93695313 1.6384375 8.5625 1.75 C9.2225 1.09 9.8825 0.43 10.5625 -0.25 C18.83835652 -1.31785245 24.63665593 1.30018924 31.5625 5.75 C39.03041708 11.53621056 45.72346561 17.25659159 47.5 26.875 C47.5625 30.75 47.5625 30.75 46.5625 33.6875 C44.5625 35.75 44.5625 35.75 41.3125 36.9375 C36.059066 36.6748283 34.04156203 34.49905575 30.5625 30.75 C28.75216634 28.65382418 26.96603958 26.55157107 25.23828125 24.38671875 C23.3330144 22.52586372 22.1906292 22.03368808 19.5625 21.75 C18.9025 22.08 18.2425 22.41 17.5625 22.75 C9.25177874 22.75 4.14404564 19.63139994 -2.4375 14.75 C-3.03433594 14.31171875 -3.63117188 13.8734375 -4.24609375 13.421875 C-6.97645308 11.1014563 -7.44365462 9.705379 -7.9375 6.125 C-7.4375 2.75 -7.4375 2.75 -6.18359375 1.0234375 C-3.87990688 -0.65665628 -2.78009776 -0.43131365 0 0 Z " fill="#BFBFBF" transform="translate(323.4375,339.25)"/>
<path d="M0 0 C3.53648116 -0.07605336 5.40924403 -0.01919122 8.58349609 1.70019531 C10.58349609 4.07519531 10.58349609 4.07519531 11.20849609 7.01269531 C10.36882673 11.12707518 8.90023389 12.55159047 5.58349609 15.07519531 C2.27099609 15.88769531 2.27099609 15.88769531 -0.41650391 16.07519531 C-0.31337891 17.29207031 -0.21025391 18.50894531 -0.10400391 19.76269531 C-0.12242355 23.21944813 -0.39240706 24.03905004 -2.41650391 27.07519531 C-6.55315985 29.83296594 -8.50343329 29.6990773 -13.41650391 29.07519531 C-15.79150391 28.13769531 -15.79150391 28.13769531 -17.41650391 26.07519531 C-17.74975796 24.58388341 -18.03671204 23.08189719 -18.29150391 21.57519531 C-18.66123139 19.18866708 -18.66123139 19.18866708 -19.41650391 17.07519531 C-22.2671612 15.1079057 -22.2671612 15.1079057 -25.41650391 14.07519531 C-27.29150391 12.82519531 -27.29150391 12.82519531 -28.41650391 11.07519531 C-29.06891855 4.98599199 -29.06891855 4.98599199 -27.20825195 2.38842773 C-24.84635249 0.65731216 -23.28730873 0.64853687 -20.37353516 0.56347656 C-18.88563477 0.51030273 -18.88563477 0.51030273 -17.36767578 0.45605469 C-16.33191406 0.43349609 -15.29615234 0.4109375 -14.22900391 0.38769531 C-13.21257812 0.35353516 -12.19615234 0.319375 -11.14892578 0.28417969 C-7.43295009 0.16663107 -3.71593277 0.11563016 0 0 Z " fill="#C0C0C0" transform="translate(314.41650390625,386.9248046875)"/>
<path d="M0 0 C1 4 1 4 1 4 Z " fill="#272729" transform="translate(388,319)"/>
</svg>
