<?xml version="1.0" encoding="UTF-8"?>
<svg version="1.1" xmlns="http://www.w3.org/2000/svg" width="1024" height="1024">
<path d="M0 0 C337.92 0 675.84 0 1024 0 C1024 337.92 1024 675.84 1024 1024 C686.08 1024 348.16 1024 0 1024 C0 686.08 0 348.16 0 0 Z " fill="#FDFDFD" transform="translate(0,0)"/>
<path d="M0 0 C5.0196924 3.63445723 11.12675242 8.80228358 12.4453125 15.140625 C12.4375 17.0625 12.4375 17.0625 12 20 C12.60585938 20.02578125 13.21171875 20.0515625 13.8359375 20.078125 C26.95627929 20.96627121 35.15151409 26.29912743 43.8203125 36.046875 C50.05672294 43.88156148 53.1919759 52.01725331 53 62 C54.32064453 62.17015625 54.32064453 62.17015625 55.66796875 62.34375 C65.16061099 64.21334425 73.11935784 70.52760508 79 78 C87.04726748 90.88772912 87.04726748 90.88772912 86.96484375 98.05859375 C86.93629819 101.58600921 87.08965204 104.58619516 88 108 C90.27045677 109.88594393 92.42163139 110.68142459 95.171875 111.734375 C105.47324334 116.34437961 111.01042546 127.00776286 115 137 C116.20667892 141.31056402 116.14944898 145.61686054 116.125 150.0625 C116.12886719 150.76955078 116.13273437 151.47660156 116.13671875 152.20507812 C116.13032651 155.60894531 116.06453812 158.74724463 115 162 C115.66 162.185625 116.32 162.37125 117 162.5625 C125.8874612 166.82107516 132.54774341 175.06081329 136.375 184 C140.44183344 196.3892563 138.38501084 207.43038579 133 219 C132.56042969 219.84820312 132.12085938 220.69640625 131.66796875 221.5703125 C130.72038798 224.02229231 130.72038798 224.02229231 132.01171875 226.32421875 C132.56472656 227.10410156 133.11773438 227.88398438 133.6875 228.6875 C140.51140869 239.33716986 141.83438187 251.429312 139.4609375 263.8125 C138.77819642 265.97326298 137.9687681 267.95342496 137 270 C136.73316406 270.6703125 136.46632813 271.340625 136.19140625 272.03125 C133.07451018 279.23474315 127.14569088 285.63732194 120 289 C119.34 289 118.68 289 118 289 C118.165 290.093125 118.33 291.18625 118.5 292.3125 C120.13270674 306.15395415 117.90670177 316.28655649 109.26171875 327.48828125 C102.93690178 334.51221443 95.071872 338.56976474 86 341 C85.01 341 84.02 341 83 341 C82.814375 342.27875 82.62875 343.5575 82.4375 344.875 C80.51066929 353.49146128 74.36120796 361.21592674 67 366 C56.69006313 371.538769 44.80916287 374.47834387 33.1953125 371.2109375 C29.59631431 369.66513828 26.45272819 368.1361509 24 365 C24 363.68 24 362.36 24 361 C22.68 361.33 21.36 361.66 20 362 C19.93554688 362.76828125 19.87109375 363.5365625 19.8046875 364.328125 C18.6680147 369.51488437 16.4352488 373.98808264 14.125 378.75 C13.38624634 380.27874756 13.38624634 380.27874756 12.63256836 381.83837891 C-1.15511214 409.88743786 -20.82928335 437.70272892 -43.4296875 459.4296875 C-45.20602767 461.20602767 -46.81303054 463.08414589 -48.4375 465 C-51.35638396 468.38694553 -54.49215105 471.26554886 -57.8984375 474.15234375 C-60.20251105 476.1780441 -62.34751158 478.31422567 -64.5 480.5 C-67.85256779 483.89268399 -71.29475682 487.09100684 -74.9140625 490.1953125 C-77.25025501 492.21651276 -79.52964851 494.29378839 -81.8125 496.375 C-86.10014552 500.24497533 -90.51591029 503.91443616 -95.01171875 507.5390625 C-97.19556028 509.33752023 -99.33478474 511.15510995 -101.45703125 513.0234375 C-107.29335886 518.1541354 -112.8776881 522.85273484 -119.70703125 526.640625 C-122.16607634 528.09845753 -124.28716692 529.7551599 -126.5 531.5625 C-130.3038707 534.6216976 -134.17297571 536.67641874 -138.578125 538.7421875 C-141.72556033 540.37682327 -144.38041959 542.42121263 -147.11328125 544.66796875 C-151.75611361 547.94582762 -155.46560857 548.1457224 -161.0625 547.875 C-167.42942996 547.68736945 -172.4800864 548.86551374 -178.421875 551.09765625 C-184.33492191 553.16722267 -188.51549365 551.91936456 -194.0234375 549.67578125 C-198.08077215 548.28858976 -201.71689744 548.52256649 -205.6875 550 C-212.00507677 551.90719299 -218.50761424 551.73545809 -224.8125 549.875 C-229.02701145 547.39587562 -233.75696171 544.48607657 -236 540 C-237.82068024 539.65418898 -239.65888306 539.39904248 -241.5 539.1875 C-253.58756599 537.34777533 -260.17430345 530.62141647 -267.45703125 521.2734375 C-269 519 -269 519 -270.3125 515.25 C-272.55414402 510.93275966 -275.09945218 510.29366373 -279.421875 508.37890625 C-284.39941126 505.71667852 -287.76599527 501.40924734 -290.3125 496.4375 C-290.85712606 494.50655306 -291.37149875 492.56707624 -291.875 490.625 C-293.08843798 486.71503317 -294.93180644 483.49459874 -297 480 C-299.31034112 476.02500261 -301.59516719 472.03858021 -303.84521484 468.02929688 C-305.01291459 465.97730527 -306.21879686 463.95095253 -307.42578125 461.921875 C-315.56817726 447.82271537 -319.86029609 432.63334257 -324 417 C-324.25620117 416.03755371 -324.51240234 415.07510742 -324.77636719 414.08349609 C-334.755101 375.68458816 -339.03766175 335.00629647 -341.18798828 295.48217773 C-341.62805216 288.03733831 -342.3410042 280.6693811 -343.2265625 273.265625 C-343.33973816 272.31373795 -343.45291382 271.36185089 -343.56951904 270.38111877 C-344.13171369 265.68895007 -344.71352487 261.00030472 -345.32421875 256.31420898 C-348.09888256 234.30367665 -347.22202401 212.94704182 -344.54638672 190.96435547 C-344.11866335 187.44790435 -343.71203543 183.92946882 -343.30859375 180.41015625 C-343.04285551 178.13788148 -342.775972 175.8657403 -342.5078125 173.59375 C-342.3868924 172.55931763 -342.26597229 171.52488525 -342.14138794 170.45910645 C-341.41585924 164.53429035 -340.39274277 158.80522216 -339 153 C-339.65226562 153.02320313 -340.30453125 153.04640625 -340.9765625 153.0703125 C-346.18675198 153.17789753 -350.04824872 152.7273551 -355 151 C-359.85919492 151.12459474 -363.53702777 153.77348623 -367 157 C-373.5642284 165.1378448 -375.96811877 172.57518481 -375 183 C-374.21228082 186.41952083 -373.20103252 189.70430958 -372 193 C-371.195625 192.835 -370.39125 192.67 -369.5625 192.5 C-361.11005199 191.31369151 -361.11005199 191.31369151 -357 192 C-353.93981129 194.53771747 -353.16549815 196.11734319 -352.4375 200 C-353.22493072 204.19963049 -354.53250505 205.52321789 -358 208 C-360.28796055 208.37649984 -362.53442917 208.5021196 -364.84765625 208.64453125 C-368.4441027 209.23849972 -369.91015171 211.15020688 -372 214 C-375.12335377 220.84163206 -374.41863589 226.99121376 -371.91015625 233.86328125 C-368.22810561 242.50740871 -361.88179949 246.75927564 -353.85546875 250.88671875 C-352 252 -352 252 -351 254 C-350.6875 257.4375 -350.6875 257.4375 -351 261 C-352.625 262.9375 -352.625 262.9375 -355 264 C-363.1710349 264.6780465 -370.61114874 260.16788953 -376.875 255.1875 C-386.27592881 246.40415046 -390.91003571 234.58065915 -391.4375 221.9375 C-391.4686973 216.44677436 -390.29881495 213.20112748 -387.625 208.4375 C-385.86162714 205.25775043 -385.86162714 205.25775043 -385 202 C-386.07095685 198.82282801 -387.68140635 196.34564171 -389.43359375 193.4921875 C-393.57193504 184.26606002 -392.21400627 172.0926918 -388.875 162.75 C-384.79035448 153.82767375 -379.37371679 147.25260417 -371 142 C-368.7265625 141.30859375 -368.7265625 141.30859375 -367 141 C-367.495 140.030625 -367.99 139.06125 -368.5 138.0625 C-371.9602851 128.75780991 -371.23361595 116.52790494 -367.32421875 107.48828125 C-362.24582448 97.94569379 -355.38047792 89.0106392 -345 85 C-343.68 85 -342.36 85 -341 85 C-341.165 84.195625 -341.33 83.39125 -341.5 82.5625 C-343.1189717 71.02732665 -341.18342776 60.22174239 -334.81640625 50.328125 C-330.95462577 45.37840206 -326.20292418 41.46861612 -321 38 C-315.06060606 37.46969697 -315.06060606 37.46969697 -312 39 C-310.65859587 41.68280827 -310.68610283 43.96889391 -311.16015625 46.8984375 C-312.50909389 50.27391867 -315.13478632 51.88592725 -317.921875 54.1015625 C-322.28107514 58.08383932 -324.58516636 63.06425422 -325.40625 68.875 C-325.57993762 74.20142033 -325.29148963 78.61134716 -322 83 C-319.11547725 85.02656383 -319.11547725 85.02656383 -316 86 C-312.61152855 84.87050952 -311.80305816 83.87716782 -309.5625 81.1875 C-308.94632812 80.47078125 -308.33015625 79.7540625 -307.6953125 79.015625 C-306.42450376 77.50470954 -305.1753983 75.97549485 -303.9375 74.4375 C-302 73 -302 73 -298.9375 73.0625 C-294.58096981 74.45288198 -294.58096981 74.45288198 -293 77 C-292.48892022 80.9466716 -292.79062275 82.66104913 -294.90625 86.0859375 C-295.76155202 87.1895476 -296.62675369 88.2855333 -297.5 89.375 C-307.65845935 102.89618512 -313.24117303 117.87250832 -318 134 C-318.30115723 135.01223633 -318.30115723 135.01223633 -318.60839844 136.04492188 C-326.58106579 163.75462648 -337.94709864 213.47242843 -330.52783203 241.80297852 C-329.81959908 244.7508917 -329.58916818 247.66814584 -329.31640625 250.6875 C-329.25665619 251.33761047 -329.19690613 251.98772095 -329.13534546 252.65753174 C-328.94156475 254.77144031 -328.75200562 256.88570427 -328.5625 259 C-328.29555796 261.93240984 -328.02668841 264.86464194 -327.7578125 267.796875 C-327.69208542 268.5169574 -327.62635834 269.23703979 -327.55863953 269.97894287 C-327.06105228 275.40752249 -326.50909445 280.82884736 -325.9375 286.25 C-325.26435627 292.70214707 -324.77497437 299.15331384 -324.35424805 305.62670898 C-322.73399952 352.73437061 -322.73399952 352.73437061 -304.453125 394.6484375 C-301.7144222 399.08042429 -301.89453074 403.79929194 -302 408.875 C-302.04293609 414.18680819 -301.88132496 419.45012981 -301.5625 424.75 C-301.52318359 425.45366699 -301.48386719 426.15733398 -301.44335938 426.88232422 C-301.49377434 430.23017933 -301.49377434 430.23017933 -300 433 C-299.59007812 432.37351562 -299.18015625 431.74703125 -298.7578125 431.1015625 C-298.21898437 430.28429687 -297.68015625 429.46703125 -297.125 428.625 C-296.59132813 427.81289063 -296.05765625 427.00078125 -295.5078125 426.1640625 C-294 424 -294 424 -292 422 C-289.19015752 421.63976378 -287.61758081 421.61667398 -285.1875 423.125 C-283.43264258 425.8958275 -283.61325087 427.7770906 -284 431 C-284.495 431.7425 -284.99 432.485 -285.5 433.25 C-288.01896913 437.86811006 -287.77888352 443.01992393 -286.4609375 448.0625 C-284.99850827 451.79089101 -283.01418263 454.4015667 -280 457 C-279.62101562 455.69675781 -279.62101562 455.69675781 -279.234375 454.3671875 C-277.94644324 450.8539053 -276.39071107 448.18671467 -274.25 445.125 C-273.59515625 444.15820312 -272.9403125 443.19140625 -272.265625 442.1953125 C-270 440 -270 440 -266.859375 439.5546875 C-264 440 -264 440 -262 442 C-261.32887707 447.81639871 -262.60276152 450.37598095 -266 455 C-269.09370928 460.10043963 -270.58758391 463.8891273 -270 470 C-269.95875 470.7425 -269.9175 471.485 -269.875 472.25 C-268.4387484 475.1225032 -265.84661881 475.78867285 -263 477 C-263.0825 475.824375 -263.165 474.64875 -263.25 473.4375 C-263.24130954 468.55345879 -261.93828087 465.89123683 -259 462 C-256.25 461.0625 -256.25 461.0625 -254 461 C-251.68075128 463.03641351 -250.3589504 464.28716992 -249 467 C-248.83468202 471.05619462 -249.48050532 474.98257451 -250 479 C-250.74522783 487.60033461 -250.74522783 487.60033461 -247 495 C-244.62157423 497.40406384 -244.62157423 497.40406384 -242 499 C-241.01 498.67 -240.02 498.34 -239 498 C-238.67 496.02 -238.34 494.04 -238 492 C-238.9590625 491.6596875 -238.9590625 491.6596875 -239.9375 491.3125 C-242 490 -242 490 -242.9375 487.9375 C-243.04146369 483.05120634 -241.66864962 478.02180298 -238.5234375 474.2109375 C-238.02070313 473.81132813 -237.51796875 473.41171875 -237 473 C-234.86254078 473.25146579 -233.54074221 473.45925779 -232 475 C-231.90099801 476.97712807 -231.87029227 478.95790038 -231.875 480.9375 C-231.87242187 482.01902344 -231.86984375 483.10054687 -231.8671875 484.21484375 C-232 487 -232 487 -233 489 C-231.824375 488.938125 -231.824375 488.938125 -230.625 488.875 C-228 489 -228 489 -226 491 C-225.98828125 493.06640625 -225.98828125 493.06640625 -226.3125 495.5625 C-226.41949219 496.449375 -226.52648437 497.33625 -226.63671875 498.25 C-226.75660156 499.1575 -226.87648438 500.065 -227 501 C-227.37951075 504.00036738 -227.71316623 506.98824539 -228 510 C-227.67 510.33 -227.34 510.66 -227 511 C-225.63875 510.87625 -225.63875 510.87625 -224.25 510.75 C-221 511 -221 511 -218.5 512.9375 C-214.52465058 517.80730304 -211.15935996 523.00735007 -208 528.4375 C-205.57004318 531.55088218 -203.71441261 531.9149474 -200 533 C-200.5053125 532.0821875 -201.010625 531.164375 -201.53125 530.21875 C-207.49827961 519.05320646 -207.49827961 519.05320646 -207.0625 514.4375 C-207.041875 513.303125 -207.02125 512.16875 -207 511 C-209.800674 508.19381992 -209.800674 508.19381992 -213 506 C-216.34202089 501.01472631 -215.4485726 494.73101714 -215 489 C-214.0674543 484.71630622 -213.13472807 481.13472807 -210 478 C-206.875 478.375 -206.875 478.375 -204 479 C-203.94392578 480.41152344 -203.94392578 480.41152344 -203.88671875 481.8515625 C-203.82097656 483.09679687 -203.75523437 484.34203125 -203.6875 485.625 C-203.62949219 486.85476563 -203.57148438 488.08453125 -203.51171875 489.3515625 C-202.97333284 493.19013075 -202.02846786 495.71349197 -200 499 C-198.6696875 499.7425 -198.6696875 499.7425 -197.3125 500.5 C-196.1678125 501.2425 -196.1678125 501.2425 -195 502 C-194.625 505.125 -194.625 505.125 -195 508 C-195.33 508.33 -195.66 508.66 -196 509 C-195.65084194 515.86677515 -193.97479659 520.02520341 -189 525 C-184.93523764 524.69890649 -181.41131304 522.03366739 -178 520 C-178.54140625 519.07380859 -178.54140625 519.07380859 -179.09375 518.12890625 C-184.84170867 507.63888168 -183.1192528 500.45233822 -180.16796875 489.2578125 C-178.55571156 484.7607473 -178.55571156 484.7607473 -176 483 C-173.27412743 483.13629363 -171.53511392 483.68631253 -169.1875 485.0625 C-167.2714896 488.18862224 -167.57612331 491.47695934 -168 495 C-168.65257873 496.672233 -169.31867549 498.33927151 -170 500 C-170.62407624 505.72069889 -169.53549181 508.50028315 -166 513 C-164.87465895 514.35618499 -164.87465895 514.35618499 -161.9375 514.0625 C-160.968125 514.041875 -159.99875 514.02125 -159 514 C-159.10441406 512.81857422 -159.10441406 512.81857422 -159.2109375 511.61328125 C-159.62096214 503.36397597 -158.01744957 498.30223116 -154.27734375 491.015625 C-152.00854514 485.65931757 -153.03519558 481.49714085 -155.0625 476.25 C-155.371875 475.5075 -155.68125 474.765 -156 474 C-156.125 471.1875 -156.125 471.1875 -156 469 C-154.35 468.34 -152.7 467.68 -151 467 C-146.04058212 470.60684937 -142.62886189 473.96039974 -141 480 C-140.1186782 488.38155022 -139.96808367 494.05673561 -145 501 C-145.79682803 504.73225344 -145.79682803 504.73225344 -146 508 C-143.45944368 507.25393738 -143.45944368 507.25393738 -141 505 C-140.02601465 502.15460176 -139.36902605 499.34544058 -138.7734375 496.3984375 C-138.51820313 495.60695313 -138.26296875 494.81546875 -138 494 C-137.01 493.67 -136.02 493.34 -135 493 C-132.92292556 489.88438834 -132.30207312 486.70039577 -132 483 C-132.61674772 481.31422289 -133.28272222 479.64551962 -134 478 C-133.9071875 476.7315625 -133.9071875 476.7315625 -133.8125 475.4375 C-133.9053125 474.2309375 -133.9053125 474.2309375 -134 473 C-135.64883365 471.644676 -137.31881802 470.31498392 -139 469 C-140.51051643 467.38047723 -141.97063379 465.71238706 -143.375 464 C-144.08398438 463.154375 -144.79296875 462.30875 -145.5234375 461.4375 C-147 459 -147 459 -146.7265625 456.6875 C-146.48679687 456.130625 -146.24703125 455.57375 -146 455 C-143.78125 454.30859375 -143.78125 454.30859375 -141 454 C-138.71875 455.22265625 -138.71875 455.22265625 -136.5 457.0625 C-135.33210938 458.02929688 -135.33210938 458.02929688 -134.140625 459.015625 C-132.31842163 460.70482082 -130.77603567 462.36149237 -129.25 464.3125 C-126.85333632 467.17518162 -125.38806806 467.7180283 -122 469 C-120.23605791 471.60391451 -120 472.80780296 -120 476 C-118.33358994 475.009245 -118.33358994 475.009245 -117 473 C-115.77594079 465.38363158 -118.9693869 460.31494183 -123 454 C-123.94497224 452.6985266 -124.90152848 451.40529635 -125.875 450.125 C-128 447 -128 447 -128.4375 444.1875 C-128 442 -128 442 -126 440 C-123.3125 439.4375 -123.3125 439.4375 -120 440 C-113.27170795 444.79930924 -108.87665181 452.5915311 -104.4375 459.39453125 C-101.58309047 463.75791249 -98.63988277 467.75212715 -95.1015625 471.58984375 C-94 473 -94 473 -94 475 C-93.34 475 -92.68 475 -92 475 C-91.35263708 469.67142434 -91.35263708 469.67142434 -93.37109375 464.8984375 C-94.48800604 463.56226991 -95.60518827 462.2263279 -96.72265625 460.890625 C-98 459 -98 459 -98 455.625 C-96.54533291 451.8064989 -94.57010388 450.66604848 -91 449 C-91.5775 447.86820313 -92.155 446.73640625 -92.75 445.5703125 C-93.50020991 444.08864793 -94.25019847 442.60687127 -95 441.125 C-95.3815625 440.37863281 -95.763125 439.63226562 -96.15625 438.86328125 C-96.5171875 438.14785156 -96.878125 437.43242188 -97.25 436.6953125 C-97.58515625 436.03547363 -97.9203125 435.37563477 -98.265625 434.69580078 C-99 433 -99 433 -99 431 C-100.175625 431.061875 -100.175625 431.061875 -101.375 431.125 C-104 431 -104 431 -106 429 C-106.46617107 426.62022545 -106.82567727 424.2189597 -107.125 421.8125 C-107.29257812 420.51957031 -107.46015625 419.22664063 -107.6328125 417.89453125 C-107.97878762 414.22498659 -108.14037722 410.68256235 -108 407 C-107 406 -107 406 -104.6875 405.625 C-102 406 -102 406 -99.875 408.0625 C-96.51038759 413.33372611 -94.53719783 417.67503704 -95 424 C-94.26265625 424.19851563 -93.5253125 424.39703125 -92.765625 424.6015625 C-89.1598884 426.42480219 -87.69337698 428.98156481 -85.75 432.375 C-85.399375 432.9525 -85.04875 433.53 -84.6875 434.125 C-82.94197137 437.06554438 -81.81062837 439.70344462 -81 443 C-78.31742407 444.5225431 -76.75455283 445.12235992 -73.6875 444.625 C-73.130625 444.41875 -72.57375 444.2125 -72 444 C-72.495 443.319375 -72.99 442.63875 -73.5 441.9375 C-75.32747775 438.3586894 -75.37453632 435.97008503 -75 432 C-74.34 431.34 -73.68 430.68 -73 430 C-69.23872509 430.10165608 -68.01010816 430.99079034 -65.1875 433.5625 C-64.465625 434.366875 -63.74375 435.17125 -63 436 C-62.01 435.67 -61.02 435.34 -60 435 C-58.18103027 431.36206054 -58.74745798 427.75762607 -60 424 C-60.928125 423.690625 -61.85625 423.38125 -62.8125 423.0625 C-66.27285182 421.90904939 -67.71544013 420.79223985 -70 418 C-70.33 417.01 -70.66 416.02 -71 415 C-71.33 415.33 -71.66 415.66 -72 416 C-74.375 416.375 -74.375 416.375 -77 416 C-78.625 413.9375 -78.625 413.9375 -80 411 C-80.5775 409.845 -81.155 408.69 -81.75 407.5 C-83.02232243 403.9374972 -83.29616632 402.48967855 -82 399 C-80 397 -80 397 -77.125 396.5625 C-74 397 -74 397 -71.875 399.3125 C-71.25625 400.199375 -70.6375 401.08625 -70 402 C-69.2575 402.495 -68.515 402.99 -67.75 403.5 C-66 405 -66 405 -65.75 407.6875 C-65.8325 408.450625 -65.915 409.21375 -66 410 C-64.80375 409.9175 -63.6075 409.835 -62.375 409.75 C-57.88345304 409.71032202 -55.65118828 411.4275719 -52 414 C-48.91143577 413.8284131 -48.21356952 413.21356952 -46 411 C-45.27332377 405.67104095 -46.91227534 403.23459383 -50 399 C-52.67153204 394.05271844 -54.13594156 390.05487819 -54.25 384.4375 C-54.27578125 383.67308594 -54.3015625 382.90867187 -54.328125 382.12109375 C-53.91424685 379.44566714 -53.15920142 378.59178337 -51 377 C-47.875 376.75 -47.875 376.75 -45 377 C-43.38910897 378.61089103 -43.84203899 380.52791576 -43.75 382.75 C-43.25980617 387.93727501 -41.97913671 389.52883819 -38 393 C-35.92217326 395.78280367 -33.94056261 398.62057285 -31.96484375 401.4765625 C-29.91445441 404.33770151 -29.91445441 404.33770151 -26 407 C-26.33 402.38 -26.66 397.76 -27 393 C-25.68 392.34 -24.36 391.68 -23 391 C-24.65701957 387.68596087 -25.81209434 386.11744104 -29 384.125 C-32.63442203 381.55061773 -33.65076296 379.06367843 -35 375 C-35.29003906 374.27167969 -35.58007812 373.54335938 -35.87890625 372.79296875 C-37.80982937 367.71022493 -38.32472982 364.29891928 -37 359 C-36 358 -36 358 -32.4375 357.9375 C-31.303125 357.958125 -30.16875 357.97875 -29 358 C-26.33333333 363.33333333 -23.66666667 368.66666667 -21 374 C-20.01 374 -19.02 374 -18 374 C-16.65682309 372.40686815 -16.65682309 372.40686815 -16 370 C-16.71796128 368.27036601 -17.44485404 366.54253741 -18.2578125 364.85546875 C-19.90817426 360.72956435 -19.1249472 356.60391149 -18.25 352.375 C-17.64369789 348.95002409 -17.64369789 348.95002409 -19.75 346.4375 C-20.4925 345.633125 -21.235 344.82875 -22 344 C-24.74275039 339.49405294 -25.49730526 336.27143571 -25 331 C-23 328 -23 328 -20.1875 327.3125 C-17 328 -17 328 -15.6015625 329.7578125 C-14.74983603 331.19800453 -13.93976895 332.66374916 -13.17578125 334.15234375 C-12.06331822 336.32922316 -12.06331822 336.32922316 -9 337 C-8.87625 335.80375 -8.7525 334.6075 -8.625 333.375 C-8.17674946 329.72403187 -7.29553163 326.45475101 -6 323 C-6.94875 322.278125 -7.8975 321.55625 -8.875 320.8125 C-11.6900151 318.44894958 -13.10866749 316.65446331 -14 313 C-14.3298962 308.87629745 -14.3377499 307.50662485 -12 304 C-9.6875 303.55078125 -9.6875 303.55078125 -7 304 C-4.5 305.79296875 -4.5 305.79296875 -2 308.1875 C-1.13503906 309.01378906 -0.27007813 309.84007812 0.62109375 310.69140625 C1.40613281 311.45324219 2.19117188 312.21507812 3 313 C3.85271484 313.72509766 3.85271484 313.72509766 4.72265625 314.46484375 C7.31080404 316.705893 8.03879191 318.14482313 8.9375 321.5 C9 325 9 325 8.0625 327.3125 C6.03350721 332.44465823 6.36870549 337.89568497 7.9375 343.125 C10.2644984 345.2404531 11.06893411 345.43682793 14.125 345.6875 C23.74885102 345.09669816 31.52241597 336.43283388 38 330 C38.71542969 329.08347656 39.43085937 328.16695313 40.16796875 327.22265625 C40.77253906 326.48917969 41.37710937 325.75570313 42 325 C42.66 325 43.32 325 44 325 C44.26554687 324.4121875 44.53109375 323.824375 44.8046875 323.21875 C46.03217656 320.94027358 47.35423918 319.37783007 49.125 317.5 C58.49168089 306.90649812 67.10589512 293.46650393 67.5625 278.875 C67.2911103 274.67792675 66.49653579 271.4773177 64 268 C59.76928028 265.41197936 55.82994802 265.3527179 51 266 C48.01920591 267.04593996 45.32958127 268.48675243 42.5625 270 C36.24211421 273.1967309 31.19582104 275.48525844 24 274 C23.23429687 273.85046875 22.46859375 273.7009375 21.6796875 273.546875 C13.81835954 271.46828659 8.24633329 266.44776023 4 259.625 C1.78052566 255.24603711 0.83254266 250.84494797 2 246 C3.9769201 243.46725019 4.68234115 243.05406959 7.9375 242.5 C11 243 11 243 13.0625 245 C14.1326108 246.65694575 15.19375059 248.32021802 16.21484375 250.0078125 C19.24153899 255.35278678 19.24153899 255.35278678 24 259 C29.33171238 259.60446739 32.66648882 257.87786508 37.0625 255.125 C46.40217507 249.4347351 54.13598792 247.66356494 65 249 C73.61673224 251.46506772 78.63526601 256.74347881 82.875 264.375 C87.31977899 278.38278833 83.19234158 293.30039672 77.00976562 306.04052734 C71.96433821 315.7397609 65.26315816 323.89629831 58 332 C57.27554687 332.845625 56.55109375 333.69125 55.8046875 334.5625 C52.09720459 338.866088 48.23411758 342.699897 43.890625 346.359375 C42.03251451 347.97178493 40.33043476 349.66583476 38.625 351.4375 C36 354 36 354 34 354 C34 354.66 34 355.32 34 356 C48.45416705 357.14629335 48.45416705 357.14629335 61 351 C66.82163307 345.46800041 68.18747156 340.17196646 68.55859375 332.40234375 C69.11829831 329.35616407 69.67991939 328.08343239 72 326 C74.68750749 325.48418613 77.10401451 325.16697825 79.8125 325 C85.74417973 324.62824496 89.08905326 323.67066384 94 320 C94.99 319.67 95.98 319.34 97 319 C98.08431094 317.25132517 98.08431094 317.25132517 99 315 C99.50789063 314.10667969 100.01578125 313.21335937 100.5390625 312.29296875 C102.1801251 308.59399611 102.4014999 306.02798495 102.375 302 C102.38273437 300.824375 102.39046875 299.64875 102.3984375 298.4375 C101.96294536 294.6803129 100.75993776 292.31363282 99 289 C98.480893 286.09401863 98.70417651 284.00753886 99 281 C101.10730503 278.17713034 102.90110438 277.58687687 106.3125 277.0625 C112.44195651 275.82071383 116.26666015 273.42263576 119.75 268.1875 C123.75698115 261.21715658 125.30467408 254.1371542 123.3125 246.29296875 C120.7897029 238.60894926 117.4519593 232.72763408 110.3125 228.625 C106.92888368 227.06684142 103.95433677 226.75486902 100.25 226.5625 C95.32909216 226.26177785 95.32909216 226.26177785 92.25 223.8125 C90.66440104 220.24490235 90.67369402 218.66684593 92 215 C94.15052427 212.36387348 95.77850773 211.19587894 99.16796875 210.65234375 C105.78079441 210.41053931 111.74131589 212.00102865 118 214 C118.68124706 212.00491933 119.34427209 210.00361307 120 208 C120.391875 206.9275 120.78375 205.855 121.1875 204.75 C122.84360944 197.10641798 121.60959138 190.68978198 117.515625 184.04296875 C113.33613623 178.40927642 108.98445182 175.28048283 102 174 C100.10464874 173.86789159 98.20875953 173.74335883 96.3125 173.625 C92.86757054 173.34580929 91.27996115 173.17578956 88.3125 171.3125 C86.5435153 168.19571743 86.35116052 166.53257049 87 163 C90.45323264 158.39568981 93.59829522 157.16507358 99 156 C100.86246992 146.66740615 98.98902671 139.65936517 93.875 131.6875 C86.8950057 125.16272271 81.17154769 122.64169605 71.6484375 122.25 C69 122 69 122 65.8125 120.375 C63.31647332 117.10434435 62.78350019 115.1134963 63 111 C65.16677476 108.28458676 67.89819985 106.55090007 71 105 C70.72829247 96.57706649 68.24049591 90.08598391 62.0703125 84.140625 C54.93286838 78.53064947 48.08743949 75.91451718 39 77 C36.65078555 77.66682433 34.39496521 78.46949517 32.10546875 79.31640625 C28.9265899 80.34850977 26.2941745 80.46118443 23 80 C20.41140016 77.82891626 20.06459143 76.37947467 19.5 73.0625 C20.19415414 68.81080592 21.60848452 67.63015486 25 65 C28.94876912 62.87693149 32.468788 61 37 61 C34.82685071 51.69739604 31.47533178 45.20577063 23.5625 39.625 C15.72703589 34.84823035 8.93735814 34.42722468 0 36 C-2.02237052 36.95394836 -4.0282696 37.94535351 -6 39 C-11.84778761 39.59469027 -11.84778761 39.59469027 -14.9375 38 C-16.68234807 34.71558011 -16.85409835 31.54832728 -16 28 C-12.45677461 24.20368708 -8.7453364 22.1466998 -4 20 C-6.06754951 16.0332682 -7.93935871 14.03167312 -11.8125 11.8125 C-12.64394531 11.32394531 -13.47539063 10.83539063 -14.33203125 10.33203125 C-21.47417929 6.76618574 -28.10847172 6.08435617 -36 7 C-40.87720862 8.64218151 -44.09616646 10.98318726 -47.5 14.8125 C-49.63279023 19.34467925 -50.83778652 23.18482913 -49.37109375 28.11328125 C-47.71494555 31.79284063 -46.04420356 34.16041125 -42.75 36.5 C-39.85483921 39.13196435 -39.54922018 39.42397859 -39.375 43.0625 C-40 47 -40 47 -41.625 49.5 C-44.8527185 51.53855905 -46.22576439 51.72581454 -50 51 C-58.05107147 46.32167468 -63.10861596 39.79689957 -66 31 C-68.12821267 21.14982649 -66.31913478 13.27708467 -61 4.8125 C-45.16914247 -16.38418503 -19.76737528 -11.62802978 0 0 Z " fill="#111111" transform="translate(654,183)"/>
<path d="M0 0 C12.53783604 6.67230927 19.49854262 24.05714691 26 36 C26.59071289 37.07894531 27.18142578 38.15789063 27.79003906 39.26953125 C40.42127815 62.48370039 55.03436323 89.4376847 47.15234375 116.6796875 C40.21558928 136.66694614 30.292807 155.78040984 18 173 C17.20104293 174.14659231 16.40291081 175.29375975 15.60546875 176.44140625 C9.02516253 185.84929716 2.19571 194.92026702 -6 203 C-6.66902344 203.70382812 -7.33804688 204.40765625 -8.02734375 205.1328125 C-15.21990741 212.63425926 -15.21990741 212.63425926 -20 214 C-27.61707194 213.40313241 -34.09296604 209.68347235 -40.6875 206.125 C-41.77675781 205.54854736 -42.86601563 204.97209473 -43.98828125 204.37817383 C-51.1965007 200.54985252 -58.34925599 196.6217407 -65.5 192.6875 C-90.38239521 179.00106683 -111.00146523 171.05100892 -139.37304688 178.63427734 C-148.27819318 181.23621525 -156.64845503 184.47624647 -164.8125 188.8984375 C-167 190 -167 190 -169 190 C-169 189.34 -169 188.68 -169 188 C-167.44291628 186.77119892 -165.82582798 185.61818749 -164.1875 184.5 C-160.10013247 181.60651916 -156.34870165 178.6035319 -152.6875 175.1875 C-148.08538683 170.90616001 -143.29866211 167.0167814 -138.33276367 163.17651367 C-134.29971522 160.04811526 -130.37444375 156.82238723 -126.5 153.5 C-122.02851175 149.66641766 -117.46798825 145.98270411 -112.8125 142.375 C-107.81149062 138.49421125 -103.05806373 134.44251742 -98.3984375 130.15234375 C-95.97906135 127.98120978 -93.48265436 125.95910159 -90.9375 123.9375 C-74.90458412 110.93478261 -58.93755782 95.96461003 -46.1640625 79.72265625 C-44.18126064 77.22804813 -42.12018638 74.82219495 -40.02392578 72.42285156 C-26.24290517 56.55904493 -14.73212659 38.54378009 -7 19 C-6.62101563 18.0821875 -6.24203125 17.164375 -5.8515625 16.21875 C-3.66239834 10.88574858 -1.75101452 5.49181827 0 0 Z " fill="#FCFCFC" transform="translate(668,609)"/>
<path d="M0 0 C10.0908562 3.4862229 16.05802559 12.6244105 21.6875 21.1875 C22.19804932 21.96158203 22.70859863 22.73566406 23.23461914 23.53320312 C40.86084679 50.60311364 62.45860349 84.13433713 62.0625 117.4375 C62.05798828 118.16904297 62.05347656 118.90058594 62.04882812 119.65429688 C62.03718148 121.43623419 62.01925191 123.21812863 62 125 C62.72098877 125.27295898 63.44197754 125.54591797 64.18481445 125.82714844 C66.94149933 126.97562768 69.44878148 128.28937344 72.04296875 129.765625 C73.02112549 130.31887451 73.99928223 130.87212402 75.00708008 131.44213867 C76.05661865 132.03873291 77.10615723 132.63532715 78.1875 133.25 C87.1795513 138.32570088 96.21142401 143.30904113 105.3125 148.1875 C106.92161255 149.05193726 106.92161255 149.05193726 108.56323242 149.93383789 C112.72484318 152.16944011 116.88674767 154.40446076 121.05224609 156.6328125 C123.87207534 158.14391717 126.68661028 159.66444842 129.5 161.1875 C130.33700439 161.63311279 131.17400879 162.07872559 132.03637695 162.5378418 C132.79781006 162.95203369 133.55924316 163.36622559 134.34375 163.79296875 C135.33665039 164.32700317 135.33665039 164.32700317 136.34960938 164.87182617 C138 166 138 166 140 169 C140.41857482 172.83693587 140.54644269 175.11203064 138.5 178.4375 C135.06151097 180.58655565 131.91536445 180.44610212 128 180 C124.59521484 178.73754883 124.59521484 178.73754883 121.2109375 176.95703125 C120.5936528 176.63707687 119.9763681 176.3171225 119.34037781 175.98747253 C117.34275397 174.94560858 115.35901069 173.88002633 113.375 172.8125 C111.98667589 172.08056563 110.59791798 171.34945353 109.20874023 170.61914062 C100.11992163 165.81090336 91.2169323 160.72277802 82.41845703 155.40063477 C74.81847291 150.81639057 67.01009014 146.81228889 59 143 C58.34 142.67 57.68 142.34 57 142 C56.82839355 142.61456055 56.65678711 143.22912109 56.47998047 143.86230469 C48.03011635 173.17679027 29.74091109 199.30635221 11 223 C10.26136719 223.96808594 9.52273438 224.93617188 8.76171875 225.93359375 C1.12684453 235.71111474 -8.90029493 245.98316181 -21.54296875 248.5078125 C-40.90696013 249.82353422 -63.30523164 232.59610266 -79.5 223.6875 C-97.85963205 213.59124739 -113.24158541 205.44073967 -134.671875 211.03125 C-162.21771938 219.04928921 -191.49541328 231.94132472 -213.5625 250.5625 C-216.2358473 252.76935717 -218.40227617 254.52552527 -221.8125 255.3125 C-225 255 -225 255 -227.9375 252.875 C-230.24484018 249.65870762 -230.50570656 248.82089402 -230 245 C-226.51367862 238.86045222 -221.81042019 233.51069685 -216.703125 228.66796875 C-214.90518112 226.90713839 -213.3067496 225.05069637 -211.6875 223.125 C-208.19301247 219.06255965 -204.29864096 215.56865379 -200.28515625 212.02734375 C-197.22170249 209.30951042 -194.35754534 206.42632763 -191.53515625 203.4609375 C-187.2225145 199.01637965 -182.57938302 195.13612448 -177.7578125 191.25390625 C-175.27736158 189.2266822 -172.8789604 187.14447506 -170.5 185 C-166.44963861 181.35825914 -162.25787487 177.92170642 -158.02734375 174.4921875 C-154.59866871 171.66961373 -151.23539908 168.77812531 -147.875 165.875 C-143.4758847 162.07857587 -139.02112638 158.42130449 -134.3984375 154.8984375 C-130.5987576 151.89087328 -126.95299838 148.70633282 -123.28857422 145.53637695 C-119.7879085 142.51333091 -116.24326329 139.57012241 -112.625 136.6875 C-104.06721758 129.74703658 -96.04196557 122.06360491 -88.26953125 114.2578125 C-86.26880217 112.2674142 -84.2233714 110.43677357 -82.0625 108.625 C-78.73567459 105.76355281 -75.93736285 102.7304472 -73.2265625 99.28515625 C-72.82179688 98.86105469 -72.41703125 98.43695312 -72 98 C-71.34 98 -70.68 98 -70 98 C-69.72929688 97.40832031 -69.45859375 96.81664062 -69.1796875 96.20703125 C-68.01006125 94.0188232 -66.80322926 92.50349435 -65.125 90.6875 C-44.2015025 67.13238735 -29.21078155 42.56904705 -19.83447266 12.5168457 C-17.0411051 4.09179416 -17.0411051 4.09179416 -12.9609375 0.95703125 C-8.77682213 -1.08501709 -4.49331416 -0.76242605 0 0 Z M-4 18 C-4.16798096 18.5256958 -4.33596191 19.0513916 -4.5090332 19.59301758 C-11.21061816 40.16892504 -20.31944493 58.46074428 -33 76 C-33.70898438 76.98613281 -34.41796875 77.97226562 -35.1484375 78.98828125 C-46.52846 94.49715667 -59.63396031 108.69304453 -73.1875 122.3125 C-73.84073242 122.97040527 -74.49396484 123.62831055 -75.16699219 124.30615234 C-79.61503165 128.73962644 -84.2384159 132.90740375 -89 137 C-90.15582021 138.0107221 -91.31079791 139.02240864 -92.46484375 140.03515625 C-107.95578422 153.56064626 -123.97140854 166.45304501 -139.953125 179.390625 C-143.81033604 182.52601877 -147.64411226 185.6794241 -151.3984375 188.9375 C-152.59893919 189.97918873 -153.79946021 191.02085518 -155 192.0625 C-155.5868457 192.57224365 -156.17369141 193.0819873 -156.77832031 193.60717773 C-161.35479125 197.54210512 -166.09925119 201.07067012 -171.0859375 204.4765625 C-171.71757812 204.97929688 -172.34921875 205.48203125 -173 206 C-173 206.66 -173 207.32 -173 208 C-169.89236974 206.7746336 -166.8099553 205.49836625 -163.734375 204.1953125 C-142.0778084 195.13682722 -119.42869791 188.49448213 -96.6328125 197.30078125 C-80.60034705 203.88844187 -65.23798801 212.38029166 -50.1875 220.9375 C-37.83437791 228.86156839 -37.83437791 228.86156839 -24 232 C-18.13827545 229.48783234 -14.32633619 225.58362931 -10 221 C-9.2059375 220.21882812 -8.411875 219.43765625 -7.59375 218.6328125 C-0.19961277 211.12731778 6.13150606 202.72718091 12 194 C12.72445312 192.97261719 13.44890625 191.94523438 14.1953125 190.88671875 C30.66067496 167.28479198 49.43288931 136.87898783 44.3828125 106.921875 C38.6747375 78.04773428 20.92387102 40.87726997 0 20 C-1.31940322 19.30617194 -2.65146024 18.63534458 -4 18 Z " fill="#111111" transform="translate(672,591)"/>
<path d="M0 0 C2.375 1.0625 2.375 1.0625 4 3 C4.53418909 8.52446189 3.3218561 12.14642782 0.6875 16.875 C-17.86251722 52.25642369 -30.85193971 90.26056968 -31.3125 130.4375 C-31.33030518 131.42024902 -31.34811035 132.40299805 -31.36645508 133.41552734 C-31.3588447 140.35267522 -30.12760199 146.40628533 -28 153 C-24.21087501 152.45126434 -21.88709888 151.50273527 -18.84765625 149.19140625 C-18.07808594 148.61390625 -17.30851562 148.03640625 -16.515625 147.44140625 C-15.70609375 146.82136719 -14.8965625 146.20132813 -14.0625 145.5625 C-12.35593865 144.28192563 -10.64890386 143.00198196 -8.94140625 141.72265625 C-8.1023877 141.0898877 -7.26336914 140.45711914 -6.39892578 139.80517578 C24.53587933 116.52693957 24.53587933 116.52693957 43 119 C53.62010395 122.04847791 62.67076819 128.33475074 71.7265625 134.46191406 C74.92609094 136.62654348 78.14274293 138.76519295 81.35839844 140.90576172 C82.91554091 141.94375073 84.47097293 142.98431178 86.02441406 144.02783203 C89.63180853 146.44834615 93.24450377 148.8117581 97 151 C86.82368501 134.40973999 75.33255701 118.22972195 63.35522461 102.89404297 C60.9984756 99.6002835 61.62301136 96.95838071 62 93 C63 90.9375 63 90.9375 65 90 C68.46080725 89.70165455 69.89538579 89.68880168 73 91 C76.47168244 93.96168307 79.20478314 97.40614975 82 101 C83.04607422 102.33611328 83.04607422 102.33611328 84.11328125 103.69921875 C86.45406767 106.76748906 88.73410472 109.8763977 91 113 C91.75120117 114.03036377 91.75120117 114.03036377 92.51757812 115.08154297 C99.47545789 124.62874201 106.40371535 134.19817746 113 144 C113.46277344 144.66 113.92554688 145.32 114.40234375 146 C117.4419053 150.67292025 118.22634965 155.51328459 118 161 C116.83439397 164.56157397 115.70891765 166.3353897 113 168.875 C105.91471753 171.53198093 98.64327791 170.57419323 91.84765625 167.515625 C82.78396382 162.69160214 74.27189375 157.00300094 66 150.9375 C60.97367955 147.25536042 55.80312544 143.99760572 50.375 140.9375 C49.69953125 140.5552124 49.0240625 140.1729248 48.328125 139.77905273 C42.66265193 136.65458448 37.52131901 134.95443315 31 136 C18.08288316 140.34575869 7.08286255 150.50796955 -3.53515625 158.734375 C-12.44124651 165.5834457 -19.6596514 170.95897763 -31.296875 170.421875 C-36.22950642 169.65204235 -38.7736165 167.2263835 -42.1875 163.8125 C-44.59101722 160.08290432 -45.80614351 156.25073746 -47 152 C-47.17418457 151.43128174 -47.34836914 150.86256348 -47.52783203 150.27661133 C-48.5403762 145.39451498 -48.18588641 140.29961707 -48.18530273 135.33251953 C-48.18744906 133.29827635 -48.2055036 131.2646131 -48.22460938 129.23046875 C-48.26413341 119.68389529 -47.3890413 110.44075887 -46 101 C-47.0837793 101.66249756 -47.0837793 101.66249756 -48.18945312 102.33837891 C-61.19457929 110.28070722 -74.21479623 118.19133871 -87.375 125.875 C-88.85129883 126.73859131 -88.85129883 126.73859131 -90.35742188 127.61962891 C-104.50164207 135.84237973 -104.50164207 135.84237973 -111 135 C-113.95552697 132.97779734 -114.82481182 131.47403861 -116.0625 128.125 C-115.99051173 124.52558658 -115.00568426 123.19635677 -112.67016602 120.54345703 C-109.51049962 117.6235022 -105.74153577 115.82603234 -101.9375 113.875 C-100.13109115 112.91468932 -98.32644995 111.95104745 -96.5234375 110.984375 C-95.14430176 110.24670898 -95.14430176 110.24670898 -93.73730469 109.49414062 C-86.00143728 105.27156584 -78.51508278 100.60006473 -71 96 C-70.07348633 95.43394043 -69.14697266 94.86788086 -68.19238281 94.28466797 C-65.3546761 92.54836969 -62.52029829 90.8067935 -59.6875 89.0625 C-58.8219751 88.53092285 -57.9564502 87.9993457 -57.06469727 87.45166016 C-53.2910479 85.1159262 -49.59757579 82.74856159 -46.01953125 80.12109375 C-43 78 -43 78 -41 78 C-40.81050781 76.73929688 -40.81050781 76.73929688 -40.6171875 75.453125 C-36.20028223 50.74081955 -24.12530422 20.50290173 -8 1 C-5.19084526 -0.40457737 -3.11189466 -0.24895157 0 0 Z " fill="#111111" transform="translate(334,642)"/>
<path d="M0 0 C19.4584075 -0.67203291 44.7185623 4.23783102 59.43359375 17.84765625 C67.76963027 26.88843016 68.21308187 37.8836516 68.0234375 49.640625 C67.46016834 62.63013672 64.33661048 75.48343644 61.61328125 88.1640625 C61.35708008 89.36949707 61.10087891 90.57493164 60.83691406 91.81689453 C58.41869483 103.06872635 55.71711437 114.12953872 52.23828125 125.1015625 C49.93062813 132.40913072 47.78775043 139.65599536 50.29296875 147.21484375 C53.73775336 152.3004873 61.66684294 156.12190396 67.61328125 157.4140625 C72.28865095 157.66470088 76.2343417 155.26916202 80.3984375 153.39453125 C88.78201207 150.18575119 96.52219521 150.37942902 104.6875 153.9609375 C106.61328125 155.1640625 106.61328125 155.1640625 108.61328125 158.1640625 C108.93771268 161.27860427 109.07257178 163.32653271 107.55078125 166.1015625 C104.46013989 167.79643034 101.94987941 166.89204755 98.61328125 166.1640625 C97.95328125 165.8340625 97.29328125 165.5040625 96.61328125 165.1640625 C90.62390247 164.62636266 86.93602696 166.0783279 81.73828125 168.6640625 C71.97881213 173.17263406 65.90267915 173.19682909 55.67578125 169.4921875 C46.35683507 165.45080778 37.96212602 159.92740095 33.73828125 150.4140625 C30.26899418 138.96741559 34.20387748 127.9520635 37.36328125 116.9140625 C37.81251472 115.30896171 38.26043925 113.70349399 38.70703125 112.09765625 C39.58451432 108.9478702 40.46729494 105.79965096 41.35449219 102.65258789 C46.4305963 84.60058986 50.94166259 66.97191186 51.05078125 48.1015625 C51.06077148 47.08457275 51.07076172 46.06758301 51.08105469 45.01977539 C51.04029957 38.05849611 51.04029957 38.05849611 47.61328125 32.1640625 C37.6524808 24.30126746 24.86681983 20.5192881 12.61328125 18.1640625 C11.65679687 17.97714844 10.7003125 17.79023438 9.71484375 17.59765625 C-4.99087969 15.54181834 -17.29384658 17.595929 -30.1875 24.80078125 C-33.62404914 26.26519596 -34.92746827 26.39907022 -38.38671875 25.1640625 C-40.26171875 23.9140625 -40.26171875 23.9140625 -41.38671875 22.1640625 C-41.27056484 17.75021387 -39.36048739 15.29434528 -36.38671875 12.1640625 C-30.85768973 7.5377321 -25.18858638 5.40370184 -18.38671875 3.1640625 C-16.87078125 2.57625 -16.87078125 2.57625 -15.32421875 1.9765625 C-10.27627199 0.58032191 -5.20468909 0.35776914 0 0 Z " fill="#121212" transform="translate(369.38671875,388.8359375)"/>
<path d="M0 0 C3.03938231 2.82746208 3.61808713 3.57886685 4.4375 7.8125 C3.6875 10.9375 3.6875 10.9375 0.6875 12.9375 C-6.40472617 14.09541448 -10.64982606 10.65652211 -16.3125 6.9375 C-18.09897337 5.84562388 -19.89051386 4.76198656 -21.6875 3.6875 C-22.47898437 3.20796875 -23.27046875 2.7284375 -24.0859375 2.234375 C-26.1269791 1.04555779 -28.18711305 -0.0337739 -30.3125 -1.0625 C-30.23 0.0925 -30.1475 1.2475 -30.0625 2.4375 C-30.07981296 7.31975432 -31.46612723 10.98420448 -34.3125 14.9375 C-39.53723512 19.25358553 -44.4900409 21.22271348 -51.25 20.875 C-56.31306733 20.20500011 -59.81686396 18.70274627 -63.3125 14.9375 C-66.56378957 10.20925267 -67.84050185 5.60147785 -68.3125 -0.0625 C-73.23590905 2.73106409 -77.92913305 5.41134467 -82.0625 9.3125 C-84.49615484 11.49934551 -85.17912925 11.9144166 -88.5625 12.5 C-91.3125 11.9375 -91.3125 11.9375 -93.1875 10.875 C-95.04686213 7.67276522 -94.85807085 5.57463897 -94.3125 1.9375 C-88.23884585 -8.82834971 -74.17049336 -15.25784285 -62.7578125 -18.46875 C-39.82050985 -24.0381909 -17.6807076 -14.26041471 0 0 Z " fill="#121212" transform="translate(582.3125,444.0625)"/>
<path d="M0 0 C0.71239838 -0.01471344 1.42479675 -0.02942688 2.15878296 -0.04458618 C16.06070577 -0.28518831 28.61893836 2.83814595 41.0625 9.1875 C41.71234863 9.51451904 42.36219727 9.84153809 43.03173828 10.1784668 C50.77088178 14.29658667 57.93441539 20.24537308 62.8125 27.5625 C63.27693597 31.2005818 63.24093764 32.91984354 61.1875 36 C58.8125 37.5625 58.8125 37.5625 56.015625 37.421875 C52.22929124 36.40602936 50.2067845 34.85780007 47.1875 32.375 C30.80054295 19.46895765 11.75025009 15.09530454 -8.75 16.87109375 C-24.28970044 18.86653256 -38.24666482 23.59208241 -52.1875 30.5625 C-59.47559789 31.14092047 -59.47559789 31.14092047 -62.1875 28.9375 C-63.47693638 25.87508861 -63.59165579 23.86310561 -63.1875 20.5625 C-59.02817402 12.0172181 -48.32039694 8.77961981 -39.82421875 5.73046875 C-26.57442959 1.47516589 -13.88370886 0.14478955 0 0 Z " fill="#121212" transform="translate(537.1875,391.4375)"/>
<path d="M0 0 C2.53138638 2.31840916 2.91954592 3.20603686 4 6.6875 C3.875 10.0625 3.875 10.0625 2.875 12.5 C0.875 14.0625 0.875 14.0625 -2.3125 14.6875 C-7.41278598 13.85138754 -10.2991566 11.40141788 -14.125 8.0625 C-14.0425 9.25875 -13.96 10.455 -13.875 11.6875 C-13.875 16.17644216 -15.21586733 18.58770264 -18.125 22.0625 C-22.02306579 25.70069474 -26.31622085 26.89806553 -31.5625 27.375 C-37.03682521 26.89479603 -40.74787458 25.22540591 -44.9375 21.6875 C-49.20388747 16.56783503 -49.59185265 11.50235875 -50.125 5.0625 C-57.89266552 8.79198017 -57.89266552 8.79198017 -64.25 14.4375 C-67.77529555 17.65624811 -69.57274033 17.68373111 -74.171875 17.56640625 C-76.125 17.0625 -76.125 17.0625 -78.125 14.0625 C-78.49162773 10.61619937 -78.50086669 8.71172428 -76.75 5.6875 C-76.21375 5.15125 -75.6775 4.615 -75.125 4.0625 C-74.465 4.0625 -73.805 4.0625 -73.125 4.0625 C-73.125 3.4025 -73.125 2.7425 -73.125 2.0625 C-52.0559072 -16.72549023 -22.07488536 -16.88345015 0 0 Z " fill="#111111" transform="translate(411.125,435.9375)"/>
<path d="M0 0 C6.941674 2.02573658 12.29380733 2.55469964 19.08984375 -0.09765625 C23.43754502 -1.35072768 27.43537399 -1.40277771 31.9375 -1.375 C33.26382446 -1.37197876 33.26382446 -1.37197876 34.61694336 -1.36889648 C41.14690244 -1.26998463 46.98039512 -0.3932387 53.31640625 1.21875 C56.40234659 1.9294046 59.28055844 2.20549978 62.4375 2.375 C67.12386442 2.72544661 69.79496462 3.81532682 73.4375 6.9375 C74.38625 7.700625 75.335 8.46375 76.3125 9.25 C78.4375 11.9375 78.4375 11.9375 78.9375 15.625 C78.7725 16.718125 78.6075 17.81125 78.4375 18.9375 C74.92496854 21.27918764 73.57280644 21.43373677 69.4375 20.9375 C68.695 20.29425781 67.9525 19.65101563 67.1875 18.98828125 C63.8042887 16.46528987 61.48495095 16.18989305 57.3125 15.75 C56.64943848 15.67668457 55.98637695 15.60336914 55.30322266 15.52783203 C53.34955548 15.31599997 51.39352308 15.12634369 49.4375 14.9375 C48.4578125 14.82535156 47.478125 14.71320312 46.46875 14.59765625 C36.48553216 13.52592845 26.96158144 13.50148509 17.109375 15.48046875 C10.13530976 16.67340096 3.89527129 16.17033022 -2.9375 14.4375 C-13.03711817 11.91859286 -21.90128618 12.00751472 -31.5625 15.9375 C-31.61148437 16.76894531 -31.66046875 17.60039063 -31.7109375 18.45703125 C-31.78570312 19.54371094 -31.86046875 20.63039063 -31.9375 21.75 C-32.00710938 22.82894531 -32.07671875 23.90789063 -32.1484375 25.01953125 C-32.5625 27.9375 -32.5625 27.9375 -34.5625 30.9375 C-37 31.375 -37 31.375 -39.5625 30.9375 C-43.68721723 26.66547144 -43.85150935 22.16087952 -43.77734375 16.5078125 C-43.37614766 11.70804833 -41.85840285 8.40061612 -38.625 4.75 C-26.70283742 -2.30597377 -13.12093324 -3.86053833 0 0 Z " fill="#121212" transform="translate(433.5625,593.0625)"/>
<path d="M0 0 C0.86971436 0.00241699 1.73942871 0.00483398 2.63549805 0.00732422 C12.77201529 0.29186456 21.70257624 3.40876258 29.875 9.5625 C32.4375 12.5625 32.4375 12.5625 33.1875 15.6875 C32.4375 18.5625 32.4375 18.5625 30.3125 20.9375 C26.84898286 22.89514012 25.36350971 23.17834466 21.4375 22.5625 C19.37272309 21.6926924 17.42591652 20.71561342 15.46484375 19.6328125 C8.14678949 15.76933106 -0.02545452 15.04927018 -8.078125 17.25 C-13.30946134 19.64603191 -16.97769613 23.39289225 -19.5625 28.5625 C-19.68398305 30.18415752 -19.73793652 31.81134327 -19.75 33.4375 C-19.77126953 34.73300781 -19.77126953 34.73300781 -19.79296875 36.0546875 C-19.46769702 39.59408493 -18.61631752 41.68147935 -15.87109375 43.9765625 C-15.25363281 44.37617188 -14.63617187 44.77578125 -14 45.1875 C-10.65972222 47.36805556 -10.65972222 47.36805556 -9.5625 49.5625 C-9.1875 52.9375 -9.1875 52.9375 -9.5625 56.5625 C-11.625 59.0625 -11.625 59.0625 -14.5625 60.5625 C-20.78923777 60.5625 -24.61944362 58.25602043 -29.12890625 54.12890625 C-34.48915197 48.52684493 -37.06257715 41.63330033 -38 34 C-36.76149779 24.26891118 -33.51212588 15.89153058 -26.0078125 9.328125 C-17.63079493 2.96994546 -10.52639475 -0.030734 0 0 Z " fill="#121212" transform="translate(575.5625,154.4375)"/>
<path d="M0 0 C10.59022244 -0.4249688 20.21872839 1.92048064 28.80859375 8.15234375 C28.32693506 14.53432142 28.32693506 14.53432142 26.18359375 17.08984375 C21.99604907 18.963219 18.24881622 18.65622324 13.97265625 17.16015625 C6.74201318 14.85706253 -0.87293813 15.09814321 -7.75390625 18.33984375 C-12.82193621 21.24759514 -15.90670767 24.78181851 -18.19140625 30.15234375 C-18.5309513 34.94079962 -17.65494786 38.42976418 -15.06640625 42.46484375 C-12.70870315 44.66878361 -11.27126423 45.71483081 -8.50390625 47.08984375 C-5.19140625 49.15234375 -5.19140625 49.15234375 -3.50390625 52.58984375 C-3.19140625 56.15234375 -3.19140625 56.15234375 -4.50390625 59.08984375 C-7.78414866 61.60723909 -9.62342756 61.94304014 -13.6875 61.6953125 C-21.03607939 60.1017828 -26.88485108 55.44426621 -31.0078125 49.27734375 C-34.8663526 42.34979981 -36.5921891 35.03936022 -35.19140625 27.15234375 C-31.14262085 15.95070413 -25.46666988 8.54055317 -14.62890625 3.27734375 C-9.67988624 1.2039219 -5.3398316 0.37121824 0 0 Z " fill="#111212" transform="translate(522.19140625,144.84765625)"/>
<path d="M0 0 C2.06640625 2.1953125 2.06640625 2.1953125 2.12890625 5.7578125 C0.92744372 9.64489717 0.55806417 10.31179987 -2.93359375 12.1953125 C-5.81435174 12.69633026 -8.70496724 12.8333154 -11.62109375 13.0078125 C-20.06748751 13.71835936 -25.8967731 15.53453363 -31.6015625 22.12109375 C-33.83891089 25.60505854 -34.05056481 29.11508674 -33.93359375 33.1953125 C-33.11915972 36.70209044 -31.71049992 39.39065968 -29.18359375 42.0078125 C-26.80067481 43.37397483 -26.80067481 43.37397483 -23.37109375 44.1328125 C-19.93359375 45.1953125 -19.93359375 45.1953125 -17.99609375 47.0078125 C-16.65362293 49.77172301 -16.34129945 51.15980423 -16.93359375 54.1953125 C-18.74609375 57.0703125 -18.74609375 57.0703125 -21.93359375 59.1953125 C-29.38041475 59.98653723 -35.20624132 57.81119243 -40.93359375 53.1953125 C-47.43512465 47.72811607 -50.38936175 41.00342776 -51.171875 32.65234375 C-51.41024184 24.15895673 -49.54968704 17.23491063 -44.30859375 10.4453125 C-35.04947943 0.65512679 -12.60626443 -7.75511873 0 0 Z " fill="#111112" transform="translate(484.93359375,151.8046875)"/>
<path d="M0 0 C1.41441874 2.82883747 1.31900332 4.87376745 1 8 C-2.04064808 10.94585569 -5.21579134 11.76570889 -9.25 12.8125 C-16.30244036 14.88861166 -21.21305716 17.67364887 -25.9375 23.3125 C-27.77213677 27.95305184 -28.82173488 32.42493776 -27.26953125 37.2890625 C-25.53321279 40.94797113 -24.44614764 42.70256824 -21 45 C-18.6210964 45.27096645 -18.6210964 45.27096645 -16.0625 45.3125 C-12.32615175 45.62340781 -11.3152153 45.72981545 -8.375 48.25 C-6.8696668 51.2606664 -6.32376148 52.70333721 -7 56 C-8.76010991 58.26299846 -10.15342881 59.64969468 -12.8125 60.75 C-21.59536783 61.75375632 -28.88263707 59.74185586 -35.875 54.25 C-40.65315273 49.82119334 -43.72345155 43.4863239 -44.23828125 36.99609375 C-44.46906669 25.93053901 -42.71584337 17.96668431 -34.97265625 9.8125 C-26.17257435 1.72688019 -11.78582565 -6.42863217 0 0 Z " fill="#121212" transform="translate(430,164)"/>
<path d="M0 0 C2.16551116 3.24826674 2.55156953 4.23094157 2 8 C-0.58210997 10.88964216 -3.44526216 13.15363539 -6.5625 15.4375 C-11.99171341 19.67210816 -13.96594552 22.56393503 -14.875 29.4375 C-15.18411491 34.12469138 -14.83482294 37.08989939 -12 41 C-8.99884764 43.70819822 -7.00919766 44.35332204 -3 44.5 C0.95520323 44.64470256 3.12362826 45.18246314 6 48 C6.5 51.4375 6.5 51.4375 6 55 C4.13291495 57.36497439 2.67938569 58.66030715 0 60 C-7.29545562 60.73268564 -13.71695126 60.75795701 -19.99609375 56.6875 C-26.66908363 51.0681401 -30.55087758 44.78433566 -31.37109375 36.046875 C-31.62136705 27.28325656 -31.29801971 20.35537254 -26 13 C-25.49210937 12.28457031 -24.98421875 11.56914062 -24.4609375 10.83203125 C-18.60782937 3.4393615 -9.86256099 -3.93227109 0 0 Z " fill="#111111" transform="translate(378,190)"/>
<path d="M0 0 C3.02441989 0.05694514 3.9504476 0.76148718 6.2578125 2.80859375 C9.31044782 6.19873165 12.15297675 9.69500603 14.875 13.35546875 C17.12833041 15.97155122 19.32070777 17.56024753 22.25 19.375 C23.15363281 19.94476563 24.05726563 20.51453125 24.98828125 21.1015625 C31.33557022 24.64931872 35.96968391 26.16858615 43.125 25.8125 C51.76095404 25.43771714 51.76095404 25.43771714 54.9375 27.75 C56.9375 30.75 56.9375 30.75 56.875 34.25 C55.9375 37.75 55.9375 37.75 53.5625 39.625 C44.70241002 43.42218142 34.04559322 42.94921837 25.0625 39.6875 C16.98395457 36.14937775 9.85188412 31.32153791 3.9375 24.75 C3.44636719 24.21632813 2.95523438 23.68265625 2.44921875 23.1328125 C-5.93623403 13.76940369 -5.93623403 13.76940369 -6.15234375 8.6015625 C-5.65356644 3.57751466 -5.09667695 1.24816578 0 0 Z " fill="#121212" transform="translate(643.0625,260.25)"/>
<path d="M0 0 C2.66113366 2.27169947 4.7118037 4.59858372 6.75 7.4375 C12.209238 13.6549655 19.76111703 17.96747849 28 19 C31.71855297 18.94387426 35.41677874 18.66572143 39.11132812 18.24584961 C42.37835029 17.91682664 44.51940554 17.75060634 47.4765625 19.28515625 C49 21 49 21 49.5 23.9375 C49 27 49 27 47.5625 29.1875 C39.34456959 35.00018249 29.67747313 34.85044461 20 34 C9.23775051 31.66866803 -0.60911143 23.77393176 -7 15 C-7.639375 14.175 -8.27875 13.35 -8.9375 12.5 C-10.4485722 8.94453601 -10.02201927 6.67926936 -9 3 C-6.30299786 0.01403334 -3.94918171 -0.77057204 0 0 Z " fill="#141413" transform="translate(664,313)"/>
<path d="M0 0 C15.10179387 4.41268387 27.29864276 14.86588656 34.94140625 28.47265625 C36.5522973 31.76821961 37.12211735 34.43923767 37.15234375 38.06640625 C37.16652344 38.83984375 37.18070313 39.61328125 37.1953125 40.41015625 C36.96484375 42.56640625 36.96484375 42.56640625 34.96484375 45.56640625 C32.02734375 45.94140625 32.02734375 45.94140625 28.96484375 45.56640625 C26.16012105 43.34988626 24.89924797 40.67287097 23.33984375 37.50390625 C19.6030809 30.46118528 14.64689585 24.02110765 7.96484375 19.56640625 C8.17109375 20.32953125 8.37734375 21.09265625 8.58984375 21.87890625 C8.96484375 24.56640625 8.96484375 24.56640625 6.96484375 27.56640625 C3.96484375 27.94140625 3.96484375 27.94140625 0.96484375 27.56640625 C-1.05403238 24.53809205 -1.65619993 22.06862417 -2.4609375 18.56640625 C-3.21524751 15.9391496 -4.55789846 13.84944101 -6.03515625 11.56640625 C-6.03515625 10.90640625 -6.03515625 10.24640625 -6.03515625 9.56640625 C-6.83953125 9.33953125 -7.64390625 9.11265625 -8.47265625 8.87890625 C-11.03515625 7.56640625 -11.03515625 7.56640625 -12.03515625 5.12890625 C-12.03515625 2.56640625 -12.03515625 2.56640625 -11.03515625 0.75390625 C-7.45161734 -1.37381998 -3.97492795 -0.84686565 0 0 Z " fill="#111111" transform="translate(498.03515625,565.43359375)"/>
<path d="M0 0 C1.98997907 1.62340398 3.37700316 3.04971374 5 5 C6.32737576 6.5467991 7.66117049 8.08810396 9 9.625 C9.639375 10.38039063 10.27875 11.13578125 10.9375 11.9140625 C16.46297266 17.50232463 22.64482267 19.11482059 30.3125 19.1875 C33.96868114 19.47321614 33.96868114 19.47321614 37 18 C40.31681358 18.2456899 43.07265179 18.47836663 46 20.125 C47.66419313 23.24536212 46.83079102 25.67683593 46 29 C44.39489925 31.73811304 42.81362212 32.0694349 39.8125 33.1875 C26.939433 35.93754746 15.6653689 34.39743998 4.47265625 27.42578125 C-1.62946295 23.07002561 -5.66287573 17.67424854 -9 11 C-9.45641838 3.81141046 -9.45641838 3.81141046 -7.875 1 C-5.00288188 -0.53179633 -3.2072487 -0.51315979 0 0 Z " fill="#111112" transform="translate(670,354)"/>
<path d="M0 0 C0.804375 0.515625 1.60875 1.03125 2.4375 1.5625 C3.65154629 2.26760843 4.86920862 2.96651645 6.08984375 3.66015625 C7.19457031 4.28792969 8.29929687 4.91570312 9.4375 5.5625 C9.14504395 6.43463135 8.85258789 7.3067627 8.55126953 8.20532227 C7.45791384 11.46825821 6.36595097 14.73165358 5.27490234 17.99536133 C4.80409822 19.40277201 4.33275372 20.81000205 3.86083984 22.21704102 C3.17921061 24.24967957 2.49958374 26.28297866 1.8203125 28.31640625 C1.41184082 29.53658447 1.00336914 30.7567627 0.58251953 32.01391602 C-0.21679011 34.49109418 -0.95798777 36.94686474 -1.64892578 39.45288086 C-2.5625 42.5625 -2.5625 42.5625 -3.5625 43.5625 C-9.03062542 43.52199537 -14.26432379 43.20943739 -18.5625 39.5625 C-22.29362441 34.36557671 -23.07472484 29.91408797 -22.5625 23.5625 C-20.09535348 14.07105733 -14.35155975 6.95406826 -6.375 1.375 C-3.02311467 -0.51614153 -3.02311467 -0.51614153 0 0 Z " fill="#FAFAFA" transform="translate(321.5625,278.4375)"/>
<path d="M0 0 C3.33059916 2.22039944 3.69179808 3.1862337 5.1875 6.75 C8.2355243 13.10311088 12.33176708 16.46037548 18.7734375 19.1640625 C23.74674495 20.45254651 28.54181031 19.93166121 33.63671875 19.6796875 C37 20 37 20 38.953125 21.8203125 C40 24 40 24 40.0625 27 C38.63216745 31.03858602 36.72817805 32.02625868 33 34 C24.11419661 36.74387794 14.7052977 35.002296 6.6171875 30.74609375 C-0.49098239 26.32457112 -7.20344027 20.06067216 -10 12 C-10.94633926 4.26934128 -10.94633926 4.26934128 -8.6953125 1.25 C-5.90707253 -0.80584514 -3.3379876 -0.29803461 0 0 Z " fill="#131313" transform="translate(671,390)"/>
<path d="M0 0 C0.78503906 -0.01675781 1.57007813 -0.03351562 2.37890625 -0.05078125 C3.39791016 0.12904297 3.39791016 0.12904297 4.4375 0.3125 C6.4375 3.3125 6.4375 3.3125 6.3125 5.25 C5.4375 7.3125 5.4375 7.3125 3.5625 9.125 C-0.83566835 13.65252624 -1.94598136 19.36776355 -3.03515625 25.39453125 C-3.5625 27.3125 -3.5625 27.3125 -5.5625 29.3125 C-8.1875 28.9375 -8.1875 28.9375 -10.5625 28.3125 C-11.2225 26.0025 -11.8825 23.6925 -12.5625 21.3125 C-17.04212047 28.38536274 -17.04212047 28.38536274 -19.25 36.3125 C-19.5625 39.3125 -19.5625 39.3125 -20.75 41.25 C-23.50545679 42.86526777 -25.43923586 42.76797602 -28.5625 42.3125 C-31.38107787 40.05763771 -31.55287094 38.37990342 -32.0625 34.8125 C-31.61889167 25.26604863 -26.48421922 17.21879708 -20.04296875 10.5078125 C-16.2177117 7.12230941 -12.04824747 4.70921706 -7.5625 2.3125 C-4.45212372 0.23891581 -3.56688748 0.01762877 0 0 Z " fill="#111111" transform="translate(403.5625,561.6875)"/>
<path d="M0 0 C0.6978511 -0.00095673 1.39570221 -0.00191345 2.11470032 -0.00289917 C3.6035674 -0.00358201 5.09243741 -0.00172055 6.58129883 0.00244141 C8.80882942 0.00768434 11.03614851 0.00255538 13.26367188 -0.00390625 C22.28202955 -0.00768357 31.1863399 0.34754442 40.17578125 1.1328125 C40.3302837 4.54903342 40.36005284 5.83934294 38.48828125 8.8203125 C34.80790851 12.2538964 29.73022804 12.18723553 24.94140625 12.67578125 C24.02875 12.82660156 23.11609375 12.97742188 22.17578125 13.1328125 C20.35310587 16.77816325 21.2251705 21.15872787 21.3359375 25.1640625 C21.17578125 28.1328125 21.17578125 28.1328125 19.17578125 30.1328125 C16.73828125 30.5078125 16.73828125 30.5078125 14.17578125 30.1328125 C11.20486814 27.07619998 10.78795788 24.68878225 10.61328125 20.5078125 C10.60205497 16.32144197 10.60205497 16.32144197 8.17578125 13.1328125 C5.94060509 12.85812984 5.94060509 12.85812984 3.42578125 12.8203125 C-0.1348475 12.52101327 -2.56724904 12.11023712 -5.44921875 9.9453125 C-7.82421875 7.1328125 -7.82421875 7.1328125 -8.26171875 3.8828125 C-7.44066466 -1.27809894 -4.74640859 0.00415596 0 0 Z " fill="#141414" transform="translate(431.82421875,617.8671875)"/>
<path d="M0 0 C6.375923 5.17368328 11.11065496 13.28647128 12.625 21.3125 C11.73650455 25.13303042 10.09568285 26.66103962 7 29 C4.14106941 29.54455821 2.80994324 29.47996636 0.3125 28 C-1.2979155 25.54603352 -1.60174212 23.15123704 -2.19140625 20.3125 C-3.21160449 17.39483162 -4.80580088 15.38184579 -6.6875 12.9375 C-10.55725637 7.70526691 -10.55725637 7.70526691 -10.1875 4 C-9 1 -9 1 -7.25 -0.5 C-4.44319934 -1.12373348 -2.75872096 -0.79835713 0 0 Z " fill="#141414" transform="translate(657,459)"/>
<path d="M0 0 C6.91195265 0.17626109 12.62743185 4.90259449 17.5625 9.375 C20.82864595 12.89238794 22.3215517 15.62305984 22.5625 20.5625 C19.5625 22.5625 19.5625 22.5625 16.25390625 22.48828125 C11.88556529 21.39272907 9.8306228 19.7471217 6.5 16.75 C3.47490925 14.05882203 0.62620545 11.60370364 -2.77734375 9.40234375 C-5.4375 7.5625 -5.4375 7.5625 -5.9375 4.9375 C-5.11294692 1.02087287 -3.88543583 0.63579859 0 0 Z " fill="#121212" transform="translate(460.4375,564.4375)"/>
<path d="M0 0 C2 2 2 2 2 4.1875 C0.78691269 7.59930805 -1.02401909 9.57130823 -3.4375 12.22265625 C-5.57818924 14.65769026 -7.24853618 17.27550072 -9 20 C-10 21 -10 21 -12.4375 21.25 C-13.283125 21.1675 -14.12875 21.085 -15 21 C-17.27259163 17.59111256 -17.16740451 16.01922938 -16.53515625 12.05859375 C-15.32430493 7.4007934 -12.75840429 4.62650789 -9.125 1.625 C-5.70278688 -0.15455082 -3.7975514 -0.51784792 0 0 Z " fill="#131313" transform="translate(426,565)"/>
<path d="M0 0 C0.66 0 1.32 0 2 0 C2.95756617 4.88358746 2.97807956 7.49437433 1 12 C0.77685011 13.41149028 0.59143086 14.82929384 0.4375 16.25 C0 20 0 20 -1 21 C-2.85287502 21.07226502 -4.70833878 21.0838122 -6.5625 21.0625 C-7.57441406 21.05347656 -8.58632813 21.04445313 -9.62890625 21.03515625 C-10.41136719 21.02355469 -11.19382812 21.01195312 -12 21 C-13.26026798 18.47946405 -12.91874445 17.1457902 -12.5625 14.375 C-12.46066406 13.55773437 -12.35882812 12.74046875 -12.25390625 11.8984375 C-12.17011719 11.27195312 -12.08632813 10.64546875 -12 10 C-10.9275 9.608125 -9.855 9.21625 -8.75 8.8125 C-4.41801455 6.97096773 -2.09941259 4.19882519 0 0 Z " fill="#F5F5F5" transform="translate(546,661)"/>
<path d="M0 0 C7.64427473 3.22758266 11.66658011 7.38075454 15 15 C15.38621608 16.65521178 15.73614642 18.32093175 16 20 C10.34568045 19.6166563 7.10491567 19.22219898 3 15 C-0.88208899 10.44858532 -0.29726622 5.67007781 0 0 Z " fill="#F4F4F4" transform="translate(401,688)"/>
<path d="M0 0 C0.9075 0.103125 1.815 0.20625 2.75 0.3125 C3.03678397 5.76139549 2.27451524 11.08021314 0.75 16.3125 C-1.25 18.3125 -1.25 18.3125 -3.75 18.625 C-4.575 18.521875 -5.4 18.41875 -6.25 18.3125 C-8.85313778 14.40779333 -8.35930922 12.27965521 -7.78515625 7.765625 C-6.71972363 2.8817441 -5.04830826 0.48541426 0 0 Z " fill="#0E0E0E" transform="translate(366.25,578.6875)"/>
<path d="M0 0 C2.5 -0.3125 2.5 -0.3125 5 0 C7 2 7 2 7.4375 4.8125 C7 8 7 8 4.9375 10.8125 C1.46213109 13.40054068 -0.68493204 14 -5 14 C-7 12.8125 -7 12.8125 -8 11 C-8 9.0625 -8 9.0625 -7 7 C-5.37064759 5.62131719 -3.70250393 4.28725907 -2 3 C-1.34 2.01 -0.68 1.02 0 0 Z " fill="#121212" transform="translate(429,631)"/>
<path d="M0 0 C5.875 0.875 5.875 0.875 7 2 C7.15135944 3.7872057 7.22175778 5.58161876 7.25 7.375 C7.28867187 8.84066406 7.28867187 8.84066406 7.328125 10.3359375 C7 13 7 13 5.6796875 14.8359375 C3.14261767 16.59418589 0.99662891 16.26057643 -2 16 C-3.72334021 14.27665979 -3.21271834 12.0331379 -3.25 9.6875 C-3.27578125 8.72199219 -3.3015625 7.75648438 -3.328125 6.76171875 C-2.95633227 3.63246324 -2.08404796 2.30890577 0 0 Z " fill="#111111" transform="translate(436,569)"/>
<path d="M0 0 C3.18141867 -0.46557346 5.25343123 -0.50963377 7.95703125 1.3359375 C9.6935608 2.84258024 11.369718 4.37936464 13 6 C12.125 10.875 12.125 10.875 11 12 C7.58186607 12.47474082 6.24360833 12.15862868 3.3125 10.25 C1.15335244 8.14920777 -0.10842519 6.85303938 -1 4 C-0.625 1.75 -0.625 1.75 0 0 Z " fill="#121213" transform="translate(460,634)"/>
<path d="M0 0 C4.29 0 8.58 0 13 0 C10.73706004 6.78881988 10.73706004 6.78881988 7.5 9.875 C6.58734375 10.76832031 6.58734375 10.76832031 5.65625 11.6796875 C4 13 4 13 2 13 C1.93941406 12.39671875 1.87882813 11.7934375 1.81640625 11.171875 C1.69072266 9.97304688 1.69072266 9.97304688 1.5625 8.75 C1.48128906 7.96109375 1.40007813 7.1721875 1.31640625 6.359375 C1.00488803 3.70381637 1.00488803 3.70381637 0 0 Z " fill="#F0F0F0" transform="translate(573,642)"/>
<path d="M0 0 C1.9375 1.1875 1.9375 1.1875 3 3 C2.75546876 6.34192692 2.39456443 7.60543557 0 10 C-3.1304173 10.33302312 -5.17898298 10.47671956 -7.9375 8.875 C-9 7 -9 7 -8.8125 3.875 C-8.544375 2.92625 -8.27625 1.9775 -8 1 C-5.20129973 -0.39935013 -3.09501208 -0.25265405 0 0 Z " fill="#F0F0F0" transform="translate(537,440)"/>
<path d="M0 0 C0.556875 0.721875 1.11375 1.44375 1.6875 2.1875 C3.93535913 5.08168386 3.93535913 5.08168386 6.8125 7.4375 C9 10 9 10 9 13.1875 C8 16 8 16 5 18 C4.18639005 16.70903219 3.37414954 15.41720125 2.5625 14.125 C2.11003906 13.40570312 1.65757812 12.68640625 1.19140625 11.9453125 C-1.14623238 8.12844681 -1.16348305 5.49578399 -1 1 C-0.67 0.67 -0.34 0.34 0 0 Z " fill="#EFEFEF" transform="translate(648,534)"/>
<path d="M0 0 C3.5625 0.1875 3.5625 0.1875 5.5625 2.1875 C5.9258156 5.02136167 5.9193671 6.59272151 4.4375 9.0625 C2.5625 10.1875 2.5625 10.1875 -0.5 10.0625 C-3.4375 9.1875 -3.4375 9.1875 -5.4375 6.1875 C-4.73161765 0.25808824 -4.73161765 0.25808824 0 0 Z " fill="#EEEFEF" transform="translate(379.4375,438.8125)"/>
<path d="M0 0 C0.66 0 1.32 0 2 0 C3.69140625 2.01171875 3.69140625 2.01171875 5.5625 4.6875 C6.49255859 5.99267578 6.49255859 5.99267578 7.44140625 7.32421875 C8.98342898 9.971551 9.60350598 11.98555914 10 15 C9.01 15.495 9.01 15.495 8 16 C6.86800647 15.0919838 5.74467637 14.17316174 4.625 13.25 C3.99851562 12.73953125 3.37203125 12.2290625 2.7265625 11.703125 C0.87464712 9.87634874 -0.08874117 8.43002355 -1 6 C-0.625 2.75 -0.625 2.75 0 0 Z " fill="#E9E9E9" transform="translate(378,667)"/>
<path d="M0 0 C-1.34532377 4.40287778 -3.09430413 6.54758631 -7 9 C-9.8125 9.25 -9.8125 9.25 -12 9 C-11.7153924 5.58470886 -11.20339329 4.21501576 -8.8125 1.6875 C-5.57283878 -0.25629673 -3.71198163 -0.34530062 0 0 Z " fill="#F1F1F1" transform="translate(486,712)"/>
<path d="M0 0 C0.66 0 1.32 0 2 0 C2.25394531 0.54269531 2.50789063 1.08539062 2.76953125 1.64453125 C3.11371094 2.35996094 3.45789063 3.07539062 3.8125 3.8125 C4.14894531 4.52019531 4.48539062 5.22789062 4.83203125 5.95703125 C5.91413325 8.05757461 5.91413325 8.05757461 7.63671875 9.63671875 C9 11 9 11 9 13 C5.6333163 12.69393785 3.43845613 12.2999963 0.625 10.375 C-1.58792365 7.14072698 -1.36156326 4.8325706 -1 1 C-0.67 0.67 -0.34 0.34 0 0 Z " fill="#EEEEEE" transform="translate(432,708)"/>
<path d="M0 0 C0.66 0.33 1.32 0.66 2 1 C-4.93 7.93 -11.86 14.86 -19 22 C-19.33 21.01 -19.66 20.02 -20 19 C-13.52848604 12.43141333 -7.08470943 5.91781611 0 0 Z " fill="#1F2020" transform="translate(478,797)"/>
<path d="M0 0 C0.66 0.33 1.32 0.66 2 1 C1.6875 4.375 1.6875 4.375 1 8 C0.01 8.66 -0.98 9.32 -2 10 C-3 9 -3 9 -3.25 5.5625 C-3.1675 4.386875 -3.085 3.21125 -3 2 C-2.01 1.34 -1.02 0.68 0 0 Z " fill="#E6E5E6" transform="translate(617,602)"/>
<path d="M0 0 C0.66 0 1.32 0 2 0 C3.42944945 2.35438733 4.08661261 3.48032433 3.625 6.25 C3.41875 6.8275 3.2125 7.405 3 8 C2.34 8 1.68 8 1 8 C-1 5 -1 5 -0.625 2.3125 C-0.41875 1.549375 -0.2125 0.78625 0 0 Z " fill="#E6E5E6" transform="translate(528,686)"/>
<path d="M0 0 C0 3 0 3 -1.53125 4.82421875 C-2.1809375 5.43910156 -2.830625 6.05398438 -3.5 6.6875 C-4.1496875 7.31011719 -4.799375 7.93273437 -5.46875 8.57421875 C-5.9740625 9.04472656 -6.479375 9.51523437 -7 10 C-7.66 9.67 -8.32 9.34 -9 9 C-7.87895467 7.68412059 -6.75303035 6.37239647 -5.625 5.0625 C-4.99851562 4.33160156 -4.37203125 3.60070312 -3.7265625 2.84765625 C-2 1 -2 1 0 0 Z " fill="#1D1D1E" transform="translate(279,328)"/>
<path d="M0 0 C0.99 0.33 1.98 0.66 3 1 C2.75 2.875 2.75 2.875 2 5 C-0.0625 6.25 -0.0625 6.25 -2 7 C-2.125 4.625 -2.125 4.625 -2 2 C-1.34 1.34 -0.68 0.68 0 0 Z " fill="#E8E8E8" transform="translate(516,699)"/>
<path d="M0 0 C0.99 0.33 1.98 0.66 3 1 C0.36 3.64 -2.28 6.28 -5 9 C-5.99 8.67 -6.98 8.34 -8 8 C-6.625 6.5 -6.625 6.5 -5 5 C-4.34 5 -3.68 5 -3 5 C-2.690625 4.360625 -2.38125 3.72125 -2.0625 3.0625 C-1 1 -1 1 0 0 Z " fill="#202021" transform="translate(701,503)"/>
<path d="M0 0 C0.66 0.33 1.32 0.66 2 1 C-1.12621626 4.39417765 -3.56541027 6.6062718 -8 8 C-8 7.34 -8 6.68 -8 6 C-6.25 4.4921875 -6.25 4.4921875 -4 2.875 C-3.2575 2.33617187 -2.515 1.79734375 -1.75 1.2421875 C-1.1725 0.83226562 -0.595 0.42234375 0 0 Z " fill="#D0CFD0" transform="translate(507,791)"/>
<path d="M0 0 C-1.49097658 3.7952131 -3.75700849 5.61042731 -7 8 C-7 5 -7 5 -4.625 2.3125 C-2 0 -2 0 0 0 Z " fill="#1B1B1C" transform="translate(329,225)"/>
<path d="M0 0 C0.99 0 1.98 0 3 0 C2.6875 2.375 2.6875 2.375 2 5 C1.01 5.66 0.02 6.32 -1 7 C-1.04254356 5.00045254 -1.04080783 2.99958364 -1 1 C-0.67 0.67 -0.34 0.34 0 0 Z " fill="#E9E9E9" transform="translate(502,707)"/>
<path d="M0 0 C0 3 0 3 -2.5 5.6875 C-3.325 6.450625 -4.15 7.21375 -5 8 C-5.66 7.67 -6.32 7.34 -7 7 C-2.25 1.125 -2.25 1.125 0 0 Z " fill="#181919" transform="translate(500,153)"/>
<path d="M0 0 C0.99 0.33 1.98 0.66 3 1 C0.69 3.31 -1.62 5.62 -4 8 C-4.33 7.34 -4.66 6.68 -5 6 C-3.625 4 -3.625 4 -2 2 C-1.34 2 -0.68 2 0 2 C0 1.34 0 0.68 0 0 Z " fill="#252627" transform="translate(338,438)"/>
<path d="M0 0 C0.99 0.33 1.98 0.66 3 1 C-0.465 3.97 -0.465 3.97 -4 7 C-4 4 -4 4 -2 1.8125 C-1.34 1.214375 -0.68 0.61625 0 0 Z " fill="#242526" transform="translate(298,275)"/>
<path d="M0 0 C0.66 0.99 1.32 1.98 2 3 C0.9024777 5.99324263 0.32317108 6.84610901 -2.625 8.25 C-3.40875 8.4975 -4.1925 8.745 -5 9 C-5 8.01 -5 7.02 -5 6 C-3.68212715 4.97971135 -2.34789347 3.98028616 -1 3 C-0.67 2.01 -0.34 1.02 0 0 Z " fill="#E2E1E3" transform="translate(608,170)"/>
</svg>
